font.ufo
<glyph name="exclam" format="2">
	<unicode hex="0021"/>
	<advance width="337"/>
	<outline>
		<contour>
			<point x="168" y="-14" type="curve" smooth="yes"/>
			<point x="224" y="-14"/>
			<point x="267" y="28"/>
			<point x="267" y="82" type="curve" smooth="yes"/>
			<point x="267" y="137"/>
			<point x="224" y="180"/>
			<point x="168" y="180" type="curve" smooth="yes"/>
			<point x="113" y="180"/>
			<point x="70" y="137"/>
			<point x="70" y="82" type="curve" smooth="yes"/>
			<point x="70" y="28"/>
			<point x="113" y="-14"/>
		</contour>
		<contour>
			<point x="168" y="662" type="curve" smooth="yes"/>
			<point x="104" y="662"/>
			<point x="65" y="626"/>
			<point x="65" y="558" type="curve" smooth="yes"/>
			<point x="65" y="522"/>
			<point x="75" y="460"/>
			<point x="114" y="338" type="curve" smooth="yes"/>
			<point x="140" y="257" type="line"/>
			<point x="197" y="257" type="line"/>
			<point x="223" y="338" type="line" smooth="yes"/>
			<point x="261" y="459"/>
			<point x="272" y="522"/>
			<point x="272" y="558" type="curve" smooth="yes"/>
			<point x="272" y="626"/>
			<point x="232" y="662"/>
		</contour>
	</outline>
</glyph>
<glyph name="numbersign" format="2">
	<unicode hex="0023"/>
	<advance width="583"/>
	<outline>
		<contour>
			<point x="92" y="0" type="line"/>
			<point x="178" y="0" type="line"/>
			<point x="274" y="640" type="line"/>
			<point x="188" y="640" type="line"/>
		</contour>
		<contour>
			<point x="16" y="268" type="line"/>
			<point x="16" y="155" type="line"/>
			<point x="533" y="155" type="line"/>
			<point x="533" y="268" type="line"/>
		</contour>
		<contour>
			<point x="568" y="371" type="line"/>
			<point x="568" y="484" type="line"/>
			<point x="49" y="484" type="line"/>
			<point x="49" y="371" type="line"/>
		</contour>
		<contour>
			<point x="317" y="0" type="line"/>
			<point x="402" y="0" type="line"/>
			<point x="498" y="640" type="line"/>
			<point x="414" y="640" type="line"/>
		</contour>
	</outline>
</glyph>
<glyph name="dollar" format="2">
	<unicode hex="0024"/>
	<advance width="549"/>
	<outline>
		<contour>
			<point x="254" y="-16" type="curve" smooth="yes"/>
			<point x="414" y="-16"/>
			<point x="511" y="69"/>
			<point x="511" y="186" type="curve" smooth="yes"/>
			<point x="511" y="284"/>
			<point x="454" y="349"/>
			<point x="315" y="395" type="curve" smooth="yes"/>
			<point x="282" y="405" type="line" smooth="yes"/>
			<point x="213" y="428"/>
			<point x="187" y="453"/>
			<point x="187" y="505" type="curve" smooth="yes"/>
			<point x="187" y="566"/>
			<point x="233" y="593"/>
			<point x="300" y="593" type="curve" smooth="yes"/>
			<point x="341" y="593"/>
			<point x="368" y="589"/>
			<point x="419" y="565" type="curve"/>
			<point x="338" y="611" type="line"/>
			<point x="348" y="539" type="line" smooth="yes"/>
			<point x="359" y="465"/>
			<point x="396" y="452"/>
			<point x="432" y="452" type="curve" smooth="yes"/>
			<point x="459" y="452"/>
			<point x="486" y="468"/>
			<point x="491" y="504" type="curve"/>
			<point x="483" y="590"/>
			<point x="409" y="640"/>
			<point x="288" y="640" type="curve" smooth="yes"/>
			<point x="133" y="640"/>
			<point x="49" y="558"/>
			<point x="49" y="444" type="curve" smooth="yes"/>
			<point x="49" y="350"/>
			<point x="114" y="284"/>
			<point x="233" y="244" type="curve" smooth="yes"/>
			<point x="265" y="233" type="line" smooth="yes"/>
			<point x="341" y="206"/>
			<point x="366" y="184"/>
			<point x="366" y="128" type="curve" smooth="yes"/>
			<point x="366" y="70"/>
			<point x="322" y="31"/>
			<point x="253" y="31" type="curve" smooth="yes"/>
			<point x="189" y="31"/>
			<point x="162" y="42"/>
			<point x="114" y="66" type="curve"/>
			<point x="200" y="15" type="line"/>
			<point x="186" y="102" type="line" smooth="yes"/>
			<point x="177" y="160"/>
			<point x="150" y="176"/>
			<point x="112" y="176" type="curve" smooth="yes"/>
			<point x="85" y="176"/>
			<point x="60" y="162"/>
			<point x="48" y="127" type="curve"/>
			<point x="49" y="36"/>
			<point x="120" y="-16"/>
		</contour>
		<contour>
			<point x="242" y="-115" type="line"/>
			<point x="301" y="-115" type="line"/>
			<point x="301" y="313" type="line"/>
			<point x="242" y="313" type="line"/>
		</contour>
		<contour>
			<point x="252" y="313" type="line"/>
			<point x="311" y="313" type="line"/>
			<point x="311" y="731" type="line"/>
			<point x="252" y="731" type="line"/>
		</contour>
	</outline>
</glyph>
<glyph name="ampersand" format="2">
	<unicode hex="0026"/>
	<advance width="708"/>
	<outline>
		<contour>
			<point x="220" y="-16" type="curve" smooth="yes"/>
			<point x="342" y="-16"/>
			<point x="398" y="38"/>
			<point x="428" y="84" type="curve"/>
			<point x="429" y="85" type="line"/>
			<point x="402" y="107" type="line"/>
			<point x="377" y="83"/>
			<point x="347" y="70"/>
			<point x="303" y="70" type="curve" smooth="yes"/>
			<point x="235" y="70"/>
			<point x="175" y="114"/>
			<point x="175" y="202" type="curve" smooth="yes"/>
			<point x="175" y="255"/>
			<point x="191" y="295"/>
			<point x="223" y="331" type="curve"/>
			<point x="213" y="350" type="line"/>
			<point x="212" y="347" type="line"/>
			<point x="71" y="298"/>
			<point x="21" y="237"/>
			<point x="21" y="152" type="curve" smooth="yes"/>
			<point x="21" y="65"/>
			<point x="85" y="-16"/>
		</contour>
		<contour>
			<point x="493" y="137" type="line"/>
			<point x="563" y="227"/>
			<point x="593" y="286"/>
			<point x="627" y="395" type="curve"/>
			<point x="550" y="395" type="line"/>
			<point x="534" y="299"/>
			<point x="518" y="248"/>
			<point x="465" y="164" type="curve"/>
			<point x="454" y="164" type="line"/>
		</contour>
		<contour>
			<point x="566" y="369" type="line"/>
			<point x="588" y="369" type="line"/>
			<point x="690" y="385" type="line"/>
			<point x="690" y="425" type="line"/>
			<point x="468" y="425" type="line"/>
			<point x="468" y="385" type="line"/>
		</contour>
		<contour>
			<point x="574" y="-16" type="curve" smooth="yes"/>
			<point x="604" y="-16"/>
			<point x="631" y="-12"/>
			<point x="682" y="0" type="curve"/>
			<point x="689" y="64" type="line"/>
			<point x="536" y="98" type="line"/>
			<point x="627" y="60" type="line"/>
			<point x="550" y="145"/>
			<point x="503" y="195"/>
			<point x="408" y="301" type="curve" smooth="yes"/>
			<point x="312" y="408"/>
			<point x="291" y="435"/>
			<point x="277" y="457" type="curve" smooth="yes"/>
			<point x="254" y="495"/>
			<point x="246" y="525"/>
			<point x="246" y="551" type="curve" smooth="yes"/>
			<point x="246" y="596"/>
			<point x="268" y="626"/>
			<point x="303" y="626" type="curve" smooth="yes"/>
			<point x="341" y="626"/>
			<point x="360" y="597"/>
			<point x="360" y="552" type="curve" smooth="yes"/>
			<point x="360" y="514"/>
			<point x="350" y="458"/>
			<point x="304" y="397" type="curve"/>
			<point x="325" y="378" type="line"/>
			<point x="326" y="377" type="line"/>
			<point x="434" y="418"/>
			<point x="483" y="464"/>
			<point x="483" y="535" type="curve" smooth="yes"/>
			<point x="483" y="612"/>
			<point x="419" y="665"/>
			<point x="305" y="665" type="curve" smooth="yes"/>
			<point x="186" y="665"/>
			<point x="110" y="601"/>
			<point x="110" y="497" type="curve" smooth="yes"/>
			<point x="110" y="449"/>
			<point x="123" y="399"/>
			<point x="166" y="341" type="curve" smooth="yes"/>
			<point x="183" y="318"/>
			<point x="214" y="279"/>
			<point x="286" y="188" type="curve" smooth="yes"/>
			<point x="321" y="143"/>
			<point x="366" y="82"/>
			<point x="418" y="39" type="curve" smooth="yes"/>
			<point x="468" y="-3"/>
			<point x="514" y="-16"/>
		</contour>
	</outline>
</glyph>
<glyph name="quotesingle" format="2">
	<unicode hex="0027"/>
	<advance width="244"/>
	<outline>
		<contour>
			<point x="121" y="725" type="curve" smooth="yes"/>
			<point x="70" y="725"/>
			<point x="39" y="696"/>
			<point x="39" y="640" type="curve" smooth="yes"/>
			<point x="39" y="595"/>
			<point x="59" y="529"/>
			<point x="65" y="505" type="curve" smooth="yes"/>
			<point x="96" y="389" type="line"/>
			<point x="147" y="389" type="line"/>
			<point x="178" y="505" type="line" smooth="yes"/>
			<point x="185" y="530"/>
			<point x="205" y="595"/>
			<point x="205" y="640" type="curve" smooth="yes"/>
			<point x="205" y="696"/>
			<point x="172" y="725"/>
		</contour>
	</outline>
</glyph>
<glyph name="asterisk" format="2">
	<unicode hex="002A"/>
	<advance width="427"/>
	<outline>
		<contour>
			<point x="206" y="522" type="line"/>
			<point x="221" y="522" type="line"/>
			<point x="245" y="579" type="line" smooth="yes"/>
			<point x="261" y="618"/>
			<point x="270" y="647"/>
			<point x="270" y="671" type="curve" smooth="yes"/>
			<point x="270" y="703"/>
			<point x="252" y="731"/>
			<point x="213" y="731" type="curve" smooth="yes"/>
			<point x="175" y="731"/>
			<point x="157" y="703"/>
			<point x="157" y="671" type="curve" smooth="yes"/>
			<point x="157" y="651"/>
			<point x="165" y="620"/>
			<point x="182" y="579" type="curve" smooth="yes"/>
		</contour>
		<contour>
			<point x="211" y="515" type="line"/>
			<point x="216" y="530" type="line"/>
			<point x="169" y="570" type="line" smooth="yes"/>
			<point x="137" y="598"/>
			<point x="112" y="615"/>
			<point x="90" y="622" type="curve" smooth="yes"/>
			<point x="59" y="632"/>
			<point x="26" y="624"/>
			<point x="14" y="587" type="curve" smooth="yes"/>
			<point x="3" y="550"/>
			<point x="25" y="525"/>
			<point x="55" y="515" type="curve" smooth="yes"/>
			<point x="74" y="509"/>
			<point x="106" y="506"/>
			<point x="149" y="510" type="curve" smooth="yes"/>
		</contour>
		<contour>
			<point x="219" y="518" type="line"/>
			<point x="208" y="526" type="line"/>
			<point x="154" y="495" type="line" smooth="yes"/>
			<point x="119" y="473"/>
			<point x="94" y="455"/>
			<point x="80" y="435" type="curve" smooth="yes"/>
			<point x="61" y="409"/>
			<point x="59" y="376"/>
			<point x="90" y="353" type="curve" smooth="yes"/>
			<point x="122" y="331"/>
			<point x="153" y="343"/>
			<point x="171" y="369" type="curve" smooth="yes"/>
			<point x="183" y="386"/>
			<point x="195" y="415"/>
			<point x="205" y="458" type="curve" smooth="yes"/>
		</contour>
		<contour>
			<point x="219" y="526" type="line"/>
			<point x="208" y="518" type="line"/>
			<point x="221" y="458" type="line" smooth="yes"/>
			<point x="231" y="417"/>
			<point x="241" y="388"/>
			<point x="255" y="369" type="curve" smooth="yes"/>
			<point x="273" y="343"/>
			<point x="304" y="330"/>
			<point x="336" y="353" type="curve" smooth="yes"/>
			<point x="367" y="376"/>
			<point x="365" y="409"/>
			<point x="346" y="435" type="curve" smooth="yes"/>
			<point x="334" y="451"/>
			<point x="309" y="472"/>
			<point x="272" y="495" type="curve" smooth="yes"/>
		</contour>
		<contour>
			<point x="211" y="530" type="line"/>
			<point x="216" y="515" type="line"/>
			<point x="277" y="510" type="line" smooth="yes"/>
			<point x="319" y="506"/>
			<point x="349" y="507"/>
			<point x="372" y="514" type="curve" smooth="yes"/>
			<point x="403" y="524"/>
			<point x="424" y="550"/>
			<point x="412" y="587" type="curve" smooth="yes"/>
			<point x="400" y="623"/>
			<point x="368" y="631"/>
			<point x="337" y="621" type="curve" smooth="yes"/>
			<point x="318" y="616"/>
			<point x="291" y="598"/>
			<point x="258" y="570" type="curve" smooth="yes"/>
		</contour>
	</outline>
</glyph>
<glyph name="plus" format="2">
	<unicode hex="002B"/>
	<advance width="539"/>
	<outline>
		<contour>
			<point x="225" y="72" type="line"/>
			<point x="313" y="72" type="line"/>
			<point x="313" y="562" type="line"/>
			<point x="225" y="562" type="line"/>
		</contour>
		<contour>
			<point x="507" y="278" type="line"/>
			<point x="507" y="362" type="line"/>
			<point x="32" y="362" type="line"/>
			<point x="32" y="278" type="line"/>
		</contour>
	</outline>
</glyph>
<glyph name="comma" format="2">
	<unicode hex="002C"/>
	<advance width="289"/>
	<outline>
		<contour>
			<point x="67" y="-163" type="line"/>
			<point x="155" y="-137"/>
			<point x="238" y="-71"/>
			<point x="238" y="59" type="curve" smooth="yes"/>
			<point x="238" y="91"/>
			<point x="235" y="110"/>
			<point x="222" y="140" type="curve"/>
			<point x="198" y="161"/>
			<point x="177" y="168"/>
			<point x="147" y="168" type="curve" smooth="yes"/>
			<point x="89" y="168"/>
			<point x="52" y="127"/>
			<point x="52" y="79" type="curve" smooth="yes"/>
			<point x="52" y="44"/>
			<point x="70" y="13"/>
			<point x="114" y="-10" type="curve" smooth="yes"/>
			<point x="185" y="-44" type="line"/>
			<point x="164" y="-8" type="line"/>
			<point x="144" y="-64"/>
			<point x="110" y="-90"/>
			<point x="48" y="-118" type="curve"/>
		</contour>
	</outline>
</glyph>
<glyph name="period" format="2">
	<unicode hex="002E"/>
	<advance width="289"/>
	<outline>
		<contour>
			<point x="145" y="-15" type="curve" smooth="yes"/>
			<point x="197" y="-15"/>
			<point x="238" y="27"/>
			<point x="238" y="77" type="curve" smooth="yes"/>
			<point x="238" y="129"/>
			<point x="197" y="172"/>
			<point x="145" y="172" type="curve" smooth="yes"/>
			<point x="92" y="172"/>
			<point x="51" y="129"/>
			<point x="51" y="77" type="curve" smooth="yes"/>
			<point x="51" y="27"/>
			<point x="92" y="-15"/>
		</contour>
	</outline>
</glyph>
<glyph name="slash" format="2">
	<unicode hex="002F"/>
	<advance width="392"/>
	<outline>
		<contour>
			<point x="11" y="-160" type="line"/>
			<point x="114" y="-160" type="line"/>
			<point x="381" y="709" type="line"/>
			<point x="278" y="709" type="line"/>
		</contour>
	</outline>
</glyph>
<glyph name="zero" format="2">
	<unicode hex="0030"/>
	<advance width="550"/>
	<outline>
		<contour>
			<point x="274" y="-16" type="curve" smooth="yes"/>
			<point x="406" y="-16"/>
			<point x="520" y="88"/>
			<point x="520" y="312" type="curve" smooth="yes"/>
			<point x="520" y="537"/>
			<point x="406" y="640"/>
			<point x="274" y="640" type="curve" smooth="yes"/>
			<point x="142" y="640"/>
			<point x="31" y="537"/>
			<point x="31" y="312" type="curve" smooth="yes"/>
			<point x="31" y="88"/>
			<point x="142" y="-16"/>
		</contour>
		<contour>
			<point x="274" y="31" type="curve" smooth="yes"/>
			<point x="232" y="31"/>
			<point x="205" y="85"/>
			<point x="205" y="312" type="curve" smooth="yes"/>
			<point x="205" y="540"/>
			<point x="232" y="593"/>
			<point x="274" y="593" type="curve" smooth="yes"/>
			<point x="317" y="593"/>
			<point x="346" y="539"/>
			<point x="346" y="312" type="curve" smooth="yes"/>
			<point x="346" y="86"/>
			<point x="317" y="31"/>
		</contour>
	</outline>
</glyph>
<glyph name="one" format="2">
	<unicode hex="0031"/>
	<advance width="549"/>
	<outline>
		<contour>
			<point x="74" y="0" type="line"/>
			<point x="478" y="0" type="line"/>
			<point x="478" y="43" type="line"/>
			<point x="358" y="72" type="line"/>
			<point x="202" y="72" type="line"/>
			<point x="74" y="43" type="line"/>
		</contour>
		<contour>
			<point x="183" y="0" type="curve"/>
			<point x="374" y="0" type="line"/>
			<point x="371" y="64"/>
			<point x="370" y="140"/>
			<point x="370" y="207" type="curve" smooth="yes"/>
			<point x="370" y="465" type="line"/>
			<point x="374" y="625" type="line"/>
			<point x="360" y="636" type="line"/>
			<point x="102" y="574" type="line"/>
			<point x="102" y="521" type="line"/>
			<point x="187" y="529" type="line"/>
			<point x="187" y="207" type="line" smooth="yes"/>
			<point x="187" y="140"/>
			<point x="187" y="64"/>
		</contour>
	</outline>
</glyph>
<glyph name="less" format="2">
	<unicode hex="003C"/>
	<advance width="539"/>
	<outline>
		<contour>
			<point x="34" y="287" type="line"/>
			<point x="458" y="68" type="line"/>
			<point x="498" y="152" type="line"/>
			<point x="84" y="354" type="line"/>
			<point x="84" y="289" type="line"/>
			<point x="498" y="490" type="line"/>
			<point x="458" y="573" type="line"/>
			<point x="34" y="356" type="line"/>
		</contour>
	</outline>
</glyph>
<glyph name="question" format="2">
	<unicode hex="003F"/>
	<advance width="437"/>
	<outline>
		<contour>
			<point x="168" y="-16" type="curve" smooth="yes"/>
			<point x="224" y="-16"/>
			<point x="266" y="27"/>
			<point x="266" y="81" type="curve" smooth="yes"/>
			<point x="266" y="135"/>
			<point x="224" y="179"/>
			<point x="168" y="179" type="curve" smooth="yes"/>
			<point x="114" y="179"/>
			<point x="69" y="135"/>
			<point x="69" y="81" type="curve" smooth="yes"/>
			<point x="69" y="27"/>
			<point x="114" y="-16"/>
		</contour>
		<contour>
			<point x="394" y="435" type="curve" smooth="yes"/>
			<point x="394" y="529"/>
			<point x="271" y="641"/>
			<point x="139" y="671" type="curve"/>
			<point x="88" y="655"/>
			<point x="63" y="630"/>
			<point x="63" y="592" type="curve" smooth="yes"/>
			<point x="63" y="553"/>
			<point x="84" y="527"/>
			<point x="159" y="516" type="curve" smooth="yes"/>
			<point x="334" y="492" type="line"/>
			<point x="283" y="540" type="line"/>
			<point x="306" y="505"/>
			<point x="312" y="490"/>
			<point x="312" y="474" type="curve" smooth="yes"/>
			<point x="312" y="453"/>
			<point x="296" y="446"/>
			<point x="262" y="438" type="curve" smooth="yes"/>
			<point x="182" y="421" type="line" smooth="yes"/>
			<point x="128" y="410"/>
			<point x="103" y="389"/>
			<point x="103" y="350" type="curve" smooth="yes"/>
			<point x="103" y="325"/>
			<point x="109" y="298"/>
			<point x="122" y="264" type="curve" smooth="yes"/>
			<point x="134" y="230" type="line"/>
			<point x="191" y="230" type="line"/>
			<point x="192" y="251" type="line" smooth="yes"/>
			<point x="195" y="276"/>
			<point x="202" y="282"/>
			<point x="235" y="291" type="curve" smooth="yes"/>
			<point x="282" y="304" type="line" smooth="yes"/>
			<point x="359" y="326"/>
			<point x="394" y="361"/>
		</contour>
	</outline>
</glyph>
<glyph name="at" format="2">
	<unicode hex="0040"/>
	<advance width="908"/>
	<outline>
		<contour>
			<point x="350" y="37" type="curve" smooth="yes"/>
			<point x="416" y="37"/>
			<point x="474" y="76"/>
			<point x="524" y="183" type="curve"/>
			<point x="524" y="187" type="line"/>
			<point x="512" y="209" type="line"/>
			<point x="480" y="149"/>
			<point x="457" y="131"/>
			<point x="432" y="131" type="curve" smooth="yes"/>
			<point x="402" y="131"/>
			<point x="380" y="157"/>
			<point x="380" y="213" type="curve" smooth="yes"/>
			<point x="380" y="320"/>
			<point x="439" y="414"/>
			<point x="489" y="414" type="curve" smooth="yes"/>
			<point x="514" y="414"/>
			<point x="531" y="401"/>
			<point x="554" y="356" type="curve"/>
			<point x="614" y="409" type="line"/>
			<point x="591" y="455"/>
			<point x="551" y="487"/>
			<point x="488" y="487" type="curve" smooth="yes"/>
			<point x="357" y="487"/>
			<point x="233" y="324"/>
			<point x="233" y="179" type="curve" smooth="yes"/>
			<point x="233" y="82"/>
			<point x="287" y="37"/>
		</contour>
		<contour>
			<point x="621" y="37" type="curve" smooth="yes"/>
			<point x="746" y="37"/>
			<point x="858" y="161"/>
			<point x="858" y="341" type="curve" smooth="yes"/>
			<point x="858" y="509"/>
			<point x="740" y="652"/>
			<point x="512" y="652" type="curve" smooth="yes"/>
			<point x="214" y="652"/>
			<point x="52" y="414"/>
			<point x="52" y="192" type="curve" smooth="yes"/>
			<point x="52" y="1"/>
			<point x="170" y="-152"/>
			<point x="396" y="-152" type="curve" smooth="yes"/>
			<point x="472" y="-152"/>
			<point x="537" y="-133"/>
			<point x="596" y="-107" type="curve"/>
			<point x="582" y="-65" type="line"/>
			<point x="524" y="-83"/>
			<point x="474" y="-92"/>
			<point x="417" y="-92" type="curve" smooth="yes"/>
			<point x="240" y="-92"/>
			<point x="130" y="17"/>
			<point x="130" y="205" type="curve" smooth="yes"/>
			<point x="130" y="404"/>
			<point x="264" y="605"/>
			<point x="505" y="605" type="curve" smooth="yes"/>
			<point x="689" y="605"/>
			<point x="787" y="506"/>
			<point x="787" y="339" type="curve" smooth="yes"/>
			<point x="787" y="195"/>
			<point x="710" y="104"/>
			<point x="664" y="104" type="curve" smooth="yes"/>
			<point x="628" y="104"/>
			<point x="615" y="123"/>
			<point x="630" y="205" type="curve" smooth="yes"/>
			<point x="676" y="463" type="line"/>
			<point x="652" y="479" type="line"/>
			<point x="527" y="411" type="line"/>
			<point x="480" y="149" type="line"/>
			<point x="492" y="145" type="line"/>
			<point x="501" y="81"/>
			<point x="548" y="37"/>
		</contour>
	</outline>
</glyph>
<glyph name="A" format="2">
	<unicode hex="0041"/>
	<advance width="663"/>
	<outline>
		<contour>
			<point x="11" y="0" type="line"/>
			<point x="206" y="0" type="line"/>
			<point x="206" y="48" type="line"/>
			<point x="121" y="62" type="line"/>
			<point x="104" y="62" type="line"/>
			<point x="11" y="48" type="line"/>
		</contour>
		<contour>
			<point x="64" y="0" type="line"/>
			<point x="119" y="0" type="line"/>
			<point x="274" y="497" type="line"/>
			<point x="279" y="511" type="line"/>
			<point x="261" y="511" type="line"/>
			<point x="417" y="0" type="line"/>
			<point x="612" y="0" type="line"/>
			<point x="394" y="652" type="line"/>
			<point x="282" y="652" type="line"/>
		</contour>
		<contour>
			<point x="160" y="188" type="line"/>
			<point x="453" y="188" type="line"/>
			<point x="453" y="241" type="line"/>
			<point x="160" y="241" type="line"/>
		</contour>
		<contour>
			<point x="332" y="0" type="line"/>
			<point x="649" y="0" type="line"/>
			<point x="649" y="46" type="line"/>
			<point x="533" y="62" type="line"/>
			<point x="441" y="62" type="line"/>
			<point x="332" y="46" type="line"/>
		</contour>
	</outline>
	<anchor name="aboveUC" x="336" y="672"/>
	<anchor name="belowLC" x="275" y="-20"/>
	<anchor name="ogonek" x="514" y="0"/>
</glyph>
<glyph name="B" format="2">
	<unicode hex="0042"/>
	<advance width="637"/>
	<outline>
		<contour>
			<point x="27" y="0" type="line"/>
			<point x="182" y="0" type="line"/>
			<point x="182" y="64" type="line"/>
			<point x="165" y="64" type="line"/>
			<point x="27" y="49" type="line"/>
		</contour>
		<contour>
			<point x="91" y="0" type="curve"/>
			<point x="285" y="0" type="line"/>
			<point x="282" y="97"/>
			<point x="282" y="209"/>
			<point x="282" y="314" type="curve" smooth="yes"/>
			<point x="282" y="340" type="line" smooth="yes"/>
			<point x="282" y="446"/>
			<point x="282" y="556"/>
			<point x="285" y="652" type="curve"/>
			<point x="92" y="652" type="line"/>
			<point x="95" y="555"/>
			<point x="95" y="444"/>
			<point x="95" y="340" type="curve" smooth="yes"/>
			<point x="95" y="313" type="line" smooth="yes"/>
			<point x="95" y="207"/>
			<point x="95" y="96"/>
		</contour>
		<contour>
			<point x="188" y="0" type="line"/>
			<point x="303" y="0" type="line" smooth="yes"/>
			<point x="539" y="0"/>
			<point x="622" y="86"/>
			<point x="622" y="184" type="curve" smooth="yes"/>
			<point x="622" y="287"/>
			<point x="537" y="344"/>
			<point x="357" y="353" type="curve"/>
			<point x="357" y="344" type="line"/>
			<point x="530" y="363"/>
			<point x="583" y="423"/>
			<point x="583" y="501" type="curve" smooth="yes"/>
			<point x="583" y="585"/>
			<point x="528" y="652"/>
			<point x="340" y="652" type="curve" smooth="yes"/>
			<point x="188" y="652" type="line"/>
			<point x="188" y="600" type="line"/>
			<point x="302" y="600" type="line" smooth="yes"/>
			<point x="370" y="600"/>
			<point x="403" y="560"/>
			<point x="403" y="489" type="curve" smooth="yes"/>
			<point x="403" y="410"/>
			<point x="366" y="365"/>
			<point x="297" y="365" type="curve" smooth="yes"/>
			<point x="188" y="365" type="line"/>
			<point x="188" y="318" type="line"/>
			<point x="303" y="318" type="line" smooth="yes"/>
			<point x="388" y="318"/>
			<point x="429" y="276"/>
			<point x="429" y="184" type="curve" smooth="yes"/>
			<point x="429" y="99"/>
			<point x="380" y="52"/>
			<point x="302" y="52" type="curve" smooth="yes"/>
			<point x="188" y="52" type="line"/>
		</contour>
		<contour>
			<point x="27" y="603" type="line"/>
			<point x="165" y="588" type="line"/>
			<point x="182" y="588" type="line"/>
			<point x="182" y="652" type="line"/>
			<point x="27" y="652" type="line"/>
		</contour>
	</outline>
	<anchor name="aboveUC" x="314" y="672"/>
	<anchor name="belowLC" x="326" y="-20"/>
</glyph>
<glyph name="C" format="2">
	<unicode hex="0043"/>
	<advance width="602"/>
	<outline>
		<contour>
			<point x="370" y="-19" type="curve" smooth="yes"/>
			<point x="452" y="-19"/>
			<point x="520" y="2"/>
			<point x="567" y="28" type="curve"/>
			<point x="573" y="191" type="line"/>
			<point x="509" y="191" type="line"/>
			<point x="456" y="23" type="line"/>
			<point x="524" y="40" type="line"/>
			<point x="525" y="81" type="line"/>
			<point x="484" y="51"/>
			<point x="441" y="32"/>
			<point x="397" y="32" type="curve" smooth="yes"/>
			<point x="308" y="32"/>
			<point x="226" y="111"/>
			<point x="226" y="325" type="curve" smooth="yes"/>
			<point x="226" y="539"/>
			<point x="309" y="621"/>
			<point x="400" y="621" type="curve" smooth="yes"/>
			<point x="440" y="621"/>
			<point x="478" y="605"/>
			<point x="520" y="569" type="curve"/>
			<point x="519" y="612" type="line"/>
			<point x="451" y="631" type="line"/>
			<point x="504" y="464" type="line"/>
			<point x="569" y="464" type="line"/>
			<point x="563" y="624" type="line"/>
			<point x="510" y="653"/>
			<point x="454" y="671"/>
			<point x="377" y="671" type="curve" smooth="yes"/>
			<point x="203" y="671"/>
			<point x="29" y="576"/>
			<point x="29" y="316" type="curve" smooth="yes"/>
			<point x="29" y="79"/>
			<point x="190" y="-19"/>
		</contour>
	</outline>
	<anchor name="aboveUC" x="377" y="672"/>
	<anchor name="baseLC" x="367" y="0"/>
	<anchor name="belowLC" x="372" y="-20"/>
</glyph>
<glyph name="D" format="2">
	<unicode hex="0044"/>
	<advance width="686"/>
	<outline>
		<contour>
			<point x="27" y="0" type="line"/>
			<point x="182" y="0" type="line"/>
			<point x="182" y="64" type="line"/>
			<point x="165" y="64" type="line"/>
			<point x="27" y="49" type="line"/>
		</contour>
		<contour>
			<point x="91" y="0" type="curve"/>
			<point x="288" y="0" type="line"/>
			<point x="285" y="96"/>
			<point x="285" y="206"/>
			<point x="285" y="310" type="curve" smooth="yes"/>
			<point x="285" y="345" type="line" smooth="yes"/>
			<point x="285" y="448"/>
			<point x="285" y="557"/>
			<point x="288" y="652" type="curve"/>
			<point x="92" y="652" type="line"/>
			<point x="95" y="556"/>
			<point x="95" y="447"/>
			<point x="95" y="345" type="curve" smooth="yes"/>
			<point x="95" y="309" type="line" smooth="yes"/>
			<point x="95" y="205"/>
			<point x="95" y="95"/>
		</contour>
		<contour>
			<point x="195" y="0" type="line"/>
			<point x="303" y="0" type="line" smooth="yes"/>
			<point x="524" y="0"/>
			<point x="657" y="124"/>
			<point x="657" y="330" type="curve" smooth="yes"/>
			<point x="657" y="526"/>
			<point x="535" y="652"/>
			<point x="314" y="652" type="curve" smooth="yes"/>
			<point x="195" y="652" type="line"/>
			<point x="195" y="600" type="line"/>
			<point x="301" y="600" type="line" smooth="yes"/>
			<point x="400" y="600"/>
			<point x="464" y="502"/>
			<point x="464" y="327" type="curve" smooth="yes"/>
			<point x="464" y="153"/>
			<point x="400" y="52"/>
			<point x="302" y="52" type="curve" smooth="yes"/>
			<point x="195" y="52" type="line"/>
		</contour>
		<contour>
			<point x="27" y="603" type="line"/>
			<point x="165" y="588" type="line"/>
			<point x="182" y="588" type="line"/>
			<point x="182" y="652" type="line"/>
			<point x="27" y="652" type="line"/>
		</contour>
	</outline>
	<anchor name="aboveUC" x="316" y="672"/>
	<anchor name="belowLC" x="317" y="-20"/>
</glyph>
<glyph name="E" format="2">
	<unicode hex="0045"/>
	<advance width="572"/>
	<outline>
		<contour>
			<point x="27" y="0" type="line"/>
			<point x="203" y="0" type="line"/>
			<point x="203" y="64" type="line"/>
			<point x="164" y="64" type="line"/>
			<point x="27" y="48" type="line"/>
		</contour>
		<contour>
			<point x="91" y="0" type="curve"/>
			<point x="288" y="0" type="line"/>
			<point x="284" y="96"/>
			<point x="284" y="206"/>
			<point x="284" y="310" type="curve" smooth="yes"/>
			<point x="284" y="345" type="line" smooth="yes"/>
			<point x="284" y="448"/>
			<point x="284" y="558"/>
			<point x="288" y="652" type="curve"/>
			<point x="91" y="652" type="line"/>
			<point x="95" y="556"/>
			<point x="95" y="447"/>
			<point x="95" y="345" type="curve" smooth="yes"/>
			<point x="95" y="309" type="line" smooth="yes"/>
			<point x="95" y="205"/>
			<point x="94" y="94"/>
		</contour>
		<contour>
			<point x="191" y="0" type="line"/>
			<point x="542" y="0" type="line"/>
			<point x="551" y="175" type="line"/>
			<point x="478" y="175" type="line"/>
			<point x="436" y="23" type="line"/>
			<point x="471" y="49" type="line"/>
			<point x="191" y="49" type="line"/>
		</contour>
		<contour>
			<point x="191" y="309" type="line"/>
			<point x="397" y="309" type="line"/>
			<point x="397" y="364" type="line"/>
			<point x="191" y="364" type="line"/>
		</contour>
		<contour>
			<point x="393" y="230" type="line"/>
			<point x="444" y="230" type="line"/>
			<point x="444" y="443" type="line"/>
			<point x="393" y="443" type="line"/>
			<point x="372" y="347" type="line"/>
			<point x="372" y="330" type="line"/>
		</contour>
		<contour>
			<point x="27" y="604" type="line"/>
			<point x="164" y="588" type="line"/>
			<point x="203" y="588" type="line"/>
			<point x="203" y="652" type="line"/>
			<point x="27" y="652" type="line"/>
		</contour>
		<contour>
			<point x="459" y="480" type="line"/>
			<point x="532" y="480" type="line"/>
			<point x="524" y="652" type="line"/>
			<point x="184" y="652" type="line"/>
			<point x="184" y="602" type="line"/>
			<point x="452" y="602" type="line"/>
			<point x="417" y="628" type="line"/>
		</contour>
	</outline>
	<anchor name="aboveUC" x="318" y="672"/>
	<anchor name="belowLC" x="311" y="-20"/>
	<anchor name="ogonek" x="435" y="0"/>
</glyph>
<glyph name="F" format="2">
	<unicode hex="0046"/>
	<advance width="558"/>
	<outline>
		<contour>
			<point x="27" y="0" type="line"/>
			<point x="370" y="0" type="line"/>
			<point x="370" y="48" type="line"/>
			<point x="229" y="64" type="line"/>
			<point x="164" y="64" type="line"/>
			<point x="27" y="48" type="line"/>
		</contour>
		<contour>
			<point x="91" y="0" type="curve"/>
			<point x="288" y="0" type="line"/>
			<point x="284" y="96"/>
			<point x="284" y="206"/>
			<point x="284" y="310" type="curve" smooth="yes"/>
			<point x="284" y="345" type="line" smooth="yes"/>
			<point x="284" y="448"/>
			<point x="284" y="558"/>
			<point x="288" y="652" type="curve"/>
			<point x="91" y="652" type="line"/>
			<point x="95" y="556"/>
			<point x="95" y="447"/>
			<point x="95" y="345" type="curve" smooth="yes"/>
			<point x="95" y="309" type="line" smooth="yes"/>
			<point x="95" y="205"/>
			<point x="94" y="94"/>
		</contour>
		<contour>
			<point x="191" y="309" type="line"/>
			<point x="397" y="309" type="line"/>
			<point x="397" y="364" type="line"/>
			<point x="191" y="364" type="line"/>
		</contour>
		<contour>
			<point x="393" y="224" type="line"/>
			<point x="444" y="224" type="line"/>
			<point x="444" y="443" type="line"/>
			<point x="393" y="443" type="line"/>
			<point x="371" y="347" type="line"/>
			<point x="371" y="323" type="line"/>
		</contour>
		<contour>
			<point x="27" y="604" type="line"/>
			<point x="164" y="588" type="line"/>
			<point x="203" y="588" type="line"/>
			<point x="203" y="652" type="line"/>
			<point x="27" y="652" type="line"/>
		</contour>
		<contour>
			<point x="464" y="480" type="line"/>
			<point x="537" y="480" type="line"/>
			<point x="529" y="652" type="line"/>
			<point x="184" y="652" type="line"/>
			<point x="184" y="602" type="line"/>
			<point x="458" y="602" type="line"/>
			<point x="422" y="628" type="line"/>
		</contour>
	</outline>
	<anchor name="aboveUC" x="311" y="672"/>
	<anchor name="belowLC" x="198" y="-20"/>
</glyph>
<glyph name="G" format="2">
	<unicode hex="0047"/>
	<advance width="654"/>
	<outline>
		<contour>
			<point x="368" y="-19" type="curve" smooth="yes"/>
			<point x="452" y="-19"/>
			<point x="523" y="-3"/>
			<point x="588" y="36" type="curve"/>
			<point x="588" y="78" type="line" smooth="yes"/>
			<point x="588" y="162"/>
			<point x="589" y="244"/>
			<point x="593" y="327" type="curve"/>
			<point x="408" y="327" type="line"/>
			<point x="411" y="243"/>
			<point x="412" y="165"/>
			<point x="412" y="82" type="curve" smooth="yes"/>
			<point x="412" y="0" type="line"/>
			<point x="481" y="56" type="line"/>
			<point x="449" y="40"/>
			<point x="428" y="31"/>
			<point x="396" y="31" type="curve" smooth="yes"/>
			<point x="308" y="31"/>
			<point x="226" y="117"/>
			<point x="226" y="327" type="curve" smooth="yes"/>
			<point x="226" y="537"/>
			<point x="310" y="621"/>
			<point x="404" y="621" type="curve" smooth="yes"/>
			<point x="440" y="621"/>
			<point x="478" y="609"/>
			<point x="522" y="576" type="curve"/>
			<point x="521" y="621" type="line"/>
			<point x="452" y="634" type="line"/>
			<point x="506" y="467" type="line"/>
			<point x="572" y="467" type="line"/>
			<point x="566" y="627" type="line"/>
			<point x="512" y="656"/>
			<point x="442" y="671"/>
			<point x="382" y="671" type="curve" smooth="yes"/>
			<point x="170" y="671"/>
			<point x="29" y="552"/>
			<point x="29" y="320" type="curve" smooth="yes"/>
			<point x="29" y="88"/>
			<point x="175" y="-19"/>
		</contour>
		<contour>
			<point x="336" y="278" type="line"/>
			<point x="450" y="261" type="line"/>
			<point x="521" y="261" type="line"/>
			<point x="635" y="278" type="line"/>
			<point x="635" y="327" type="line"/>
			<point x="336" y="327" type="line"/>
		</contour>
	</outline>
	<anchor name="aboveUC" x="376" y="672"/>
	<anchor name="belowLC" x="383" y="-20"/>
</glyph>
<glyph name="I" format="2">
	<unicode hex="0049"/>
	<advance width="380"/>
	<outline>
		<contour>
			<point x="27" y="0" type="line"/>
			<point x="353" y="0" type="line"/>
			<point x="353" y="48" type="line"/>
			<point x="213" y="64" type="line"/>
			<point x="164" y="64" type="line"/>
			<point x="27" y="48" type="line"/>
		</contour>
		<contour>
			<point x="91" y="0" type="curve"/>
			<point x="288" y="0" type="line"/>
			<point x="284" y="96"/>
			<point x="284" y="206"/>
			<point x="284" y="310" type="curve" smooth="yes"/>
			<point x="284" y="345" type="line" smooth="yes"/>
			<point x="284" y="448"/>
			<point x="285" y="558"/>
			<point x="288" y="652" type="curve"/>
			<point x="91" y="652" type="line"/>
			<point x="94" y="556"/>
			<point x="95" y="447"/>
			<point x="95" y="345" type="curve" smooth="yes"/>
			<point x="95" y="309" type="line" smooth="yes"/>
			<point x="95" y="205"/>
			<point x="94" y="94"/>
		</contour>
		<contour>
			<point x="27" y="604" type="line"/>
			<point x="164" y="588" type="line"/>
			<point x="213" y="588" type="line"/>
			<point x="353" y="604" type="line"/>
			<point x="353" y="652" type="line"/>
			<point x="27" y="652" type="line"/>
		</contour>
	</outline>
	<anchor name="aboveUC" x="190" y="672"/>
	<anchor name="belowLC" x="190" y="-20"/>
	<anchor name="ogonek" x="240" y="0"/>
</glyph>
<glyph name="J" format="2">
	<unicode hex="004A"/>
	<advance width="388"/>
	<outline>
		<contour>
			<point x="56" y="-152" type="curve" smooth="yes"/>
			<point x="112" y="-152"/>
			<point x="173" y="-132"/>
			<point x="227" y="-66" type="curve" smooth="yes"/>
			<point x="276" y="-6"/>
			<point x="295" y="56"/>
			<point x="295" y="189" type="curve" smooth="yes"/>
			<point x="295" y="355" type="line" smooth="yes"/>
			<point x="295" y="455"/>
			<point x="295" y="555"/>
			<point x="298" y="652" type="curve"/>
			<point x="108" y="652" type="line"/>
			<point x="112" y="377"/>
			<point x="114" y="268"/>
			<point x="114" y="183" type="curve" smooth="yes"/>
			<point x="114" y="88"/>
			<point x="121" y="-8"/>
			<point x="124" y="-103" type="curve"/>
			<point x="124" y="-111" type="line"/>
			<point x="136" y="-111" type="line"/>
			<point x="136" y="-94" type="line"/>
			<point x="87" y="-56" type="line" smooth="yes"/>
			<point x="48" y="-26"/>
			<point x="34" y="-18"/>
			<point x="1" y="-18" type="curve" smooth="yes"/>
			<point x="-34" y="-18"/>
			<point x="-60" y="-34"/>
			<point x="-70" y="-79" type="curve"/>
			<point x="-63" y="-131"/>
			<point x="-20" y="-152"/>
		</contour>
		<contour>
			<point x="27" y="604" type="line"/>
			<point x="165" y="588" type="line"/>
			<point x="223" y="588" type="line"/>
			<point x="364" y="604" type="line"/>
			<point x="364" y="652" type="line"/>
			<point x="27" y="652" type="line"/>
		</contour>
	</outline>
	<anchor name="aboveUC" x="196" y="672"/>
	<anchor name="belowLC" x="113" y="-162"/>
</glyph>
<glyph name="K" format="2">
	<unicode hex="004B"/>
	<advance width="695"/>
	<outline>
		<contour>
			<point x="91" y="0" type="curve"/>
			<point x="282" y="0" type="line"/>
			<point x="279" y="96"/>
			<point x="278" y="206"/>
			<point x="278" y="310" type="curve" smooth="yes"/>
			<point x="278" y="345" type="line" smooth="yes"/>
			<point x="278" y="448"/>
			<point x="279" y="557"/>
			<point x="282" y="652" type="curve"/>
			<point x="92" y="652" type="line"/>
			<point x="95" y="556"/>
			<point x="95" y="447"/>
			<point x="95" y="345" type="curve" smooth="yes"/>
			<point x="95" y="309" type="line" smooth="yes"/>
			<point x="95" y="205"/>
			<point x="95" y="95"/>
		</contour>
		<contour>
			<point x="27" y="0" type="line"/>
			<point x="335" y="0" type="line"/>
			<point x="335" y="49" type="line"/>
			<point x="213" y="64" type="line"/>
			<point x="165" y="64" type="line"/>
			<point x="27" y="49" type="line"/>
		</contour>
		<contour>
			<point x="27" y="603" type="line"/>
			<point x="165" y="588" type="line"/>
			<point x="213" y="588" type="line"/>
			<point x="347" y="603" type="line"/>
			<point x="347" y="652" type="line"/>
			<point x="27" y="652" type="line"/>
		</contour>
		<contour>
			<point x="392" y="0" type="line"/>
			<point x="690" y="0" type="line"/>
			<point x="690" y="49" type="line"/>
			<point x="564" y="64" type="line"/>
			<point x="519" y="64" type="line"/>
			<point x="392" y="49" type="line"/>
		</contour>
		<contour>
			<point x="427" y="603" type="line"/>
			<point x="513" y="588" type="line"/>
			<point x="538" y="588" type="line"/>
			<point x="650" y="603" type="line"/>
			<point x="650" y="652" type="line"/>
			<point x="427" y="652" type="line"/>
		</contour>
		<contour>
			<point x="188" y="140" type="line"/>
			<point x="613" y="652" type="line"/>
			<point x="543" y="652" type="line"/>
			<point x="236" y="263" type="line"/>
			<point x="195" y="212" type="line"/>
			<point x="186" y="212" type="line"/>
		</contour>
		<contour>
			<point x="455" y="0" type="line"/>
			<point x="664" y="0" type="line"/>
			<point x="425" y="465" type="line"/>
			<point x="307" y="316" type="line"/>
		</contour>
	</outline>
	<anchor name="aboveUC" x="367" y="672"/>
	<anchor name="belowLC" x="367" y="-20"/>
</glyph>
<glyph name="L" format="2">
	<unicode hex="004C"/>
	<advance width="554"/>
	<outline>
		<contour>
			<point x="27" y="0" type="line"/>
			<point x="203" y="0" type="line"/>
			<point x="203" y="64" type="line"/>
			<point x="164" y="64" type="line"/>
			<point x="27" y="48" type="line"/>
		</contour>
		<contour>
			<point x="91" y="0" type="curve"/>
			<point x="288" y="0" type="line"/>
			<point x="284" y="96"/>
			<point x="284" y="206"/>
			<point x="284" y="300" type="curve" smooth="yes"/>
			<point x="284" y="345" type="line" smooth="yes"/>
			<point x="284" y="448"/>
			<point x="284" y="558"/>
			<point x="288" y="652" type="curve"/>
			<point x="91" y="652" type="line"/>
			<point x="95" y="556"/>
			<point x="95" y="447"/>
			<point x="95" y="345" type="curve" smooth="yes"/>
			<point x="95" y="289" type="line" smooth="yes"/>
			<point x="95" y="205"/>
			<point x="94" y="94"/>
		</contour>
		<contour>
			<point x="191" y="0" type="line"/>
			<point x="532" y="0" type="line"/>
			<point x="542" y="202" type="line"/>
			<point x="474" y="202" type="line"/>
			<point x="426" y="25" type="line"/>
			<point x="461" y="50" type="line"/>
			<point x="191" y="50" type="line"/>
		</contour>
		<contour>
			<point x="27" y="604" type="line"/>
			<point x="164" y="588" type="line"/>
			<point x="220" y="588" type="line"/>
			<point x="360" y="604" type="line"/>
			<point x="360" y="652" type="line"/>
			<point x="27" y="652" type="line"/>
		</contour>
	</outline>
	<anchor name="aboveUC" x="193" y="672"/>
	<anchor name="belowLC" x="288" y="-20"/>
</glyph>
<glyph name="M" format="2">
	<unicode hex="004D"/>
	<advance width="866"/>
	<outline>
		<contour>
			<point x="14" y="0" type="line"/>
			<point x="240" y="0" type="line"/>
			<point x="240" y="48" type="line"/>
			<point x="150" y="62" type="line"/>
			<point x="119" y="62" type="line"/>
			<point x="14" y="48" type="line"/>
		</contour>
		<contour>
			<point x="30" y="604" type="line"/>
			<point x="151" y="588" type="line"/>
			<point x="164" y="588" type="line"/>
			<point x="163" y="652" type="line"/>
			<point x="30" y="652" type="line"/>
		</contour>
		<contour>
			<point x="103" y="0" type="line"/>
			<point x="161" y="0" type="line"/>
			<point x="161" y="303" type="line"/>
			<point x="156" y="645" type="line"/>
			<point x="103" y="645" type="line"/>
		</contour>
		<contour>
			<point x="334" y="0" type="line"/>
			<point x="416" y="0" type="line"/>
			<point x="603" y="565" type="line"/>
			<point x="614" y="598" type="line"/>
			<point x="628" y="598" type="line"/>
			<point x="628" y="652" type="line"/>
			<point x="573" y="652" type="line"/>
			<point x="432" y="224" type="line"/>
			<point x="427" y="207" type="line"/>
			<point x="453" y="207" type="line"/>
			<point x="301" y="652" type="line"/>
			<point x="120" y="652" type="line"/>
			<point x="120" y="587" type="line"/>
			<point x="129" y="587" type="line"/>
		</contour>
		<contour>
			<point x="514" y="0" type="line"/>
			<point x="840" y="0" type="line"/>
			<point x="840" y="48" type="line"/>
			<point x="703" y="64" type="line"/>
			<point x="637" y="64" type="line"/>
			<point x="514" y="48" type="line"/>
		</contour>
		<contour>
			<point x="578" y="0" type="curve"/>
			<point x="775" y="0" type="line"/>
			<point x="772" y="94"/>
			<point x="771" y="205"/>
			<point x="771" y="309" type="curve" smooth="yes"/>
			<point x="771" y="345" type="line" smooth="yes"/>
			<point x="771" y="447"/>
			<point x="772" y="556"/>
			<point x="775" y="652" type="curve"/>
			<point x="586" y="652" type="line"/>
			<point x="582" y="289" type="line" smooth="yes"/>
			<point x="582" y="206"/>
			<point x="582" y="96"/>
		</contour>
		<contour>
			<point x="664" y="588" type="line"/>
			<point x="703" y="588" type="line"/>
			<point x="836" y="604" type="line"/>
			<point x="836" y="652" type="line"/>
			<point x="664" y="652" type="line"/>
		</contour>
	</outline>
	<anchor name="aboveUC" x="435" y="672"/>
	<anchor name="belowLC" x="380" y="-20"/>
</glyph>
<glyph name="N" format="2">
	<unicode hex="004E"/>
	<advance width="693"/>
	<outline>
		<contour>
			<point x="23" y="0" type="line"/>
			<point x="266" y="0" type="line"/>
			<point x="266" y="48" type="line"/>
			<point x="150" y="62" type="line"/>
			<point x="119" y="62" type="line"/>
			<point x="23" y="48" type="line"/>
		</contour>
		<contour>
			<point x="103" y="0" type="line"/>
			<point x="161" y="0" type="line"/>
			<point x="161" y="326" type="line"/>
			<point x="161" y="627" type="line"/>
			<point x="103" y="627" type="line"/>
		</contour>
		<contour>
			<point x="426" y="604" type="line"/>
			<point x="549" y="590" type="line"/>
			<point x="578" y="590" type="line"/>
			<point x="669" y="604" type="line"/>
			<point x="669" y="652" type="line"/>
			<point x="426" y="652" type="line"/>
		</contour>
		<contour>
			<point x="496" y="0" type="line"/>
			<point x="591" y="0" type="line"/>
			<point x="591" y="652" type="line"/>
			<point x="533" y="652" type="line"/>
			<point x="533" y="368" type="line"/>
			<point x="533" y="239" type="line"/>
			<point x="553" y="243" type="line"/>
			<point x="274" y="652" type="line"/>
			<point x="30" y="652" type="line"/>
			<point x="30" y="603" type="line"/>
			<point x="90" y="597" type="line"/>
			<point x="147" y="511" type="line"/>
			<point x="151" y="511" type="line"/>
		</contour>
	</outline>
	<anchor name="aboveUC" x="349" y="672"/>
	<anchor name="belowLC" x="358" y="-20"/>
</glyph>
<glyph name="O" format="2">
	<unicode hex="004F"/>
	<advance width="684"/>
	<outline>
		<contour>
			<point x="342" y="-19" type="curve" smooth="yes"/>
			<point x="506" y="-19"/>
			<point x="655" y="91"/>
			<point x="655" y="326" type="curve" smooth="yes"/>
			<point x="655" y="561"/>
			<point x="505" y="671"/>
			<point x="342" y="671" type="curve" smooth="yes"/>
			<point x="179" y="671"/>
			<point x="29" y="561"/>
			<point x="29" y="326" type="curve" smooth="yes"/>
			<point x="29" y="91"/>
			<point x="178" y="-19"/>
		</contour>
		<contour>
			<point x="342" y="32" type="curve" smooth="yes"/>
			<point x="258" y="32"/>
			<point x="227" y="147"/>
			<point x="227" y="326" type="curve" smooth="yes"/>
			<point x="227" y="504"/>
			<point x="258" y="620"/>
			<point x="342" y="620" type="curve" smooth="yes"/>
			<point x="426" y="620"/>
			<point x="458" y="504"/>
			<point x="458" y="326" type="curve" smooth="yes"/>
			<point x="458" y="147"/>
			<point x="426" y="32"/>
		</contour>
	</outline>
	<anchor name="aboveUC" x="342" y="672"/>
	<anchor name="belowLC" x="342" y="-20"/>
	<anchor name="hornLC" x="505" y="546"/>
	<anchor name="ogonek" x="430" y="0"/>
</glyph>
<glyph name="Q" format="2">
	<unicode hex="0051"/>
	<advance width="684"/>
	<outline>
		<contour>
			<point x="479" y="-201" type="curve" smooth="yes"/>
			<point x="534" y="-201"/>
			<point x="587" y="-188"/>
			<point x="619" y="-162" type="curve"/>
			<point x="598" y="-112" type="line"/>
			<point x="577" y="-122"/>
			<point x="549" y="-124"/>
			<point x="530" y="-124" type="curve" smooth="yes"/>
			<point x="460" y="-124"/>
			<point x="413" y="-69"/>
			<point x="428" y="24" type="curve"/>
			<point x="251" y="26" type="line"/>
			<point x="251" y="12" type="line" smooth="yes"/>
			<point x="251" y="-118"/>
			<point x="331" y="-201"/>
		</contour>
		<component base="O"/>
	</outline>
	<anchor name="aboveUC" x="342" y="672"/>
</glyph>
<glyph name="R" format="2">
	<unicode hex="0052"/>
	<advance width="683"/>
	<outline>
		<contour>
			<point x="27" y="0" type="line"/>
			<point x="353" y="0" type="line"/>
			<point x="353" y="48" type="line"/>
			<point x="216" y="64" type="line"/>
			<point x="164" y="64" type="line"/>
			<point x="27" y="48" type="line"/>
		</contour>
		<contour>
			<point x="91" y="0" type="curve"/>
			<point x="285" y="0" type="line"/>
			<point x="282" y="96"/>
			<point x="281" y="206"/>
			<point x="281" y="310" type="curve" smooth="yes"/>
			<point x="281" y="345" type="line" smooth="yes"/>
			<point x="281" y="448"/>
			<point x="282" y="558"/>
			<point x="285" y="652" type="curve"/>
			<point x="91" y="652" type="line"/>
			<point x="95" y="556"/>
			<point x="95" y="447"/>
			<point x="95" y="345" type="curve" smooth="yes"/>
			<point x="95" y="309" type="line" smooth="yes"/>
			<point x="95" y="205"/>
			<point x="94" y="94"/>
		</contour>
		<contour>
			<point x="562" y="-15" type="curve" smooth="yes"/>
			<point x="610" y="-15"/>
			<point x="630" y="-12"/>
			<point x="682" y="0" type="curve"/>
			<point x="682" y="48" type="line"/>
			<point x="534" y="66" type="line"/>
			<point x="622" y="13" type="line"/>
			<point x="591" y="171" type="line" smooth="yes"/>
			<point x="572" y="276"/>
			<point x="531" y="329"/>
			<point x="337" y="335" type="curve"/>
			<point x="337" y="325" type="line"/>
			<point x="526" y="332"/>
			<point x="596" y="412"/>
			<point x="596" y="490" type="curve" smooth="yes"/>
			<point x="596" y="591"/>
			<point x="514" y="652"/>
			<point x="344" y="652" type="curve" smooth="yes"/>
			<point x="188" y="652" type="line"/>
			<point x="188" y="600" type="line"/>
			<point x="305" y="600" type="line" smooth="yes"/>
			<point x="377" y="600"/>
			<point x="418" y="561"/>
			<point x="418" y="476" type="curve" smooth="yes"/>
			<point x="418" y="412"/>
			<point x="398" y="352"/>
			<point x="303" y="352" type="curve" smooth="yes"/>
			<point x="190" y="352" type="line"/>
			<point x="190" y="302" type="line"/>
			<point x="306" y="302" type="line" smooth="yes"/>
			<point x="359" y="302"/>
			<point x="379" y="261"/>
			<point x="388" y="200" type="curve" smooth="yes"/>
			<point x="404" y="98" type="line" smooth="yes"/>
			<point x="416" y="13"/>
			<point x="471" y="-15"/>
		</contour>
		<contour>
			<point x="27" y="604" type="line"/>
			<point x="164" y="588" type="line"/>
			<point x="203" y="588" type="line"/>
			<point x="203" y="652" type="line"/>
			<point x="27" y="652" type="line"/>
		</contour>
	</outline>
	<anchor name="aboveUC" x="322" y="672"/>
	<anchor name="belowLC" x="363" y="-20"/>
</glyph>
<glyph name="S" format="2">
	<unicode hex="0053"/>
	<advance width="538"/>
	<outline>
		<contour>
			<point x="246" y="-19" type="curve" smooth="yes"/>
			<point x="428" y="-19"/>
			<point x="508" y="70"/>
			<point x="508" y="186" type="curve" smooth="yes"/>
			<point x="508" y="293"/>
			<point x="449" y="344"/>
			<point x="338" y="399" type="curve" smooth="yes"/>
			<point x="295" y="420" type="line" smooth="yes"/>
			<point x="239" y="449"/>
			<point x="203" y="475"/>
			<point x="203" y="529" type="curve" smooth="yes"/>
			<point x="203" y="580"/>
			<point x="245" y="618"/>
			<point x="300" y="618" type="curve" smooth="yes"/>
			<point x="348" y="618"/>
			<point x="382" y="598"/>
			<point x="432" y="565" type="curve"/>
			<point x="432" y="609" type="line"/>
			<point x="354" y="634" type="line"/>
			<point x="392" y="475" type="line"/>
			<point x="472" y="475" type="line"/>
			<point x="479" y="621" type="line"/>
			<point x="432" y="652"/>
			<point x="363" y="671"/>
			<point x="293" y="671" type="curve" smooth="yes"/>
			<point x="134" y="671"/>
			<point x="44" y="593"/>
			<point x="44" y="475" type="curve" smooth="yes"/>
			<point x="44" y="362"/>
			<point x="113" y="305"/>
			<point x="221" y="252" type="curve" smooth="yes"/>
			<point x="260" y="233" type="line" smooth="yes"/>
			<point x="313" y="206"/>
			<point x="343" y="180"/>
			<point x="343" y="127" type="curve" smooth="yes"/>
			<point x="343" y="76"/>
			<point x="307" y="34"/>
			<point x="245" y="34" type="curve" smooth="yes"/>
			<point x="187" y="34"/>
			<point x="146" y="48"/>
			<point x="87" y="80" type="curve"/>
			<point x="88" y="43" type="line"/>
			<point x="160" y="17" type="line"/>
			<point x="121" y="186" type="line"/>
			<point x="40" y="186" type="line"/>
			<point x="33" y="33" type="line"/>
			<point x="94" y="-4"/>
			<point x="174" y="-19"/>
		</contour>
	</outline>
	<anchor name="aboveUC" x="287" y="672"/>
	<anchor name="baseLC" x="250" y="0"/>
	<anchor name="belowLC" x="251" y="-20"/>
</glyph>
<glyph name="T" format="2">
	<unicode hex="0054"/>
	<advance width="627"/>
	<outline>
		<contour>
			<point x="142" y="0" type="line"/>
			<point x="486" y="0" type="line"/>
			<point x="486" y="48" type="line"/>
			<point x="346" y="64" type="line"/>
			<point x="280" y="64" type="line"/>
			<point x="142" y="48" type="line"/>
		</contour>
		<contour>
			<point x="215" y="0" type="curve"/>
			<point x="412" y="0" type="line"/>
			<point x="408" y="96"/>
			<point x="408" y="206"/>
			<point x="408" y="310" type="curve" smooth="yes"/>
			<point x="408" y="345" type="line" smooth="yes"/>
			<point x="408" y="448"/>
			<point x="408" y="558"/>
			<point x="412" y="652" type="curve"/>
			<point x="216" y="652" type="line"/>
			<point x="219" y="556"/>
			<point x="219" y="447"/>
			<point x="219" y="345" type="curve" smooth="yes"/>
			<point x="219" y="309" type="line" smooth="yes"/>
			<point x="219" y="205"/>
			<point x="219" y="94"/>
		</contour>
		<contour>
			<point x="19" y="461" type="line"/>
			<point x="92" y="461" type="line"/>
			<point x="134" y="648" type="line"/>
			<point x="65" y="602" type="line"/>
			<point x="562" y="602" type="line"/>
			<point x="494" y="648" type="line"/>
			<point x="536" y="461" type="line"/>
			<point x="609" y="461" type="line"/>
			<point x="604" y="652" type="line"/>
			<point x="24" y="652" type="line"/>
		</contour>
	</outline>
	<anchor name="aboveUC" x="314" y="672"/>
	<anchor name="baseLC" x="314" y="0"/>
	<anchor name="belowLC" x="314" y="-20"/>
</glyph>
<glyph name="U" format="2">
	<unicode hex="0055"/>
	<advance width="700"/>
	<outline>
		<contour>
			<point x="348" y="-19" type="curve" smooth="yes"/>
			<point x="514" y="-19"/>
			<point x="603" y="70"/>
			<point x="603" y="281" type="curve" smooth="yes"/>
			<point x="603" y="652" type="line"/>
			<point x="544" y="652" type="line"/>
			<point x="544" y="267" type="line" smooth="yes"/>
			<point x="544" y="130"/>
			<point x="491" y="74"/>
			<point x="412" y="74" type="curve" smooth="yes"/>
			<point x="321" y="74"/>
			<point x="281" y="126"/>
			<point x="281" y="270" type="curve" smooth="yes"/>
			<point x="281" y="354" type="line" smooth="yes"/>
			<point x="281" y="454"/>
			<point x="281" y="561"/>
			<point x="284" y="652" type="curve"/>
			<point x="88" y="652" type="line"/>
			<point x="91" y="559"/>
			<point x="92" y="452"/>
			<point x="92" y="354" type="curve" smooth="yes"/>
			<point x="92" y="237" type="line" smooth="yes"/>
			<point x="92" y="47"/>
			<point x="201" y="-19"/>
		</contour>
		<contour>
			<point x="25" y="604" type="line"/>
			<point x="164" y="588" type="line"/>
			<point x="213" y="588" type="line"/>
			<point x="352" y="604" type="line"/>
			<point x="352" y="652" type="line"/>
			<point x="25" y="652" type="line"/>
		</contour>
		<contour>
			<point x="464" y="604" type="line"/>
			<point x="559" y="595" type="line"/>
			<point x="587" y="595" type="line"/>
			<point x="678" y="604" type="line"/>
			<point x="678" y="652" type="line"/>
			<point x="464" y="652" type="line"/>
		</contour>
	</outline>
	<anchor name="aboveUC" x="406" y="672"/>
	<anchor name="belowLC" x="369" y="-20"/>
	<anchor name="hornLC" x="586" y="570"/>
	<anchor name="ogonek" x="438" y="0"/>
</glyph>
<glyph name="V" format="2">
	<unicode hex="0056"/>
	<advance width="642"/>
	<outline>
		<contour>
			<point x="261" y="0" type="line"/>
			<point x="373" y="0" type="line"/>
			<point x="594" y="652" type="line"/>
			<point x="535" y="652" type="line"/>
			<point x="382" y="179" type="line"/>
			<point x="377" y="166" type="line"/>
			<point x="394" y="166" type="line"/>
			<point x="243" y="652" type="line"/>
			<point x="40" y="652" type="line"/>
		</contour>
		<contour>
			<point x="7" y="604" type="line"/>
			<point x="136" y="588" type="line"/>
			<point x="198" y="588" type="line"/>
			<point x="338" y="607" type="line"/>
			<point x="338" y="652" type="line"/>
			<point x="7" y="652" type="line"/>
		</contour>
		<contour>
			<point x="443" y="607" type="line"/>
			<point x="542" y="590" type="line"/>
			<point x="556" y="590" type="line"/>
			<point x="639" y="604" type="line"/>
			<point x="639" y="652" type="line"/>
			<point x="443" y="652" type="line"/>
		</contour>
	</outline>
	<anchor name="aboveUC" x="384" y="672"/>
	<anchor name="belowLC" x="323" y="-20"/>
</glyph>
<glyph name="W" format="2">
	<unicode hex="0057"/>
	<advance width="962"/>
	<outline>
		<contour>
			<point x="231" y="0" type="line"/>
			<point x="346" y="0" type="line"/>
			<point x="479" y="462" type="line"/>
			<point x="483" y="477" type="line"/>
			<point x="464" y="477" type="line"/>
			<point x="600" y="0" type="line"/>
			<point x="714" y="0" type="line"/>
			<point x="905" y="652" type="line"/>
			<point x="847" y="652" type="line"/>
			<point x="718" y="182" type="line"/>
			<point x="714" y="166" type="line"/>
			<point x="730" y="166" type="line"/>
			<point x="604" y="652" type="line"/>
			<point x="477" y="652" type="line"/>
			<point x="350" y="188" type="line"/>
			<point x="345" y="172" type="line"/>
			<point x="361" y="172" type="line"/>
			<point x="243" y="652" type="line"/>
			<point x="43" y="652" type="line"/>
		</contour>
		<contour>
			<point x="7" y="604" type="line"/>
			<point x="136" y="588" type="line"/>
			<point x="192" y="588" type="line"/>
			<point x="325" y="604" type="line"/>
			<point x="325" y="652" type="line"/>
			<point x="7" y="652" type="line"/>
		</contour>
		<contour>
			<point x="396" y="604" type="line"/>
			<point x="504" y="588" type="line"/>
			<point x="578" y="588" type="line"/>
			<point x="697" y="604" type="line"/>
			<point x="697" y="652" type="line"/>
			<point x="396" y="652" type="line"/>
		</contour>
		<contour>
			<point x="766" y="604" type="line"/>
			<point x="850" y="590" type="line"/>
			<point x="877" y="590" type="line"/>
			<point x="959" y="604" type="line"/>
			<point x="959" y="652" type="line"/>
			<point x="766" y="652" type="line"/>
		</contour>
	</outline>
	<anchor name="aboveUC" x="532" y="672"/>
	<anchor name="belowLC" x="475" y="-20"/>
</glyph>
<glyph name="X" format="2">
	<unicode hex="0058"/>
	<advance width="646"/>
	<outline>
		<contour>
			<point x="8" y="0" type="line"/>
			<point x="205" y="0" type="line"/>
			<point x="205" y="48" type="line"/>
			<point x="117" y="56" type="line"/>
			<point x="89" y="56" type="line"/>
			<point x="8" y="48" type="line"/>
		</contour>
		<contour>
			<point x="41" y="0" type="line"/>
			<point x="111" y="0" type="line"/>
			<point x="289" y="287" type="line"/>
			<point x="313" y="326" type="line"/>
			<point x="328" y="326" type="line"/>
			<point x="271" y="349" type="line"/>
		</contour>
		<contour>
			<point x="302" y="0" type="line"/>
			<point x="638" y="0" type="line"/>
			<point x="638" y="48" type="line"/>
			<point x="506" y="64" type="line"/>
			<point x="436" y="64" type="line"/>
			<point x="302" y="48" type="line"/>
		</contour>
		<contour>
			<point x="369" y="336" type="line"/>
			<point x="569" y="652" type="line"/>
			<point x="499" y="652" type="line"/>
			<point x="352" y="402" type="line"/>
			<point x="328" y="361" type="line"/>
			<point x="315" y="361" type="line"/>
		</contour>
		<contour>
			<point x="399" y="0" type="line"/>
			<point x="606" y="0" type="line"/>
			<point x="246" y="652" type="line"/>
			<point x="38" y="652" type="line"/>
		</contour>
		<contour>
			<point x="12" y="604" type="line"/>
			<point x="126" y="588" type="line"/>
			<point x="201" y="588" type="line"/>
			<point x="331" y="604" type="line"/>
			<point x="331" y="652" type="line"/>
			<point x="12" y="652" type="line"/>
		</contour>
		<contour>
			<point x="410" y="604" type="line"/>
			<point x="494" y="597" type="line"/>
			<point x="523" y="597" type="line"/>
			<point x="603" y="604" type="line"/>
			<point x="603" y="652" type="line"/>
			<point x="410" y="652" type="line"/>
		</contour>
	</outline>
	<anchor name="aboveUC" x="365" y="672"/>
	<anchor name="belowLC" x="271" y="-20"/>
</glyph>
<glyph name="Y" format="2">
	<unicode hex="0059"/>
	<advance width="611"/>
	<outline>
		<contour>
			<point x="135" y="0" type="line"/>
			<point x="479" y="0" type="line"/>
			<point x="479" y="49" type="line"/>
			<point x="338" y="64" type="line"/>
			<point x="273" y="64" type="line"/>
			<point x="135" y="49" type="line"/>
		</contour>
		<contour>
			<point x="209" y="0" type="curve"/>
			<point x="405" y="0" type="line"/>
			<point x="402" y="96"/>
			<point x="402" y="158"/>
			<point x="402" y="308" type="curve"/>
			<point x="212" y="308" type="line"/>
			<point x="212" y="157"/>
			<point x="212" y="94"/>
		</contour>
		<contour>
			<point x="238" y="205" type="line"/>
			<point x="361" y="205" type="line"/>
			<point x="573" y="652" type="line"/>
			<point x="510" y="652" type="line"/>
			<point x="368" y="328" type="line"/>
			<point x="362" y="314" type="line"/>
			<point x="388" y="314" type="line"/>
			<point x="243" y="652" type="line"/>
			<point x="27" y="652" type="line"/>
		</contour>
		<contour>
			<point x="7" y="603" type="line"/>
			<point x="147" y="588" type="line"/>
			<point x="213" y="588" type="line"/>
			<point x="334" y="603" type="line"/>
			<point x="334" y="652" type="line"/>
			<point x="7" y="652" type="line"/>
		</contour>
		<contour>
			<point x="421" y="603" type="line"/>
			<point x="503" y="589" type="line"/>
			<point x="527" y="589" type="line"/>
			<point x="608" y="603" type="line"/>
			<point x="608" y="652" type="line"/>
			<point x="421" y="652" type="line"/>
		</contour>
	</outline>
	<anchor name="aboveUC" x="373" y="672"/>
	<anchor name="belowLC" x="305" y="-20"/>
</glyph>
<glyph name="Z" format="2">
	<unicode hex="005A"/>
	<advance width="556"/>
	<outline>
		<contour>
			<point x="21" y="0" type="line"/>
			<point x="526" y="0" type="line"/>
			<point x="535" y="189" type="line"/>
			<point x="466" y="189" type="line"/>
			<point x="420" y="25" type="line"/>
			<point x="455" y="50" type="line"/>
			<point x="341" y="50" type="line"/>
			<point x="230" y="50" type="line"/>
			<point x="230" y="65" type="line"/>
			<point x="222" y="27" type="line"/>
			<point x="528" y="611" type="line"/>
			<point x="528" y="652" type="line"/>
			<point x="41" y="652" type="line"/>
			<point x="32" y="464" type="line"/>
			<point x="99" y="464" type="line"/>
			<point x="146" y="627" type="line"/>
			<point x="111" y="602" type="line"/>
			<point x="217" y="602" type="line"/>
			<point x="320" y="602" type="line"/>
			<point x="320" y="588" type="line"/>
			<point x="328" y="624" type="line"/>
			<point x="21" y="41" type="line"/>
		</contour>
	</outline>
	<anchor name="aboveUC" x="283" y="672"/>
	<anchor name="belowLC" x="286" y="-20"/>
</glyph>
<glyph name="bracketleft" format="2">
	<unicode hex="005B"/>
	<advance width="360"/>
	<outline>
		<contour>
			<point x="102" y="-160" type="curve"/>
			<point x="247" y="-160" type="line"/>
			<point x="244" y="-64"/>
			<point x="243" y="49"/>
			<point x="243" y="154" type="curve" smooth="yes"/>
			<point x="243" y="402" type="line" smooth="yes"/>
			<point x="243" y="507"/>
			<point x="244" y="619"/>
			<point x="247" y="714" type="curve"/>
			<point x="102" y="714" type="line"/>
			<point x="105" y="617"/>
			<point x="106" y="506"/>
			<point x="106" y="402" type="curve" smooth="yes"/>
			<point x="106" y="154" type="line" smooth="yes"/>
			<point x="106" y="48"/>
			<point x="105" y="-65"/>
		</contour>
		<contour>
			<point x="169" y="-160" type="line"/>
			<point x="342" y="-160" type="line"/>
			<point x="342" y="-112" type="line"/>
			<point x="199" y="-97" type="line"/>
			<point x="169" y="-97" type="line"/>
		</contour>
		<contour>
			<point x="169" y="650" type="line"/>
			<point x="199" y="650" type="line"/>
			<point x="342" y="666" type="line"/>
			<point x="342" y="714" type="line"/>
			<point x="169" y="714" type="line"/>
		</contour>
	</outline>
</glyph>
<glyph name="backslash" format="2">
	<unicode hex="005C"/>
	<advance width="392"/>
	<outline>
		<contour>
			<point x="381" y="-160" type="line"/>
			<point x="113" y="709" type="line"/>
			<point x="10" y="709" type="line"/>
			<point x="277" y="-160" type="line"/>
		</contour>
	</outline>
</glyph>
<glyph name="asciicircum" format="2">
	<unicode hex="005E"/>
	<advance width="539"/>
	<outline>
		<contour>
			<point x="48" y="229" type="line"/>
			<point x="118" y="181" type="line"/>
			<point x="296" y="455" type="line"/>
			<point x="242" y="455" type="line"/>
			<point x="420" y="181" type="line"/>
			<point x="492" y="229" type="line"/>
			<point x="306" y="512" type="line"/>
			<point x="233" y="512" type="line"/>
		</contour>
	</outline>
</glyph>
<glyph name="underscore" format="2">
	<unicode hex="005F"/>
	<advance width="539"/>
	<outline>
		<contour>
			<point x="-5" y="-96" type="line"/>
			<point x="544" y="-96" type="line"/>
			<point x="544" y="-11" type="line"/>
			<point x="-5" y="-11" type="line"/>
		</contour>
	</outline>
</glyph>
<glyph name="a" format="2">
	<unicode hex="0061"/>
	<advance width="528"/>
	<outline>
		<contour>
			<point x="152" y="-16" type="curve" smooth="yes"/>
			<point x="224" y="-16"/>
			<point x="256" y="12"/>
			<point x="299" y="63" type="curve"/>
			<point x="342" y="63" type="line"/>
			<point x="333" y="112" type="line"/>
			<point x="293" y="80"/>
			<point x="272" y="68"/>
			<point x="244" y="68" type="curve" smooth="yes"/>
			<point x="214" y="68"/>
			<point x="190" y="90"/>
			<point x="190" y="137" type="curve" smooth="yes"/>
			<point x="190" y="197"/>
			<point x="223" y="233"/>
			<point x="268" y="249" type="curve" smooth="yes"/>
			<point x="295" y="258"/>
			<point x="339" y="272"/>
			<point x="382" y="285" type="curve"/>
			<point x="382" y="322" type="line"/>
			<point x="332" y="308"/>
			<point x="274" y="293"/>
			<point x="225" y="280" type="curve" smooth="yes"/>
			<point x="71" y="238"/>
			<point x="25" y="185"/>
			<point x="25" y="109" type="curve" smooth="yes"/>
			<point x="25" y="30"/>
			<point x="75" y="-16"/>
		</contour>
		<contour>
			<point x="406" y="-16" type="curve" smooth="yes"/>
			<point x="472" y="-16"/>
			<point x="512" y="9"/>
			<point x="534" y="66" type="curve"/>
			<point x="509" y="81" type="line"/>
			<point x="497" y="63"/>
			<point x="489" y="59"/>
			<point x="480" y="59" type="curve" smooth="yes"/>
			<point x="469" y="59"/>
			<point x="463" y="66"/>
			<point x="463" y="77" type="curve" smooth="yes"/>
			<point x="463" y="304" type="line" smooth="yes"/>
			<point x="463" y="438"/>
			<point x="412" y="495"/>
			<point x="277" y="495" type="curve" smooth="yes"/>
			<point x="125" y="495"/>
			<point x="43" y="437"/>
			<point x="42" y="354" type="curve"/>
			<point x="52" y="318"/>
			<point x="77" y="301"/>
			<point x="115" y="301" type="curve" smooth="yes"/>
			<point x="156" y="301"/>
			<point x="195" y="330"/>
			<point x="196" y="409" type="curve" smooth="yes"/>
			<point x="196" y="474" type="line"/>
			<point x="130" y="435" type="line"/>
			<point x="167" y="444"/>
			<point x="189" y="448"/>
			<point x="212" y="448" type="curve" smooth="yes"/>
			<point x="273" y="448"/>
			<point x="286" y="421"/>
			<point x="286" y="332" type="curve" smooth="yes"/>
			<point x="286" y="76" type="line"/>
			<point x="286" y="72" type="line"/>
			<point x="297" y="17"/>
			<point x="333" y="-16"/>
		</contour>
	</outline>
	<anchor name="aboveLC" x="257" y="499"/>
	<anchor name="belowLC" x="252" y="-20"/>
	<anchor name="ogonek" x="453" y="0"/>
</glyph>
<glyph name="b" format="2">
	<unicode hex="0062"/>
	<advance width="606"/>
	<outline>
		<contour>
			<point x="27" y="-1" type="line"/>
			<point x="233" y="-15" type="line"/>
			<point x="255" y="73" type="line"/>
			<point x="255" y="76" type="line"/>
			<point x="255" y="412" type="line"/>
			<point x="252" y="421" type="line"/>
			<point x="252" y="552" type="line"/>
			<point x="256" y="711" type="line"/>
			<point x="240" y="722" type="line"/>
			<point x="20" y="675" type="line"/>
			<point x="20" y="637" type="line"/>
			<point x="73" y="628" type="line"/>
			<point x="73" y="206" type="line" smooth="yes"/>
			<point x="73" y="162"/>
			<point x="73" y="101"/>
			<point x="72" y="52" type="curve"/>
			<point x="27" y="43" type="line"/>
		</contour>
		<contour>
			<point x="375" y="-16" type="curve" smooth="yes"/>
			<point x="486" y="-16"/>
			<point x="582" y="84"/>
			<point x="582" y="246" type="curve" smooth="yes"/>
			<point x="582" y="411"/>
			<point x="500" y="495"/>
			<point x="392" y="495" type="curve" smooth="yes"/>
			<point x="325" y="495"/>
			<point x="272" y="464"/>
			<point x="231" y="403" type="curve"/>
			<point x="190" y="403" type="line"/>
			<point x="199" y="324" type="line"/>
			<point x="216" y="345"/>
			<point x="253" y="402"/>
			<point x="303" y="402" type="curve" smooth="yes"/>
			<point x="354" y="402"/>
			<point x="389" y="360"/>
			<point x="389" y="244" type="curve" smooth="yes"/>
			<point x="389" y="127"/>
			<point x="353" y="76"/>
			<point x="303" y="76" type="curve" smooth="yes"/>
			<point x="259" y="76"/>
			<point x="239" y="105"/>
			<point x="206" y="150" type="curve"/>
			<point x="196" y="88" type="line"/>
			<point x="221" y="88" type="line"/>
			<point x="255" y="19"/>
			<point x="302" y="-16"/>
		</contour>
	</outline>
	<anchor name="aboveLC" x="165" y="722"/>
	<anchor name="belowLC" x="281" y="-20"/>
</glyph>
<glyph name="c" format="2">
	<unicode hex="0063"/>
	<advance width="506"/>
	<outline>
		<contour>
			<point x="278" y="-16" type="curve" smooth="yes"/>
			<point x="373" y="-16"/>
			<point x="441" y="23"/>
			<point x="481" y="103" type="curve"/>
			<point x="448" y="130" type="line"/>
			<point x="421" y="101"/>
			<point x="387" y="85"/>
			<point x="346" y="85" type="curve" smooth="yes"/>
			<point x="270" y="85"/>
			<point x="215" y="147"/>
			<point x="215" y="265" type="curve" smooth="yes"/>
			<point x="215" y="402"/>
			<point x="275" y="449"/>
			<point x="319" y="449" type="curve" smooth="yes"/>
			<point x="351" y="449"/>
			<point x="373" y="442"/>
			<point x="402" y="429" type="curve"/>
			<point x="322" y="470" type="line"/>
			<point x="325" y="403" type="line" smooth="yes"/>
			<point x="328" y="319"/>
			<point x="367" y="294"/>
			<point x="408" y="294" type="curve" smooth="yes"/>
			<point x="446" y="294"/>
			<point x="468" y="311"/>
			<point x="481" y="350" type="curve"/>
			<point x="477" y="428"/>
			<point x="401" y="495"/>
			<point x="290" y="495" type="curve" smooth="yes"/>
			<point x="130" y="495"/>
			<point x="24" y="404"/>
			<point x="24" y="236" type="curve" smooth="yes"/>
			<point x="24" y="77"/>
			<point x="128" y="-16"/>
		</contour>
	</outline>
	<anchor name="aboveLC" x="289" y="499"/>
	<anchor name="baseLC" x="278" y="0"/>
	<anchor name="belowLC" x="276" y="-20"/>
</glyph>
<glyph name="d" format="2">
	<unicode hex="0064"/>
	<advance width="590"/>
	<outline>
		<contour>
			<point x="214" y="-16" type="curve" smooth="yes"/>
			<point x="286" y="-16"/>
			<point x="339" y="18"/>
			<point x="382" y="91" type="curve"/>
			<point x="409" y="91" type="line"/>
			<point x="398" y="153" type="line"/>
			<point x="374" y="113"/>
			<point x="344" y="78"/>
			<point x="303" y="78" type="curve" smooth="yes"/>
			<point x="251" y="78"/>
			<point x="217" y="129"/>
			<point x="217" y="236" type="curve" smooth="yes"/>
			<point x="217" y="352"/>
			<point x="254" y="404"/>
			<point x="306" y="404" type="curve" smooth="yes"/>
			<point x="345" y="404"/>
			<point x="366" y="381"/>
			<point x="395" y="340" type="curve"/>
			<point x="407" y="399" type="line"/>
			<point x="381" y="399" type="line"/>
			<point x="348" y="462"/>
			<point x="307" y="495"/>
			<point x="238" y="495" type="curve" smooth="yes"/>
			<point x="128" y="495"/>
			<point x="24" y="397"/>
			<point x="24" y="232" type="curve" smooth="yes"/>
			<point x="24" y="68"/>
			<point x="106" y="-16"/>
		</contour>
		<contour>
			<point x="357" y="-13" type="line"/>
			<point x="567" y="0" type="line"/>
			<point x="567" y="43" type="line"/>
			<point x="528" y="52" type="line"/>
			<point x="528" y="552" type="line"/>
			<point x="532" y="711" type="line"/>
			<point x="516" y="722" type="line"/>
			<point x="292" y="675" type="line"/>
			<point x="292" y="637" type="line"/>
			<point x="352" y="625" type="line"/>
			<point x="352" y="419" type="line"/>
			<point x="347" y="408" type="line"/>
			<point x="347" y="76" type="line"/>
			<point x="347" y="72" type="line"/>
		</contour>
	</outline>
	<anchor name="aboveLC" x="424" y="722"/>
	<anchor name="belowLC" x="313" y="-20"/>
</glyph>
<glyph name="e" format="2">
	<unicode hex="0065"/>
	<advance width="511"/>
	<outline>
		<contour>
			<point x="277" y="-16" type="curve" smooth="yes"/>
			<point x="376" y="-16"/>
			<point x="442" y="22"/>
			<point x="485" y="103" type="curve"/>
			<point x="453" y="130" type="line"/>
			<point x="426" y="101"/>
			<point x="394" y="85"/>
			<point x="349" y="85" type="curve" smooth="yes"/>
			<point x="278" y="85"/>
			<point x="214" y="139"/>
			<point x="214" y="259" type="curve" smooth="yes"/>
			<point x="214" y="406"/>
			<point x="238" y="449"/>
			<point x="272" y="449" type="curve" smooth="yes"/>
			<point x="299" y="449"/>
			<point x="322" y="425"/>
			<point x="322" y="354" type="curve" smooth="yes"/>
			<point x="322" y="300"/>
			<point x="307" y="284"/>
			<point x="255" y="284" type="curve" smooth="yes"/>
			<point x="98" y="284" type="line"/>
			<point x="98" y="236" type="line"/>
			<point x="483" y="236" type="line"/>
			<point x="487" y="254"/>
			<point x="487" y="266"/>
			<point x="487" y="286" type="curve" smooth="yes"/>
			<point x="487" y="402"/>
			<point x="411" y="495"/>
			<point x="272" y="495" type="curve" smooth="yes"/>
			<point x="134" y="495"/>
			<point x="24" y="404"/>
			<point x="24" y="234" type="curve" smooth="yes"/>
			<point x="24" y="71"/>
			<point x="132" y="-16"/>
		</contour>
	</outline>
	<anchor name="aboveLC" x="272" y="499"/>
	<anchor name="belowLC" x="279" y="-20"/>
	<anchor name="ogonek" x="356" y="0"/>
</glyph>
<glyph name="f" format="2">
	<unicode hex="0066"/>
	<advance width="356"/>
	<outline>
		<contour>
			<point x="25" y="0" type="line"/>
			<point x="327" y="0" type="line"/>
			<point x="327" y="43" type="line"/>
			<point x="240" y="62" type="line"/>
			<point x="114" y="62" type="line"/>
			<point x="25" y="43" type="line"/>
		</contour>
		<contour>
			<point x="68" y="0" type="curve"/>
			<point x="257" y="0" type="line"/>
			<point x="254" y="65"/>
			<point x="253" y="140"/>
			<point x="253" y="209" type="curve" smooth="yes"/>
			<point x="253" y="435" type="line"/>
			<point x="246" y="583"/>
			<point x="250" y="627"/>
			<point x="287" y="683" type="curve" smooth="yes"/>
			<point x="296" y="697"/>
			<point x="307" y="702"/>
			<point x="313" y="706" type="curve"/>
			<point x="313" y="717" type="line"/>
			<point x="274" y="717" type="line"/>
			<point x="274" y="704" type="line"/>
			<point x="292" y="668" type="line" smooth="yes"/>
			<point x="321" y="605"/>
			<point x="350" y="585"/>
			<point x="386" y="585" type="curve" smooth="yes"/>
			<point x="430" y="585"/>
			<point x="458" y="613"/>
			<point x="459" y="654" type="curve"/>
			<point x="446" y="710"/>
			<point x="390" y="732"/>
			<point x="331" y="732" type="curve" smooth="yes"/>
			<point x="269" y="732"/>
			<point x="205" y="710"/>
			<point x="159" y="667" type="curve" smooth="yes"/>
			<point x="110" y="622"/>
			<point x="84" y="565"/>
			<point x="75" y="476" type="curve"/>
			<point x="72" y="452" type="line"/>
			<point x="125" y="486" type="line"/>
			<point x="17" y="470" type="line"/>
			<point x="17" y="417" type="line"/>
			<point x="72" y="417" type="line"/>
			<point x="72" y="209" type="line" smooth="yes"/>
			<point x="72" y="140"/>
			<point x="72" y="65"/>
		</contour>
		<contour>
			<point x="166" y="417" type="line"/>
			<point x="346" y="417" type="line"/>
			<point x="346" y="479" type="line"/>
			<point x="166" y="479" type="line"/>
		</contour>
	</outline>
	<anchor name="aboveLC" x="297" y="722"/>
	<anchor name="belowLC" x="168" y="-20"/>
</glyph>
<glyph name="g" format="2">
	<unicode hex="0067"/>
	<advance width="542"/>
	<outline>
		<contour>
			<point x="200" y="-227" type="curve" smooth="yes"/>
			<point x="406" y="-227"/>
			<point x="521" y="-133"/>
			<point x="521" y="-32" type="curve" smooth="yes"/>
			<point x="521" y="52"/>
			<point x="466" y="112"/>
			<point x="313" y="112" type="curve" smooth="yes"/>
			<point x="198" y="112" type="line" smooth="yes"/>
			<point x="155" y="112"/>
			<point x="136" y="126"/>
			<point x="136" y="153" type="curve" smooth="yes"/>
			<point x="136" y="175"/>
			<point x="146" y="191"/>
			<point x="161" y="201" type="curve"/>
			<point x="128" y="224" type="line"/>
			<point x="128" y="213" type="line"/>
			<point x="69" y="178"/>
			<point x="29" y="133"/>
			<point x="29" y="76" type="curve" smooth="yes"/>
			<point x="29" y="24"/>
			<point x="64" y="-11"/>
			<point x="117" y="-26" type="curve"/>
			<point x="118" y="-29" type="line"/>
			<point x="143" y="-35"/>
			<point x="172" y="-37"/>
			<point x="213" y="-37" type="curve" smooth="yes"/>
			<point x="305" y="-37" type="line" smooth="yes"/>
			<point x="359" y="-37"/>
			<point x="383" y="-60"/>
			<point x="383" y="-99" type="curve" smooth="yes"/>
			<point x="383" y="-144"/>
			<point x="338" y="-174"/>
			<point x="232" y="-174" type="curve" smooth="yes"/>
			<point x="143" y="-174"/>
			<point x="118" y="-139"/>
			<point x="118" y="-94" type="curve" smooth="yes"/>
			<point x="118" y="-60"/>
			<point x="133" y="-41"/>
			<point x="162" y="-23" type="curve"/>
			<point x="149" y="-15" type="line"/>
			<point x="67" y="-26"/>
			<point x="7" y="-63"/>
			<point x="7" y="-124" type="curve" smooth="yes"/>
			<point x="7" y="-174"/>
			<point x="51" y="-227"/>
		</contour>
		<contour>
			<point x="243" y="177" type="curve" smooth="yes"/>
			<point x="391" y="177"/>
			<point x="456" y="248"/>
			<point x="456" y="334" type="curve" smooth="yes"/>
			<point x="456" y="367"/>
			<point x="447" y="398"/>
			<point x="429" y="424" type="curve"/>
			<point x="424" y="429" type="line"/>
			<point x="392" y="469"/>
			<point x="334" y="495"/>
			<point x="243" y="495" type="curve" smooth="yes"/>
			<point x="96" y="495"/>
			<point x="30" y="424"/>
			<point x="30" y="336" type="curve" smooth="yes"/>
			<point x="30" y="249"/>
			<point x="92" y="177"/>
		</contour>
		<contour>
			<point x="244" y="217" type="curve" smooth="yes"/>
			<point x="207" y="217"/>
			<point x="190" y="256"/>
			<point x="190" y="336" type="curve" smooth="yes"/>
			<point x="190" y="417"/>
			<point x="209" y="455"/>
			<point x="244" y="455" type="curve" smooth="yes"/>
			<point x="279" y="455"/>
			<point x="298" y="417"/>
			<point x="298" y="336" type="curve" smooth="yes"/>
			<point x="298" y="256"/>
			<point x="281" y="217"/>
		</contour>
		<contour>
			<point x="399" y="402" type="line"/>
			<point x="535" y="402" type="line"/>
			<point x="535" y="488" type="line"/>
			<point x="520" y="497" type="line"/>
			<point x="403" y="434" type="line"/>
			<point x="396" y="434" type="line"/>
		</contour>
	</outline>
	<anchor name="aboveLC" x="257" y="499"/>
	<anchor name="belowLC" x="249" y="-237"/>
</glyph>
<glyph name="h" format="2">
	<unicode hex="0068"/>
	<advance width="608"/>
	<outline>
		<contour>
			<point x="25" y="0" type="line"/>
			<point x="294" y="0" type="line"/>
			<point x="294" y="43" type="line"/>
			<point x="206" y="62" type="line"/>
			<point x="109" y="62" type="line"/>
			<point x="25" y="43" type="line"/>
		</contour>
		<contour>
			<point x="68" y="0" type="curve"/>
			<point x="257" y="0" type="line"/>
			<point x="254" y="47"/>
			<point x="253" y="146"/>
			<point x="253" y="209" type="curve" smooth="yes"/>
			<point x="253" y="368" type="line"/>
			<point x="251" y="378" type="line"/>
			<point x="251" y="551" type="line"/>
			<point x="255" y="711" type="line"/>
			<point x="238" y="722" type="line"/>
			<point x="19" y="675" type="line"/>
			<point x="19" y="638" type="line"/>
			<point x="72" y="626" type="line"/>
			<point x="72" y="209" type="line" smooth="yes"/>
			<point x="72" y="146"/>
			<point x="72" y="47"/>
		</contour>
		<contour>
			<point x="322" y="0" type="line"/>
			<point x="590" y="0" type="line"/>
			<point x="590" y="43" type="line"/>
			<point x="500" y="62" type="line"/>
			<point x="403" y="62" type="line"/>
			<point x="322" y="43" type="line"/>
		</contour>
		<contour>
			<point x="362" y="0" type="curve"/>
			<point x="551" y="0" type="line"/>
			<point x="548" y="47"/>
			<point x="547" y="144"/>
			<point x="547" y="209" type="curve" smooth="yes"/>
			<point x="547" y="333" type="line" smooth="yes"/>
			<point x="547" y="440"/>
			<point x="486" y="495"/>
			<point x="401" y="495" type="curve" smooth="yes"/>
			<point x="334" y="495"/>
			<point x="289" y="470"/>
			<point x="226" y="379" type="curve"/>
			<point x="209" y="379" type="line"/>
			<point x="214" y="316" type="line"/>
			<point x="246" y="362"/>
			<point x="290" y="394"/>
			<point x="322" y="394" type="curve" smooth="yes"/>
			<point x="354" y="394"/>
			<point x="366" y="375"/>
			<point x="366" y="322" type="curve" smooth="yes"/>
			<point x="366" y="209" type="line" smooth="yes"/>
			<point x="366" y="144"/>
			<point x="366" y="47"/>
		</contour>
	</outline>
	<anchor name="aboveLC" x="157" y="722"/>
	<anchor name="belowLC" x="307" y="-20"/>
</glyph>
<glyph name="i" format="2">
	<unicode hex="0069"/>
	<advance width="314"/>
	<outline>
		<contour>
			<point x="26" y="0" type="line"/>
			<point x="296" y="0" type="line"/>
			<point x="296" y="43" type="line"/>
			<point x="206" y="62" type="line"/>
			<point x="110" y="62" type="line"/>
			<point x="26" y="43" type="line"/>
		</contour>
		<contour>
			<point x="68" y="0" type="curve"/>
			<point x="257" y="0" type="line"/>
			<point x="254" y="47"/>
			<point x="253" y="146"/>
			<point x="253" y="209" type="curve" smooth="yes"/>
			<point x="253" y="339" type="line"/>
			<point x="256" y="484" type="line"/>
			<point x="239" y="495" type="line"/>
			<point x="17" y="430" type="line"/>
			<point x="17" y="395" type="line"/>
			<point x="70" y="384" type="line"/>
			<point x="72" y="342"/>
			<point x="72" y="308"/>
			<point x="72" y="250" type="curve" smooth="yes"/>
			<point x="72" y="209" type="line" smooth="yes"/>
			<point x="72" y="146"/>
			<point x="72" y="47"/>
		</contour>
		<contour>
			<point x="161" y="555" type="curve" smooth="yes"/>
			<point x="209" y="555"/>
			<point x="248" y="590"/>
			<point x="248" y="638" type="curve" smooth="yes"/>
			<point x="248" y="686"/>
			<point x="209" y="720"/>
			<point x="161" y="720" type="curve" smooth="yes"/>
			<point x="112" y="720"/>
			<point x="73" y="686"/>
			<point x="73" y="638" type="curve" smooth="yes"/>
			<point x="73" y="590"/>
			<point x="112" y="555"/>
		</contour>
	</outline>
	<anchor name="aboveLC" x="161" y="720"/>
	<anchor name="belowLC" x="164" y="-20"/>
	<anchor name="ogonek" x="221" y="0"/>
</glyph>
<glyph name="k" format="2">
	<unicode hex="006B"/>
	<advance width="601"/>
	<outline>
		<contour>
			<point x="25" y="0" type="line"/>
			<point x="297" y="0" type="line"/>
			<point x="297" y="43" type="line"/>
			<point x="206" y="62" type="line"/>
			<point x="109" y="62" type="line"/>
			<point x="25" y="43" type="line"/>
		</contour>
		<contour>
			<point x="68" y="0" type="curve"/>
			<point x="257" y="0" type="line"/>
			<point x="254" y="38"/>
			<point x="253" y="150"/>
			<point x="253" y="216" type="curve" smooth="yes"/>
			<point x="253" y="551" type="line"/>
			<point x="257" y="711" type="line"/>
			<point x="240" y="722" type="line"/>
			<point x="19" y="675" type="line"/>
			<point x="19" y="638" type="line"/>
			<point x="72" y="626" type="line"/>
			<point x="72" y="209" type="line" smooth="yes"/>
			<point x="72" y="150"/>
			<point x="72" y="38"/>
		</contour>
		<contour>
			<point x="159" y="124" type="line"/>
			<point x="539" y="479" type="line"/>
			<point x="466" y="479" type="line"/>
			<point x="315" y="331" type="line"/>
			<point x="165" y="183" type="line"/>
			<point x="159" y="183" type="line"/>
		</contour>
		<contour>
			<point x="370" y="0" type="line"/>
			<point x="594" y="0" type="line"/>
			<point x="594" y="43" type="line"/>
			<point x="537" y="58" type="line"/>
			<point x="397" y="371" type="line"/>
			<point x="269" y="254" type="line"/>
		</contour>
		<contour>
			<point x="337" y="439" type="line"/>
			<point x="441" y="424" type="line"/>
			<point x="464" y="424" type="line"/>
			<point x="569" y="439" type="line"/>
			<point x="569" y="479" type="line"/>
			<point x="337" y="479" type="line"/>
		</contour>
	</outline>
	<anchor name="aboveLC" x="163" y="722"/>
	<anchor name="belowLC" x="314" y="-20"/>
</glyph>
<glyph name="l" format="2">
	<unicode hex="006C"/>
	<advance width="321"/>
	<outline>
		<contour>
			<point x="25" y="0" type="line"/>
			<point x="299" y="0" type="line"/>
			<point x="299" y="43" type="line"/>
			<point x="208" y="62" type="line"/>
			<point x="111" y="62" type="line"/>
			<point x="25" y="43" type="line"/>
		</contour>
		<contour>
			<point x="68" y="0" type="curve"/>
			<point x="257" y="0" type="line"/>
			<point x="254" y="65"/>
			<point x="253" y="140"/>
			<point x="253" y="209" type="curve" smooth="yes"/>
			<point x="253" y="551" type="line"/>
			<point x="257" y="711" type="line"/>
			<point x="240" y="722" type="line"/>
			<point x="19" y="675" type="line"/>
			<point x="19" y="638" type="line"/>
			<point x="72" y="626" type="line"/>
			<point x="72" y="209" type="line" smooth="yes"/>
			<point x="72" y="140"/>
			<point x="72" y="65"/>
		</contour>
	</outline>
	<anchor name="aboveLC" x="160" y="722"/>
	<anchor name="belowLC" x="163" y="-20"/>
</glyph>
<glyph name="m" format="2">
	<unicode hex="006D"/>
	<advance width="893"/>
	<outline>
		<contour>
			<point x="22" y="0" type="line"/>
			<point x="291" y="0" type="line"/>
			<point x="291" y="43" type="line"/>
			<point x="204" y="62" type="line"/>
			<point x="106" y="62" type="line"/>
			<point x="22" y="43" type="line"/>
		</contour>
		<contour>
			<point x="66" y="0" type="curve"/>
			<point x="254" y="0" type="line"/>
			<point x="251" y="47"/>
			<point x="250" y="146"/>
			<point x="250" y="209" type="curve" smooth="yes"/>
			<point x="250" y="378" type="line"/>
			<point x="250" y="381" type="line"/>
			<point x="245" y="484" type="line"/>
			<point x="227" y="495" type="line"/>
			<point x="14" y="430" type="line"/>
			<point x="14" y="395" type="line"/>
			<point x="67" y="384" type="line"/>
			<point x="69" y="342"/>
			<point x="69" y="318"/>
			<point x="69" y="260" type="curve" smooth="yes"/>
			<point x="69" y="209" type="line" smooth="yes"/>
			<point x="69" y="146"/>
			<point x="69" y="47"/>
		</contour>
		<contour>
			<point x="319" y="0" type="line"/>
			<point x="582" y="0" type="line"/>
			<point x="582" y="43" type="line"/>
			<point x="497" y="62" type="line"/>
			<point x="398" y="62" type="line"/>
			<point x="319" y="43" type="line"/>
		</contour>
		<contour>
			<point x="360" y="0" type="curve"/>
			<point x="546" y="0" type="line"/>
			<point x="542" y="47"/>
			<point x="542" y="144"/>
			<point x="542" y="209" type="curve" smooth="yes"/>
			<point x="542" y="333" type="line" smooth="yes"/>
			<point x="542" y="440"/>
			<point x="490" y="495"/>
			<point x="398" y="495" type="curve" smooth="yes"/>
			<point x="329" y="495"/>
			<point x="280" y="462"/>
			<point x="224" y="380" type="curve"/>
			<point x="208" y="380" type="line"/>
			<point x="208" y="323" type="line"/>
			<point x="230" y="358"/>
			<point x="276" y="394"/>
			<point x="315" y="394" type="curve" smooth="yes"/>
			<point x="351" y="394"/>
			<point x="363" y="371"/>
			<point x="363" y="314" type="curve" smooth="yes"/>
			<point x="363" y="209" type="line" smooth="yes"/>
			<point x="363" y="144"/>
			<point x="363" y="47"/>
		</contour>
		<contour>
			<point x="613" y="0" type="line"/>
			<point x="875" y="0" type="line"/>
			<point x="875" y="43" type="line"/>
			<point x="788" y="62" type="line"/>
			<point x="687" y="62" type="line"/>
			<point x="613" y="43" type="line"/>
		</contour>
		<contour>
			<point x="649" y="0" type="curve"/>
			<point x="835" y="0" type="line"/>
			<point x="832" y="47"/>
			<point x="831" y="144"/>
			<point x="831" y="209" type="curve" smooth="yes"/>
			<point x="831" y="325" type="line" smooth="yes"/>
			<point x="831" y="438"/>
			<point x="785" y="495"/>
			<point x="686" y="495" type="curve" smooth="yes"/>
			<point x="623" y="495"/>
			<point x="575" y="470"/>
			<point x="512" y="380" type="curve"/>
			<point x="496" y="380" type="line"/>
			<point x="496" y="322" type="line"/>
			<point x="526" y="364"/>
			<point x="567" y="394"/>
			<point x="606" y="394" type="curve" smooth="yes"/>
			<point x="639" y="394"/>
			<point x="653" y="376"/>
			<point x="653" y="314" type="curve" smooth="yes"/>
			<point x="653" y="209" type="line" smooth="yes"/>
			<point x="653" y="144"/>
			<point x="652" y="47"/>
		</contour>
	</outline>
	<anchor name="aboveLC" x="451" y="499"/>
	<anchor name="belowLC" x="454" y="-20"/>
</glyph>
<glyph name="n" format="2">
	<unicode hex="006E"/>
	<advance width="606"/>
	<outline>
		<contour>
			<point x="22" y="0" type="line"/>
			<point x="291" y="0" type="line"/>
			<point x="291" y="43" type="line"/>
			<point x="204" y="62" type="line"/>
			<point x="106" y="62" type="line"/>
			<point x="22" y="43" type="line"/>
		</contour>
		<contour>
			<point x="66" y="0" type="curve"/>
			<point x="254" y="0" type="line"/>
			<point x="251" y="47"/>
			<point x="250" y="146"/>
			<point x="250" y="209" type="curve" smooth="yes"/>
			<point x="250" y="376" type="line"/>
			<point x="250" y="379" type="line"/>
			<point x="245" y="484" type="line"/>
			<point x="227" y="495" type="line"/>
			<point x="14" y="430" type="line"/>
			<point x="14" y="395" type="line"/>
			<point x="67" y="384" type="line"/>
			<point x="69" y="342"/>
			<point x="69" y="318"/>
			<point x="69" y="260" type="curve" smooth="yes"/>
			<point x="69" y="209" type="line" smooth="yes"/>
			<point x="69" y="146"/>
			<point x="69" y="47"/>
		</contour>
		<contour>
			<point x="319" y="0" type="line"/>
			<point x="588" y="0" type="line"/>
			<point x="588" y="43" type="line"/>
			<point x="497" y="62" type="line"/>
			<point x="400" y="62" type="line"/>
			<point x="319" y="43" type="line"/>
		</contour>
		<contour>
			<point x="360" y="0" type="curve"/>
			<point x="548" y="0" type="line"/>
			<point x="545" y="47"/>
			<point x="544" y="144"/>
			<point x="544" y="209" type="curve" smooth="yes"/>
			<point x="544" y="333" type="line" smooth="yes"/>
			<point x="544" y="440"/>
			<point x="484" y="495"/>
			<point x="400" y="495" type="curve" smooth="yes"/>
			<point x="336" y="495"/>
			<point x="289" y="472"/>
			<point x="229" y="387" type="curve"/>
			<point x="206" y="387" type="line"/>
			<point x="206" y="323" type="line"/>
			<point x="238" y="367"/>
			<point x="286" y="394"/>
			<point x="317" y="394" type="curve" smooth="yes"/>
			<point x="349" y="394"/>
			<point x="363" y="374"/>
			<point x="363" y="322" type="curve" smooth="yes"/>
			<point x="363" y="209" type="line" smooth="yes"/>
			<point x="363" y="144"/>
			<point x="363" y="47"/>
		</contour>
	</outline>
	<anchor name="aboveLC" x="322" y="499"/>
	<anchor name="belowLC" x="308" y="-20"/>
</glyph>
<glyph name="o" format="2">
	<unicode hex="006F"/>
	<advance width="562"/>
	<outline>
		<contour>
			<point x="281" y="-16" type="curve" smooth="yes"/>
			<point x="444" y="-16"/>
			<point x="538" y="93"/>
			<point x="538" y="242" type="curve" smooth="yes"/>
			<point x="538" y="391"/>
			<point x="437" y="495"/>
			<point x="281" y="495" type="curve" smooth="yes"/>
			<point x="130" y="495"/>
			<point x="24" y="388"/>
			<point x="24" y="242" type="curve" smooth="yes"/>
			<point x="24" y="95"/>
			<point x="112" y="-16"/>
		</contour>
		<contour>
			<point x="281" y="31" type="curve" smooth="yes"/>
			<point x="237" y="31"/>
			<point x="216" y="84"/>
			<point x="216" y="240" type="curve" smooth="yes"/>
			<point x="216" y="394"/>
			<point x="237" y="448"/>
			<point x="281" y="448" type="curve" smooth="yes"/>
			<point x="325" y="448"/>
			<point x="346" y="394"/>
			<point x="346" y="240" type="curve" smooth="yes"/>
			<point x="346" y="85"/>
			<point x="325" y="31"/>
		</contour>
	</outline>
	<anchor name="aboveLC" x="281" y="499"/>
	<anchor name="belowLC" x="281" y="-20"/>
	<anchor name="hornLC" x="402" y="376"/>
	<anchor name="ogonek" x="361" y="0"/>
</glyph>
<glyph name="p" format="2">
	<unicode hex="0070"/>
	<advance width="602"/>
	<outline>
		<contour>
			<point x="25" y="-227" type="line"/>
			<point x="306" y="-227" type="line"/>
			<point x="306" y="-184" type="line"/>
			<point x="229" y="-165" type="line"/>
			<point x="111" y="-165" type="line"/>
			<point x="25" y="-184" type="line"/>
		</contour>
		<contour>
			<point x="68" y="-227" type="curve"/>
			<point x="254" y="-227" type="line"/>
			<point x="251" y="-144"/>
			<point x="250" y="-67"/>
			<point x="250" y="-4" type="curve" smooth="yes"/>
			<point x="250" y="72" type="line"/>
			<point x="253" y="84" type="line"/>
			<point x="253" y="393" type="line"/>
			<point x="250" y="408" type="line"/>
			<point x="246" y="485" type="line"/>
			<point x="229" y="495" type="line"/>
			<point x="17" y="430" type="line"/>
			<point x="17" y="395" type="line"/>
			<point x="70" y="384" type="line"/>
			<point x="72" y="342"/>
			<point x="72" y="318"/>
			<point x="72" y="260" type="curve" smooth="yes"/>
			<point x="72" y="-4" type="line" smooth="yes"/>
			<point x="72" y="-67"/>
			<point x="72" y="-144"/>
		</contour>
		<contour>
			<point x="372" y="-16" type="curve" smooth="yes"/>
			<point x="483" y="-16"/>
			<point x="578" y="83"/>
			<point x="578" y="246" type="curve" smooth="yes"/>
			<point x="578" y="410"/>
			<point x="497" y="495"/>
			<point x="389" y="495" type="curve" smooth="yes"/>
			<point x="317" y="495"/>
			<point x="263" y="459"/>
			<point x="220" y="390" type="curve"/>
			<point x="190" y="390" type="line"/>
			<point x="198" y="325" type="line"/>
			<point x="216" y="346"/>
			<point x="252" y="402"/>
			<point x="301" y="402" type="curve" smooth="yes"/>
			<point x="352" y="402"/>
			<point x="386" y="359"/>
			<point x="386" y="243" type="curve" smooth="yes"/>
			<point x="386" y="126"/>
			<point x="351" y="75"/>
			<point x="301" y="75" type="curve" smooth="yes"/>
			<point x="257" y="75"/>
			<point x="238" y="104"/>
			<point x="205" y="149" type="curve"/>
			<point x="197" y="88" type="line"/>
			<point x="219" y="88" type="line"/>
			<point x="254" y="20"/>
			<point x="300" y="-16"/>
		</contour>
	</outline>
	<anchor name="aboveLC" x="295" y="499"/>
	<anchor name="belowLC" x="167" y="-247"/>
</glyph>
<glyph name="q" format="2">
	<unicode hex="0071"/>
	<advance width="577"/>
	<outline>
		<contour>
			<point x="293" y="-227" type="line"/>
			<point x="569" y="-227" type="line"/>
			<point x="569" y="-184" type="line"/>
			<point x="487" y="-165" type="line"/>
			<point x="371" y="-165" type="line"/>
			<point x="293" y="-184" type="line"/>
		</contour>
		<contour>
			<point x="213" y="-16" type="curve" smooth="yes"/>
			<point x="285" y="-16"/>
			<point x="339" y="18"/>
			<point x="380" y="90" type="curve"/>
			<point x="408" y="90" type="line"/>
			<point x="397" y="151" type="line"/>
			<point x="373" y="112"/>
			<point x="343" y="77"/>
			<point x="302" y="77" type="curve" smooth="yes"/>
			<point x="251" y="77"/>
			<point x="216" y="127"/>
			<point x="216" y="235" type="curve" smooth="yes"/>
			<point x="216" y="352"/>
			<point x="252" y="404"/>
			<point x="306" y="404" type="curve" smooth="yes"/>
			<point x="339" y="404"/>
			<point x="368" y="387"/>
			<point x="401" y="345" type="curve"/>
			<point x="412" y="401" type="line"/>
			<point x="386" y="401" type="line"/>
			<point x="347" y="466"/>
			<point x="303" y="495"/>
			<point x="244" y="495" type="curve" smooth="yes"/>
			<point x="125" y="495"/>
			<point x="24" y="397"/>
			<point x="24" y="231" type="curve" smooth="yes"/>
			<point x="24" y="67"/>
			<point x="105" y="-16"/>
		</contour>
		<contour>
			<point x="345" y="-227" type="curve"/>
			<point x="531" y="-227" type="line"/>
			<point x="528" y="-162"/>
			<point x="527" y="-87"/>
			<point x="527" y="-18" type="curve" smooth="yes"/>
			<point x="527" y="348" type="line"/>
			<point x="531" y="485" type="line"/>
			<point x="501" y="495" type="line"/>
			<point x="346" y="422" type="line"/>
			<point x="346" y="420" type="line"/>
			<point x="346" y="82" type="line"/>
			<point x="349" y="71" type="line"/>
			<point x="349" y="-18" type="line" smooth="yes"/>
			<point x="349" y="-87"/>
			<point x="348" y="-162"/>
		</contour>
	</outline>
	<anchor name="aboveLC" x="324" y="499"/>
	<anchor name="belowLC" x="435" y="-247"/>
</glyph>
<glyph name="r" format="2">
	<unicode hex="0072"/>
	<advance width="471"/>
	<outline>
		<contour>
			<point x="21" y="0" type="line"/>
			<point x="322" y="0" type="line"/>
			<point x="322" y="43" type="line"/>
			<point x="233" y="62" type="line"/>
			<point x="108" y="62" type="line"/>
			<point x="21" y="43" type="line"/>
		</contour>
		<contour>
			<point x="66" y="0" type="curve"/>
			<point x="254" y="0" type="line"/>
			<point x="251" y="47"/>
			<point x="250" y="146"/>
			<point x="250" y="209" type="curve" smooth="yes"/>
			<point x="250" y="360" type="line"/>
			<point x="250" y="362" type="line"/>
			<point x="245" y="484" type="line"/>
			<point x="227" y="495" type="line"/>
			<point x="14" y="430" type="line"/>
			<point x="14" y="395" type="line"/>
			<point x="67" y="384" type="line"/>
			<point x="69" y="342"/>
			<point x="69" y="319"/>
			<point x="69" y="261" type="curve" smooth="yes"/>
			<point x="69" y="209" type="line" smooth="yes"/>
			<point x="69" y="146"/>
			<point x="69" y="47"/>
		</contour>
		<contour>
			<point x="249" y="276" type="line"/>
			<point x="258" y="327"/>
			<point x="293" y="380"/>
			<point x="318" y="404" type="curve"/>
			<point x="286" y="423" type="line"/>
			<point x="311" y="383" type="line" smooth="yes"/>
			<point x="335" y="342"/>
			<point x="361" y="326"/>
			<point x="394" y="326" type="curve" smooth="yes"/>
			<point x="434" y="326"/>
			<point x="467" y="355"/>
			<point x="470" y="410" type="curve"/>
			<point x="463" y="468"/>
			<point x="428" y="495"/>
			<point x="380" y="495" type="curve" smooth="yes"/>
			<point x="324" y="495"/>
			<point x="266" y="444"/>
			<point x="242" y="338" type="curve"/>
			<point x="214" y="338" type="line"/>
		</contour>
	</outline>
	<anchor name="aboveLC" x="279" y="499"/>
	<anchor name="belowLC" x="168" y="-20"/>
</glyph>
<glyph name="s" format="2">
	<unicode hex="0073"/>
	<advance width="445"/>
	<outline>
		<contour>
			<point x="199" y="-16" type="curve" smooth="yes"/>
			<point x="337" y="-16"/>
			<point x="424" y="41"/>
			<point x="424" y="156" type="curve" smooth="yes"/>
			<point x="424" y="238"/>
			<point x="380" y="286"/>
			<point x="298" y="310" type="curve" smooth="yes"/>
			<point x="250" y="324" type="line" smooth="yes"/>
			<point x="188" y="344"/>
			<point x="168" y="363"/>
			<point x="168" y="392" type="curve" smooth="yes"/>
			<point x="168" y="428"/>
			<point x="197" y="446"/>
			<point x="236" y="446" type="curve" smooth="yes"/>
			<point x="281" y="446"/>
			<point x="299" y="438"/>
			<point x="331" y="416" type="curve"/>
			<point x="331" y="467" type="line"/>
			<point x="279" y="467" type="line"/>
			<point x="318" y="341" type="line"/>
			<point x="389" y="341" type="line"/>
			<point x="395" y="456" type="line"/>
			<point x="345" y="481"/>
			<point x="298" y="495"/>
			<point x="240" y="495" type="curve" smooth="yes"/>
			<point x="101" y="495"/>
			<point x="28" y="424"/>
			<point x="28" y="327" type="curve" smooth="yes"/>
			<point x="28" y="246"/>
			<point x="75" y="197"/>
			<point x="147" y="175" type="curve" smooth="yes"/>
			<point x="196" y="161" type="line" smooth="yes"/>
			<point x="256" y="142"/>
			<point x="278" y="123"/>
			<point x="278" y="90" type="curve" smooth="yes"/>
			<point x="278" y="50"/>
			<point x="247" y="33"/>
			<point x="198" y="33" type="curve" smooth="yes"/>
			<point x="153" y="33"/>
			<point x="123" y="47"/>
			<point x="80" y="71" type="curve"/>
			<point x="80" y="21" type="line"/>
			<point x="131" y="21" type="line"/>
			<point x="98" y="158" type="line"/>
			<point x="28" y="158" type="line"/>
			<point x="24" y="32" type="line"/>
			<point x="75" y="0"/>
			<point x="134" y="-16"/>
		</contour>
	</outline>
	<anchor name="aboveLC" x="238" y="499"/>
	<anchor name="baseLC" x="210" y="0"/>
	<anchor name="belowLC" x="211" y="-20"/>
</glyph>
<glyph name="t" format="2">
	<unicode hex="0074"/>
	<advance width="366"/>
	<outline>
		<contour>
			<point x="161" y="416" type="line"/>
			<point x="343" y="416" type="line"/>
			<point x="343" y="479" type="line"/>
			<point x="161" y="479" type="line"/>
		</contour>
		<contour>
			<point x="220" y="-16" type="curve" smooth="yes"/>
			<point x="300" y="-16"/>
			<point x="347" y="16"/>
			<point x="374" y="74" type="curve"/>
			<point x="351" y="94" type="line"/>
			<point x="334" y="79"/>
			<point x="320" y="72"/>
			<point x="300" y="72" type="curve" smooth="yes"/>
			<point x="272" y="72"/>
			<point x="250" y="91"/>
			<point x="250" y="136" type="curve" smooth="yes"/>
			<point x="250" y="444" type="line"/>
			<point x="250" y="462" type="line"/>
			<point x="251" y="624" type="line"/>
			<point x="150" y="624" type="line"/>
			<point x="64" y="449" type="line"/>
			<point x="119" y="487" type="line"/>
			<point x="13" y="471" type="line"/>
			<point x="13" y="416" type="line"/>
			<point x="69" y="416" type="line"/>
			<point x="68" y="241" type="line" smooth="yes"/>
			<point x="68" y="198"/>
			<point x="68" y="170"/>
			<point x="68" y="129" type="curve" smooth="yes"/>
			<point x="68" y="26"/>
			<point x="123" y="-16"/>
		</contour>
	</outline>
	<anchor name="aboveLC" x="192" y="604"/>
	<anchor name="baseLC" x="220" y="0"/>
	<anchor name="belowLC" x="218" y="-20"/>
</glyph>
<glyph name="u" format="2">
	<unicode hex="0075"/>
	<advance width="601"/>
	<outline>
		<contour>
			<point x="204" y="-16" type="curve" smooth="yes"/>
			<point x="287" y="-16"/>
			<point x="349" y="35"/>
			<point x="391" y="121" type="curve"/>
			<point x="411" y="121" type="line"/>
			<point x="393" y="163" type="line"/>
			<point x="369" y="121"/>
			<point x="325" y="84"/>
			<point x="292" y="84" type="curve" smooth="yes"/>
			<point x="264" y="84"/>
			<point x="246" y="99"/>
			<point x="246" y="150" type="curve" smooth="yes"/>
			<point x="246" y="339" type="line"/>
			<point x="251" y="481" type="line"/>
			<point x="233" y="491" type="line"/>
			<point x="17" y="454" type="line"/>
			<point x="17" y="415" type="line"/>
			<point x="102" y="396" type="line"/>
			<point x="68" y="430" type="line"/>
			<point x="63" y="162" type="line" smooth="yes"/>
			<point x="61" y="31"/>
			<point x="118" y="-16"/>
		</contour>
		<contour>
			<point x="362" y="-13" type="line"/>
			<point x="585" y="-1" type="line"/>
			<point x="585" y="42" type="line"/>
			<point x="540" y="52" type="line"/>
			<point x="540" y="339" type="line"/>
			<point x="543" y="481" type="line"/>
			<point x="526" y="491" type="line"/>
			<point x="312" y="450" type="line"/>
			<point x="312" y="415" type="line"/>
			<point x="360" y="405" type="line"/>
			<point x="358" y="99" type="line"/>
			<point x="358" y="98" type="line"/>
		</contour>
	</outline>
	<anchor name="aboveLC" x="304" y="499"/>
	<anchor name="belowLC" x="307" y="-20"/>
	<anchor name="hornLC" x="488" y="445"/>
	<anchor name="ogonek" x="490" y="0"/>
</glyph>
<glyph name="v" format="2">
	<unicode hex="0076"/>
	<advance width="525"/>
	<outline>
		<contour>
			<point x="217" y="0" type="line"/>
			<point x="301" y="0" type="line"/>
			<point x="482" y="479" type="line"/>
			<point x="418" y="479" type="line"/>
			<point x="315" y="172" type="line"/>
			<point x="311" y="159" type="line"/>
			<point x="330" y="159" type="line"/>
			<point x="214" y="479" type="line"/>
			<point x="21" y="479" type="line"/>
		</contour>
		<contour>
			<point x="-5" y="439" type="line"/>
			<point x="77" y="421" type="line"/>
			<point x="210" y="421" type="line"/>
			<point x="290" y="439" type="line"/>
			<point x="290" y="479" type="line"/>
			<point x="-5" y="479" type="line"/>
		</contour>
		<contour>
			<point x="343" y="439" type="line"/>
			<point x="421" y="425" type="line"/>
			<point x="440" y="425" type="line"/>
			<point x="519" y="439" type="line"/>
			<point x="519" y="479" type="line"/>
			<point x="343" y="479" type="line"/>
		</contour>
	</outline>
	<anchor name="aboveLC" x="317" y="499"/>
	<anchor name="belowLC" x="262" y="-20"/>
</glyph>
<glyph name="w" format="2">
	<unicode hex="0077"/>
	<advance width="784"/>
	<outline>
		<contour>
			<point x="188" y="0" type="line"/>
			<point x="276" y="0" type="line"/>
			<point x="385" y="323" type="line"/>
			<point x="390" y="336" type="line"/>
			<point x="369" y="336" type="line"/>
			<point x="485" y="0" type="line"/>
			<point x="572" y="0" type="line"/>
			<point x="739" y="479" type="line"/>
			<point x="676" y="479" type="line"/>
			<point x="579" y="177" type="line"/>
			<point x="574" y="164" type="line"/>
			<point x="592" y="164" type="line"/>
			<point x="496" y="479" type="line"/>
			<point x="384" y="479" type="line"/>
			<point x="284" y="172" type="line"/>
			<point x="280" y="159" type="line"/>
			<point x="298" y="159" type="line"/>
			<point x="204" y="479" type="line"/>
			<point x="18" y="479" type="line"/>
		</contour>
		<contour>
			<point x="-5" y="439" type="line"/>
			<point x="84" y="424" type="line"/>
			<point x="165" y="424" type="line"/>
			<point x="270" y="439" type="line"/>
			<point x="270" y="479" type="line"/>
			<point x="-5" y="479" type="line"/>
		</contour>
		<contour>
			<point x="315" y="439" type="line"/>
			<point x="413" y="425" type="line"/>
			<point x="467" y="424" type="line"/>
			<point x="559" y="439" type="line"/>
			<point x="559" y="479" type="line"/>
			<point x="315" y="479" type="line"/>
		</contour>
		<contour>
			<point x="607" y="439" type="line"/>
			<point x="686" y="428" type="line"/>
			<point x="700" y="428" type="line"/>
			<point x="778" y="439" type="line"/>
			<point x="778" y="479" type="line"/>
			<point x="607" y="479" type="line"/>
		</contour>
	</outline>
	<anchor name="aboveLC" x="440" y="499"/>
	<anchor name="belowLC" x="379" y="-20"/>
</glyph>
<glyph name="x" format="2">
	<unicode hex="0078"/>
	<advance width="548"/>
	<outline>
		<contour>
			<point x="12" y="0" type="line"/>
			<point x="187" y="0" type="line"/>
			<point x="187" y="43" type="line"/>
			<point x="121" y="55" type="line"/>
			<point x="92" y="55" type="line"/>
			<point x="12" y="43" type="line"/>
		</contour>
		<contour>
			<point x="40" y="0" type="line"/>
			<point x="108" y="0" type="line"/>
			<point x="194" y="134" type="line"/>
			<point x="279" y="268" type="line"/>
			<point x="279" y="270" type="line"/>
			<point x="246" y="294" type="line"/>
		</contour>
		<contour>
			<point x="240" y="0" type="line"/>
			<point x="536" y="0" type="line"/>
			<point x="536" y="43" type="line"/>
			<point x="437" y="62" type="line"/>
			<point x="362" y="62" type="line"/>
			<point x="240" y="43" type="line"/>
		</contour>
		<contour>
			<point x="303" y="201" type="line"/>
			<point x="499" y="479" type="line"/>
			<point x="432" y="479" type="line"/>
			<point x="353" y="354" type="line"/>
			<point x="274" y="228" type="line"/>
			<point x="274" y="226" type="line"/>
		</contour>
		<contour>
			<point x="311" y="0" type="line"/>
			<point x="520" y="0" type="line"/>
			<point x="347" y="292" type="line"/>
			<point x="238" y="479" type="line"/>
			<point x="33" y="479" type="line"/>
			<point x="200" y="195" type="line"/>
		</contour>
		<contour>
			<point x="13" y="439" type="line"/>
			<point x="107" y="424" type="line"/>
			<point x="217" y="424" type="line"/>
			<point x="309" y="439" type="line"/>
			<point x="309" y="479" type="line"/>
			<point x="13" y="479" type="line"/>
		</contour>
		<contour>
			<point x="356" y="439" type="line"/>
			<point x="420" y="425" type="line"/>
			<point x="448" y="425" type="line"/>
			<point x="518" y="439" type="line"/>
			<point x="518" y="479" type="line"/>
			<point x="356" y="479" type="line"/>
		</contour>
	</outline>
	<anchor name="aboveLC" x="290" y="499"/>
	<anchor name="belowLC" x="251" y="-20"/>
</glyph>
<glyph name="y" format="2">
	<unicode hex="0079"/>
	<advance width="530"/>
	<outline>
		<contour>
			<point x="107" y="-234" type="curve" smooth="yes"/>
			<point x="197" y="-234"/>
			<point x="239" y="-174"/>
			<point x="279" y="-69" type="curve" smooth="yes"/>
			<point x="486" y="479" type="line"/>
			<point x="428" y="479" type="line"/>
			<point x="368" y="307" type="line"/>
			<point x="279" y="53" type="line"/>
			<point x="275" y="41" type="line"/>
			<point x="242" y="-53" type="line" smooth="yes"/>
			<point x="217" y="-121"/>
			<point x="182" y="-162"/>
			<point x="145" y="-188" type="curve"/>
			<point x="172" y="-202" type="line"/>
			<point x="203" y="-186" type="line"/>
			<point x="176" y="-143" type="line" smooth="yes"/>
			<point x="146" y="-99"/>
			<point x="112" y="-90"/>
			<point x="84" y="-90" type="curve" smooth="yes"/>
			<point x="42" y="-90"/>
			<point x="8" y="-114"/>
			<point x="1" y="-159" type="curve"/>
			<point x="8" y="-205"/>
			<point x="57" y="-234"/>
		</contour>
		<contour>
			<point x="252" y="-67" type="line"/>
			<point x="324" y="104" type="line"/>
			<point x="332" y="150" type="line"/>
			<point x="214" y="479" type="line"/>
			<point x="21" y="479" type="line"/>
		</contour>
		<contour>
			<point x="-1" y="439" type="line"/>
			<point x="81" y="423" type="line"/>
			<point x="216" y="423" type="line"/>
			<point x="294" y="440" type="line"/>
			<point x="294" y="479" type="line"/>
			<point x="-1" y="479" type="line"/>
		</contour>
		<contour>
			<point x="350" y="439" type="line"/>
			<point x="426" y="425" type="line"/>
			<point x="442" y="425" type="line"/>
			<point x="524" y="439" type="line"/>
			<point x="524" y="479" type="line"/>
			<point x="350" y="479" type="line"/>
		</contour>
	</outline>
	<anchor name="aboveLC" x="309" y="499"/>
	<anchor name="belowLC" x="174" y="-244"/>
</glyph>
<glyph name="z" format="2">
	<unicode hex="007A"/>
	<advance width="461"/>
	<outline>
		<contour>
			<point x="17" y="0" type="line"/>
			<point x="439" y="0" type="line"/>
			<point x="448" y="166" type="line"/>
			<point x="375" y="166" type="line"/>
			<point x="330" y="18" type="line"/>
			<point x="370" y="43" type="line"/>
			<point x="280" y="43" type="line"/>
			<point x="212" y="43" type="line"/>
			<point x="207" y="53" type="line"/>
			<point x="205" y="18" type="line"/>
			<point x="440" y="446" type="line"/>
			<point x="440" y="479" type="line"/>
			<point x="30" y="479" type="line"/>
			<point x="22" y="325" type="line"/>
			<point x="94" y="321" type="line"/>
			<point x="138" y="462" type="line"/>
			<point x="100" y="437" type="line"/>
			<point x="187" y="437" type="line"/>
			<point x="253" y="437" type="line"/>
			<point x="260" y="429" type="line"/>
			<point x="260" y="462" type="line"/>
			<point x="17" y="34" type="line"/>
		</contour>
	</outline>
	<anchor name="aboveLC" x="237" y="499"/>
	<anchor name="belowLC" x="241" y="-20"/>
</glyph>
<glyph name="braceleft" format="2">
	<unicode hex="007B"/>
	<advance width="336"/>
	<outline>
		<contour>
			<point x="42" y="252" type="line"/>
			<point x="126" y="233"/>
			<point x="142" y="211"/>
			<point x="142" y="174" type="curve" smooth="yes"/>
			<point x="142" y="102"/>
			<point x="82" y="45"/>
			<point x="82" y="-31" type="curve" smooth="yes"/>
			<point x="82" y="-123"/>
			<point x="164" y="-160"/>
			<point x="275" y="-160" type="curve" smooth="yes"/>
			<point x="304" y="-160" type="line"/>
			<point x="304" y="-112" type="line"/>
			<point x="277" y="-109" type="line" smooth="yes"/>
			<point x="239" y="-104"/>
			<point x="219" y="-76"/>
			<point x="219" y="-35" type="curve" smooth="yes"/>
			<point x="219" y="13"/>
			<point x="249" y="80"/>
			<point x="249" y="139" type="curve" smooth="yes"/>
			<point x="249" y="221"/>
			<point x="192" y="280"/>
			<point x="75" y="288" type="curve"/>
			<point x="75" y="266" type="line"/>
			<point x="192" y="274"/>
			<point x="249" y="333"/>
			<point x="249" y="415" type="curve" smooth="yes"/>
			<point x="249" y="474"/>
			<point x="219" y="541"/>
			<point x="219" y="589" type="curve" smooth="yes"/>
			<point x="219" y="630"/>
			<point x="239" y="658"/>
			<point x="277" y="662" type="curve" smooth="yes"/>
			<point x="304" y="666" type="line"/>
			<point x="304" y="714" type="line"/>
			<point x="275" y="714" type="line" smooth="yes"/>
			<point x="164" y="714"/>
			<point x="82" y="676"/>
			<point x="82" y="584" type="curve" smooth="yes"/>
			<point x="82" y="508"/>
			<point x="142" y="451"/>
			<point x="142" y="379" type="curve" smooth="yes"/>
			<point x="142" y="343"/>
			<point x="126" y="321"/>
			<point x="42" y="301" type="curve"/>
		</contour>
	</outline>
</glyph>
<glyph name="bar" format="2">
	<unicode hex="007C"/>
	<advance width="268"/>
	<outline>
		<contour>
			<point x="84" y="-251" type="line"/>
			<point x="183" y="-251" type="line"/>
			<point x="183" y="749" type="line"/>
			<point x="84" y="749" type="line"/>
		</contour>
	</outline>
</glyph>
<glyph name="asciitilde" format="2">
	<unicode hex="007E"/>
	<advance width="539"/>
	<outline>
		<contour>
			<point x="290" y="382" type="curve" smooth="yes"/>
			<point x="251" y="420"/>
			<point x="212" y="437"/>
			<point x="172" y="437" type="curve" smooth="yes"/>
			<point x="99" y="437"/>
			<point x="44" y="389"/>
			<point x="41" y="261" type="curve"/>
			<point x="115" y="253" type="line"/>
			<point x="120" y="327"/>
			<point x="141" y="349"/>
			<point x="169" y="349" type="curve" smooth="yes"/>
			<point x="193" y="349"/>
			<point x="211" y="337"/>
			<point x="247" y="302" type="curve" smooth="yes"/>
			<point x="287" y="264"/>
			<point x="323" y="247"/>
			<point x="366" y="247" type="curve" smooth="yes"/>
			<point x="437" y="247"/>
			<point x="496" y="293"/>
			<point x="498" y="423" type="curve"/>
			<point x="424" y="431" type="line"/>
			<point x="419" y="357"/>
			<point x="399" y="335"/>
			<point x="371" y="335" type="curve" smooth="yes"/>
			<point x="350" y="335"/>
			<point x="327" y="346"/>
		</contour>
	</outline>
</glyph>
<glyph name="cent" format="2">
	<unicode hex="00A2"/>
	<advance width="549"/>
	<outline>
		<contour>
			<point x="352" y="-45" type="line"/>
			<point x="352" y="649" type="line"/>
			<point x="294" y="649" type="line"/>
			<point x="294" y="-45" type="line"/>
		</contour>
		<contour>
			<point x="330" y="519" type="curve" smooth="yes"/>
			<point x="378" y="519"/>
			<point x="399" y="515"/>
			<point x="437" y="499" type="curve"/>
			<point x="376" y="538" type="line"/>
			<point x="389" y="454" type="line" smooth="yes"/>
			<point x="400" y="382"/>
			<point x="430" y="366"/>
			<point x="470" y="366" type="curve" smooth="yes"/>
			<point x="502" y="366"/>
			<point x="520" y="383"/>
			<point x="530" y="416" type="curve"/>
			<point x="526" y="502"/>
			<point x="449" y="565"/>
			<point x="331" y="565" type="curve" smooth="yes"/>
			<point x="147" y="565"/>
			<point x="32" y="467"/>
			<point x="32" y="304" type="curve" smooth="yes"/>
			<point x="32" y="142"/>
			<point x="149" y="47"/>
			<point x="311" y="47" type="curve" smooth="yes"/>
			<point x="408" y="47"/>
			<point x="481" y="90"/>
			<point x="523" y="162" type="curve"/>
			<point x="490" y="194" type="line"/>
			<point x="452" y="159"/>
			<point x="406" y="133"/>
			<point x="345" y="133" type="curve" smooth="yes"/>
			<point x="268" y="133"/>
			<point x="207" y="204"/>
			<point x="207" y="322" type="curve" smooth="yes"/>
			<point x="207" y="459"/>
			<point x="263" y="519"/>
		</contour>
	</outline>
</glyph>
<glyph name="currency" format="2">
	<unicode hex="00A4"/>
	<advance width="549"/>
	<outline>
		<contour>
			<point x="389" y="420" type="line"/>
			<point x="444" y="448" type="line" smooth="yes"/>
			<point x="481" y="467"/>
			<point x="522" y="490"/>
			<point x="522" y="526" type="curve" smooth="yes"/>
			<point x="522" y="551"/>
			<point x="499" y="573"/>
			<point x="475" y="573" type="curve" smooth="yes"/>
			<point x="439" y="573"/>
			<point x="417" y="533"/>
			<point x="399" y="496" type="curve" smooth="yes"/>
			<point x="370" y="439" type="line"/>
		</contour>
		<contour>
			<point x="174" y="322" type="curve" smooth="yes"/>
			<point x="174" y="384"/>
			<point x="221" y="429"/>
			<point x="275" y="429" type="curve" smooth="yes"/>
			<point x="331" y="429"/>
			<point x="375" y="384"/>
			<point x="375" y="322" type="curve" smooth="yes"/>
			<point x="375" y="259"/>
			<point x="331" y="215"/>
			<point x="275" y="215" type="curve" smooth="yes"/>
			<point x="221" y="215"/>
			<point x="174" y="259"/>
		</contour>
		<contour>
			<point x="97" y="322" type="curve" smooth="yes"/>
			<point x="97" y="218"/>
			<point x="178" y="144"/>
			<point x="275" y="144" type="curve" smooth="yes"/>
			<point x="372" y="144"/>
			<point x="452" y="219"/>
			<point x="452" y="322" type="curve" smooth="yes"/>
			<point x="452" y="427"/>
			<point x="372" y="500"/>
			<point x="275" y="500" type="curve" smooth="yes"/>
			<point x="178" y="500"/>
			<point x="97" y="427"/>
		</contour>
		<contour>
			<point x="178" y="438" type="line"/>
			<point x="150" y="496" type="line" smooth="yes"/>
			<point x="132" y="533"/>
			<point x="110" y="573"/>
			<point x="74" y="573" type="curve" smooth="yes"/>
			<point x="49" y="573"/>
			<point x="28" y="551"/>
			<point x="28" y="526" type="curve" smooth="yes"/>
			<point x="28" y="490"/>
			<point x="68" y="466"/>
			<point x="105" y="448" type="curve" smooth="yes"/>
			<point x="160" y="419" type="line"/>
		</contour>
		<contour>
			<point x="160" y="224" type="line"/>
			<point x="105" y="196" type="line" smooth="yes"/>
			<point x="68" y="177"/>
			<point x="28" y="154"/>
			<point x="28" y="118" type="curve" smooth="yes"/>
			<point x="28" y="93"/>
			<point x="50" y="71"/>
			<point x="74" y="71" type="curve" smooth="yes"/>
			<point x="110" y="71"/>
			<point x="132" y="111"/>
			<point x="150" y="148" type="curve" smooth="yes"/>
			<point x="179" y="205" type="line"/>
		</contour>
		<contour>
			<point x="371" y="206" type="line"/>
			<point x="399" y="148" type="line" smooth="yes"/>
			<point x="418" y="111"/>
			<point x="439" y="71"/>
			<point x="475" y="71" type="curve" smooth="yes"/>
			<point x="500" y="71"/>
			<point x="522" y="93"/>
			<point x="522" y="118" type="curve" smooth="yes"/>
			<point x="522" y="154"/>
			<point x="481" y="178"/>
			<point x="444" y="196" type="curve" smooth="yes"/>
			<point x="390" y="225" type="line"/>
		</contour>
	</outline>
</glyph>
<glyph name="yen" format="2">
	<unicode hex="00A5"/>
	<advance width="549"/>
	<outline>
		<contour>
			<point x="336" y="228" type="line"/>
			<point x="526" y="625" type="line"/>
			<point x="458" y="625" type="line"/>
			<point x="325" y="325" type="line"/>
			<point x="318" y="309" type="line"/>
			<point x="344" y="309" type="line"/>
			<point x="206" y="625" type="line"/>
			<point x="17" y="625" type="line"/>
			<point x="214" y="228" type="line"/>
		</contour>
		<contour>
			<point x="119" y="562" type="line"/>
			<point x="170" y="562" type="line"/>
			<point x="301" y="577" type="line"/>
			<point x="301" y="625" type="line"/>
			<point x="-4" y="625" type="line"/>
			<point x="-4" y="577" type="line"/>
		</contour>
		<contour>
			<point x="237" y="62" type="line"/>
			<point x="106" y="48" type="line"/>
			<point x="106" y="0" type="line"/>
			<point x="444" y="0" type="line"/>
			<point x="444" y="48" type="line"/>
			<point x="313" y="62" type="line"/>
		</contour>
		<contour>
			<point x="187" y="186" type="line" smooth="yes"/>
			<point x="187" y="128"/>
			<point x="186" y="90"/>
			<point x="184" y="0" type="curve"/>
			<point x="367" y="0" type="line"/>
			<point x="364" y="89"/>
			<point x="364" y="128"/>
			<point x="364" y="186" type="curve" smooth="yes"/>
			<point x="364" y="300" type="line"/>
			<point x="187" y="300" type="line"/>
		</contour>
		<contour>
			<point x="445" y="564" type="line"/>
			<point x="482" y="564" type="line"/>
			<point x="552" y="577" type="line"/>
			<point x="552" y="625" type="line"/>
			<point x="366" y="625" type="line"/>
			<point x="366" y="577" type="line"/>
		</contour>
		<contour>
			<point x="64" y="146" type="line"/>
			<point x="487" y="146" type="line"/>
			<point x="487" y="196" type="line"/>
			<point x="64" y="196" type="line"/>
		</contour>
		<contour>
			<point x="64" y="265" type="line"/>
			<point x="487" y="265" type="line"/>
			<point x="487" y="316" type="line"/>
			<point x="64" y="316" type="line"/>
		</contour>
	</outline>
</glyph>
<glyph name="section" format="2">
	<unicode hex="00A7"/>
	<advance width="540"/>
	<outline>
		<contour>
			<point x="256" y="-111" type="curve" smooth="yes"/>
			<point x="385" y="-111"/>
			<point x="452" y="-46"/>
			<point x="452" y="34" type="curve" smooth="yes"/>
			<point x="452" y="99"/>
			<point x="423" y="131"/>
			<point x="375" y="162" type="curve"/>
			<point x="373" y="168" type="line"/>
			<point x="340" y="186"/>
			<point x="320" y="196"/>
			<point x="278" y="215" type="curve" smooth="yes"/>
			<point x="188" y="255"/>
			<point x="154" y="276"/>
			<point x="154" y="317" type="curve" smooth="yes"/>
			<point x="154" y="348"/>
			<point x="169" y="369"/>
			<point x="204" y="385" type="curve"/>
			<point x="187" y="432" type="line"/>
			<point x="187" y="420" type="line"/>
			<point x="100" y="394"/>
			<point x="47" y="340"/>
			<point x="47" y="267" type="curve" smooth="yes"/>
			<point x="47" y="183"/>
			<point x="104" y="142"/>
			<point x="215" y="93" type="curve" smooth="yes"/>
			<point x="294" y="58"/>
			<point x="335" y="38"/>
			<point x="335" y="-3" type="curve" smooth="yes"/>
			<point x="335" y="-39"/>
			<point x="311" y="-64"/>
			<point x="250" y="-64" type="curve" smooth="yes"/>
			<point x="214" y="-64"/>
			<point x="195" y="-61"/>
			<point x="169" y="-50" type="curve"/>
			<point x="226" y="-82" type="line"/>
			<point x="205" y="-17" type="line" smooth="yes"/>
			<point x="186" y="47"/>
			<point x="160" y="60"/>
			<point x="128" y="60" type="curve" smooth="yes"/>
			<point x="105" y="60"/>
			<point x="78" y="47"/>
			<point x="71" y="11" type="curve"/>
			<point x="76" y="-59"/>
			<point x="139" y="-111"/>
		</contour>
		<contour>
			<point x="285" y="671" type="curve" smooth="yes"/>
			<point x="156" y="671"/>
			<point x="90" y="606"/>
			<point x="90" y="522" type="curve" smooth="yes"/>
			<point x="90" y="463"/>
			<point x="118" y="428"/>
			<point x="166" y="398" type="curve"/>
			<point x="167" y="392" type="line"/>
			<point x="200" y="373"/>
			<point x="220" y="363"/>
			<point x="264" y="344" type="curve" smooth="yes"/>
			<point x="358" y="303"/>
			<point x="385" y="281"/>
			<point x="385" y="242" type="curve" smooth="yes"/>
			<point x="385" y="208"/>
			<point x="368" y="188"/>
			<point x="336" y="174" type="curve"/>
			<point x="354" y="130" type="line"/>
			<point x="355" y="140" type="line"/>
			<point x="442" y="166"/>
			<point x="494" y="221"/>
			<point x="494" y="292" type="curve" smooth="yes"/>
			<point x="494" y="378"/>
			<point x="436" y="418"/>
			<point x="324" y="467" type="curve" smooth="yes"/>
			<point x="246" y="502"/>
			<point x="206" y="523"/>
			<point x="206" y="564" type="curve" smooth="yes"/>
			<point x="206" y="599"/>
			<point x="230" y="624"/>
			<point x="291" y="624" type="curve" smooth="yes"/>
			<point x="327" y="624"/>
			<point x="345" y="622"/>
			<point x="371" y="612" type="curve"/>
			<point x="314" y="644" type="line"/>
			<point x="334" y="578" type="line" smooth="yes"/>
			<point x="353" y="514"/>
			<point x="380" y="502"/>
			<point x="412" y="502" type="curve" smooth="yes"/>
			<point x="435" y="502"/>
			<point x="462" y="514"/>
			<point x="468" y="550" type="curve"/>
			<point x="464" y="620"/>
			<point x="402" y="671"/>
		</contour>
	</outline>
</glyph>
<glyph name="copyright" format="2">
	<unicode hex="00A9"/>
	<advance width="740"/>
	<outline>
		<contour>
			<point x="371" y="-19" type="curve" smooth="yes"/>
			<point x="551" y="-19"/>
			<point x="711" y="117"/>
			<point x="711" y="326" type="curve" smooth="yes"/>
			<point x="711" y="536"/>
			<point x="551" y="671"/>
			<point x="371" y="671" type="curve" smooth="yes"/>
			<point x="191" y="671"/>
			<point x="30" y="536"/>
			<point x="30" y="326" type="curve" smooth="yes"/>
			<point x="30" y="117"/>
			<point x="191" y="-19"/>
		</contour>
		<contour>
			<point x="371" y="33" type="curve" smooth="yes"/>
			<point x="221" y="33"/>
			<point x="90" y="148"/>
			<point x="90" y="326" type="curve" smooth="yes"/>
			<point x="90" y="504"/>
			<point x="221" y="619"/>
			<point x="371" y="619" type="curve" smooth="yes"/>
			<point x="521" y="619"/>
			<point x="652" y="504"/>
			<point x="652" y="326" type="curve" smooth="yes"/>
			<point x="652" y="148"/>
			<point x="521" y="33"/>
		</contour>
		<contour>
			<point x="391" y="121" type="curve" smooth="yes"/>
			<point x="440" y="121"/>
			<point x="481" y="135"/>
			<point x="509" y="149" type="curve"/>
			<point x="513" y="249" type="line"/>
			<point x="474" y="249" type="line"/>
			<point x="440" y="146" type="line"/>
			<point x="486" y="188" type="line"/>
			<point x="463" y="172"/>
			<point x="437" y="159"/>
			<point x="412" y="159" type="curve" smooth="yes"/>
			<point x="358" y="159"/>
			<point x="310" y="208"/>
			<point x="310" y="327" type="curve" smooth="yes"/>
			<point x="310" y="446"/>
			<point x="359" y="497"/>
			<point x="413" y="497" type="curve" smooth="yes"/>
			<point x="436" y="497"/>
			<point x="459" y="486"/>
			<point x="483" y="467" type="curve"/>
			<point x="437" y="512" type="line"/>
			<point x="471" y="411" type="line"/>
			<point x="511" y="411" type="line"/>
			<point x="507" y="508" type="line"/>
			<point x="476" y="523"/>
			<point x="442" y="535"/>
			<point x="395" y="535" type="curve" smooth="yes"/>
			<point x="290" y="535"/>
			<point x="182" y="474"/>
			<point x="182" y="325" type="curve" smooth="yes"/>
			<point x="182" y="183"/>
			<point x="282" y="121"/>
		</contour>
	</outline>
</glyph>
<glyph name="logicalnot" format="2">
	<unicode hex="00AC"/>
	<advance width="539"/>
	<outline>
		<contour>
			<point x="32" y="318" type="line"/>
			<point x="461" y="318" type="line"/>
			<point x="419" y="360" type="line"/>
			<point x="419" y="146" type="line"/>
			<point x="507" y="146" type="line"/>
			<point x="507" y="402" type="line"/>
			<point x="32" y="402" type="line"/>
		</contour>
	</outline>
</glyph>
<glyph name="registered" format="2">
	<unicode hex="00AE"/>
	<advance width="474"/>
	<outline>
		<contour>
			<point x="348" y="435" type="line"/>
			<point x="302" y="440" type="line"/>
			<point x="328" y="421" type="line"/>
			<point x="321" y="466" type="line" smooth="yes"/>
			<point x="315" y="500"/>
			<point x="300" y="518"/>
			<point x="242" y="519" type="curve"/>
			<point x="243" y="516" type="line"/>
			<point x="302" y="518"/>
			<point x="322" y="542"/>
			<point x="322" y="566" type="curve" smooth="yes"/>
			<point x="322" y="596"/>
			<point x="296" y="615"/>
			<point x="240" y="615" type="curve" smooth="yes"/>
			<point x="192" y="615" type="line"/>
			<point x="192" y="596" type="line"/>
			<point x="228" y="596" type="line" smooth="yes"/>
			<point x="250" y="596"/>
			<point x="264" y="584"/>
			<point x="264" y="561" type="curve" smooth="yes"/>
			<point x="264" y="544"/>
			<point x="257" y="526"/>
			<point x="228" y="526" type="curve" smooth="yes"/>
			<point x="192" y="526" type="line"/>
			<point x="192" y="507" type="line"/>
			<point x="230" y="507" type="line" smooth="yes"/>
			<point x="246" y="507"/>
			<point x="252" y="495"/>
			<point x="254" y="478" type="curve" smooth="yes"/>
			<point x="258" y="448" type="line" smooth="yes"/>
			<point x="261" y="422"/>
			<point x="280" y="413"/>
			<point x="310" y="413" type="curve" smooth="yes"/>
			<point x="325" y="413"/>
			<point x="331" y="414"/>
			<point x="348" y="417" type="curve"/>
		</contour>
		<contour>
			<point x="184" y="440" type="line"/>
			<point x="141" y="435" type="line"/>
			<point x="141" y="417" type="line"/>
			<point x="245" y="417" type="line"/>
			<point x="245" y="435" type="line"/>
			<point x="202" y="440" type="line"/>
		</contour>
		<contour>
			<point x="184" y="592" type="line"/>
			<point x="198" y="592" type="line"/>
			<point x="198" y="615" type="line"/>
			<point x="141" y="615" type="line"/>
			<point x="141" y="597" type="line"/>
		</contour>
		<contour>
			<point x="77" y="511" type="curve" smooth="yes"/>
			<point x="77" y="613"/>
			<point x="149" y="673"/>
			<point x="237" y="673" type="curve" smooth="yes"/>
			<point x="325" y="673"/>
			<point x="396" y="613"/>
			<point x="396" y="511" type="curve" smooth="yes"/>
			<point x="396" y="409"/>
			<point x="325" y="347"/>
			<point x="237" y="347" type="curve" smooth="yes"/>
			<point x="149" y="347"/>
			<point x="77" y="409"/>
		</contour>
		<contour>
			<point x="161" y="417" type="line"/>
			<point x="223" y="417" type="line"/>
			<point x="223" y="615" type="line"/>
			<point x="161" y="615" type="line"/>
		</contour>
		<contour>
			<point x="30" y="511" type="curve" smooth="yes"/>
			<point x="30" y="384"/>
			<point x="126" y="305"/>
			<point x="237" y="305" type="curve" smooth="yes"/>
			<point x="349" y="305"/>
			<point x="444" y="384"/>
			<point x="444" y="511" type="curve" smooth="yes"/>
			<point x="444" y="638"/>
			<point x="349" y="715"/>
			<point x="237" y="715" type="curve" smooth="yes"/>
			<point x="126" y="715"/>
			<point x="30" y="638"/>
		</contour>
	</outline>
</glyph>
<glyph name="degree" format="2">
	<unicode hex="00B0"/>
	<advance width="328"/>
	<outline>
		<contour>
			<point x="164" y="450" type="curve" smooth="yes"/>
			<point x="119" y="450"/>
			<point x="86" y="480"/>
			<point x="86" y="534" type="curve" smooth="yes"/>
			<point x="86" y="588"/>
			<point x="119" y="619"/>
			<point x="164" y="619" type="curve" smooth="yes"/>
			<point x="209" y="619"/>
			<point x="242" y="588"/>
			<point x="242" y="534" type="curve" smooth="yes"/>
			<point x="242" y="480"/>
			<point x="209" y="450"/>
		</contour>
		<contour>
			<point x="164" y="398" type="curve" smooth="yes"/>
			<point x="234" y="398"/>
			<point x="299" y="449"/>
			<point x="299" y="534" type="curve" smooth="yes"/>
			<point x="299" y="619"/>
			<point x="234" y="671"/>
			<point x="164" y="671" type="curve" smooth="yes"/>
			<point x="94" y="671"/>
			<point x="29" y="619"/>
			<point x="29" y="534" type="curve" smooth="yes"/>
			<point x="29" y="449"/>
			<point x="94" y="398"/>
		</contour>
	</outline>
</glyph>
<glyph name="plusminus" format="2">
	<unicode hex="00B1"/>
	<advance width="539"/>
	<outline>
		<contour>
			<point x="225" y="131" type="line"/>
			<point x="313" y="131" type="line"/>
			<point x="313" y="562" type="line"/>
			<point x="225" y="562" type="line"/>
		</contour>
		<contour>
			<point x="507" y="307" type="line"/>
			<point x="507" y="392" type="line"/>
			<point x="32" y="392" type="line"/>
			<point x="32" y="307" type="line"/>
		</contour>
		<contour>
			<point x="507" y="0" type="line"/>
			<point x="507" y="84" type="line"/>
			<point x="32" y="84" type="line"/>
			<point x="32" y="0" type="line"/>
		</contour>
	</outline>
</glyph>
<glyph name="two.sups" format="2">
	<unicode hex="00B2"/>
	<advance width="372"/>
	<outline>
		<contour>
			<point x="37" y="415" type="line"/>
			<point x="336" y="415" type="line"/>
			<point x="336" y="507" type="line"/>
			<point x="112" y="507" type="line"/>
			<point x="112" y="520" type="line"/>
			<point x="88" y="485" type="line"/>
			<point x="164" y="529" type="line" smooth="yes"/>
			<point x="273" y="592"/>
			<point x="332" y="640"/>
			<point x="332" y="707" type="curve" smooth="yes"/>
			<point x="332" y="768"/>
			<point x="290" y="816"/>
			<point x="195" y="816" type="curve" smooth="yes"/>
			<point x="105" y="816"/>
			<point x="37" y="784"/>
			<point x="34" y="712" type="curve"/>
			<point x="42" y="694"/>
			<point x="60" y="684"/>
			<point x="78" y="684" type="curve" smooth="yes"/>
			<point x="100" y="684"/>
			<point x="123" y="694"/>
			<point x="130" y="739" type="curve" smooth="yes"/>
			<point x="139" y="801" type="line"/>
			<point x="89" y="774" type="line"/>
			<point x="113" y="786"/>
			<point x="129" y="787"/>
			<point x="149" y="787" type="curve" smooth="yes"/>
			<point x="186" y="787"/>
			<point x="211" y="761"/>
			<point x="211" y="709" type="curve" smooth="yes"/>
			<point x="211" y="648"/>
			<point x="177" y="606"/>
			<point x="118" y="549" type="curve" smooth="yes"/>
			<point x="37" y="471" type="line"/>
		</contour>
	</outline>
</glyph>
<glyph name="three.sups" format="2">
	<unicode hex="00B3"/>
	<advance width="372"/>
	<outline>
		<contour>
			<point x="170" y="403" type="curve" smooth="yes"/>
			<point x="283" y="403"/>
			<point x="343" y="451"/>
			<point x="343" y="518" type="curve" smooth="yes"/>
			<point x="343" y="583"/>
			<point x="300" y="617"/>
			<point x="196" y="623" type="curve"/>
			<point x="196" y="615" type="line"/>
			<point x="290" y="624"/>
			<point x="331" y="666"/>
			<point x="331" y="716" type="curve" smooth="yes"/>
			<point x="331" y="772"/>
			<point x="285" y="816"/>
			<point x="184" y="816" type="curve" smooth="yes"/>
			<point x="106" y="816"/>
			<point x="48" y="785"/>
			<point x="48" y="716" type="curve"/>
			<point x="56" y="703"/>
			<point x="71" y="695"/>
			<point x="87" y="695" type="curve" smooth="yes"/>
			<point x="110" y="695"/>
			<point x="132" y="706"/>
			<point x="138" y="742" type="curve" smooth="yes"/>
			<point x="147" y="801" type="line"/>
			<point x="108" y="780" type="line"/>
			<point x="125" y="785"/>
			<point x="140" y="787"/>
			<point x="152" y="787" type="curve" smooth="yes"/>
			<point x="191" y="787"/>
			<point x="214" y="759"/>
			<point x="214" y="712" type="curve" smooth="yes"/>
			<point x="214" y="657"/>
			<point x="190" y="632"/>
			<point x="138" y="632" type="curve" smooth="yes"/>
			<point x="122" y="632" type="line"/>
			<point x="122" y="600" type="line"/>
			<point x="140" y="600" type="line" smooth="yes"/>
			<point x="195" y="600"/>
			<point x="219" y="570"/>
			<point x="219" y="520" type="curve" smooth="yes"/>
			<point x="219" y="463"/>
			<point x="191" y="433"/>
			<point x="135" y="433" type="curve" smooth="yes"/>
			<point x="119" y="433"/>
			<point x="110" y="435"/>
			<point x="96" y="441" type="curve"/>
			<point x="128" y="418" type="line"/>
			<point x="122" y="481" type="line" smooth="yes"/>
			<point x="116" y="527"/>
			<point x="98" y="539"/>
			<point x="71" y="539" type="curve" smooth="yes"/>
			<point x="54" y="539"/>
			<point x="36" y="531"/>
			<point x="28" y="509" type="curve"/>
			<point x="31" y="442"/>
			<point x="78" y="403"/>
		</contour>
	</outline>
</glyph>
<glyph name="paragraph" format="2">
	<unicode hex="00B6"/>
	<advance width="638"/>
	<outline>
		<contour>
			<point x="313" y="103" type="curve"/>
			<point x="313" y="602" type="line"/>
			<point x="474" y="602" type="line"/>
			<point x="474" y="652" type="line"/>
			<point x="365" y="652" type="line" smooth="yes"/>
			<point x="179" y="652"/>
			<point x="21" y="582"/>
			<point x="21" y="380" type="curve" smooth="yes"/>
			<point x="21" y="184"/>
			<point x="163" y="105"/>
		</contour>
		<contour>
			<point x="386" y="-111" type="curve"/>
			<point x="544" y="-111" type="line"/>
			<point x="541" y="-15"/>
			<point x="540" y="96"/>
			<point x="540" y="200" type="curve" smooth="yes"/>
			<point x="540" y="345" type="line" smooth="yes"/>
			<point x="540" y="448"/>
			<point x="541" y="558"/>
			<point x="544" y="652" type="curve"/>
			<point x="390" y="652" type="line"/>
			<point x="390" y="199" type="line" smooth="yes"/>
			<point x="390" y="94"/>
			<point x="390" y="-16"/>
		</contour>
		<contour>
			<point x="460" y="588" type="line"/>
			<point x="484" y="588" type="line"/>
			<point x="609" y="604" type="line"/>
			<point x="609" y="652" type="line"/>
			<point x="460" y="652" type="line"/>
		</contour>
	</outline>
</glyph>
<glyph name="one.sups" format="2">
	<unicode hex="00B9"/>
	<advance width="373"/>
	<outline>
		<contour>
			<point x="61" y="415" type="line"/>
			<point x="327" y="415" type="line"/>
			<point x="327" y="443" type="line"/>
			<point x="249" y="461" type="line"/>
			<point x="145" y="461" type="line"/>
			<point x="61" y="443" type="line"/>
		</contour>
		<contour>
			<point x="135" y="415" type="line"/>
			<point x="257" y="415" type="line"/>
			<point x="257" y="809" type="line"/>
			<point x="247" y="816" type="line"/>
			<point x="69" y="772" type="line"/>
			<point x="69" y="737" type="line"/>
			<point x="135" y="746" type="line"/>
		</contour>
	</outline>
</glyph>
<glyph name="AE" format="2">
	<unicode hex="00C6"/>
	<advance width="861"/>
	<outline>
		<contour>
			<point x="380" y="0" type="curve"/>
			<point x="576" y="0" type="line"/>
			<point x="573" y="96"/>
			<point x="573" y="206"/>
			<point x="573" y="310" type="curve" smooth="yes"/>
			<point x="573" y="345" type="line" smooth="yes"/>
			<point x="573" y="448"/>
			<point x="573" y="558"/>
			<point x="576" y="652" type="curve"/>
			<point x="384" y="652" type="line"/>
			<point x="384" y="302" type="line" smooth="yes"/>
			<point x="384" y="205"/>
			<point x="383" y="94"/>
		</contour>
		<contour>
			<point x="11" y="0" type="line"/>
			<point x="206" y="0" type="line"/>
			<point x="206" y="48" type="line"/>
			<point x="121" y="62" type="line"/>
			<point x="104" y="62" type="line"/>
			<point x="11" y="48" type="line"/>
		</contour>
		<contour>
			<point x="682" y="230" type="line"/>
			<point x="733" y="230" type="line"/>
			<point x="733" y="443" type="line"/>
			<point x="682" y="443" type="line"/>
			<point x="660" y="347" type="line"/>
			<point x="660" y="330" type="line"/>
		</contour>
		<contour>
			<point x="748" y="480" type="line"/>
			<point x="821" y="480" type="line"/>
			<point x="812" y="652" type="line"/>
			<point x="472" y="652" type="line"/>
			<point x="472" y="602" type="line"/>
			<point x="712" y="602" type="line"/>
		</contour>
		<contour>
			<point x="479" y="0" type="line"/>
			<point x="831" y="0" type="line"/>
			<point x="840" y="175" type="line"/>
			<point x="767" y="175" type="line"/>
			<point x="731" y="49" type="line"/>
			<point x="479" y="49" type="line"/>
		</contour>
		<contour>
			<point x="223" y="604" type="line"/>
			<point x="353" y="588" type="line"/>
			<point x="476" y="588" type="line"/>
			<point x="476" y="652" type="line"/>
			<point x="223" y="652" type="line"/>
		</contour>
		<contour>
			<point x="316" y="0" type="line"/>
			<point x="491" y="0" type="line"/>
			<point x="491" y="64" type="line"/>
			<point x="452" y="64" type="line"/>
			<point x="316" y="48" type="line"/>
		</contour>
		<contour>
			<point x="42" y="0" type="line"/>
			<point x="106" y="0" type="line"/>
			<point x="220" y="251" type="line"/>
			<point x="402" y="652" type="line"/>
			<point x="344" y="652" type="line"/>
		</contour>
		<contour>
			<point x="180" y="213" type="line"/>
			<point x="474" y="213" type="line"/>
			<point x="474" y="267" type="line"/>
			<point x="180" y="267" type="line"/>
		</contour>
		<contour>
			<point x="480" y="309" type="line"/>
			<point x="686" y="309" type="line"/>
			<point x="686" y="364" type="line"/>
			<point x="480" y="364" type="line"/>
		</contour>
	</outline>
	<anchor name="aboveUC" x="533" y="672"/>
</glyph>
<glyph name="Idieresis" format="2">
	<unicode hex="00CF"/>
	<advance width="380"/>
	<outline>
		<contour>
			<point x="97" y="703" type="curve" smooth="yes"/>
			<point x="134" y="703"/>
			<point x="168" y="728"/>
			<point x="168" y="774" type="curve" smooth="yes"/>
			<point x="168" y="820"/>
			<point x="134" y="846"/>
			<point x="97" y="846" type="curve" smooth="yes"/>
			<point x="58" y="846"/>
			<point x="24" y="820"/>
			<point x="24" y="774" type="curve" smooth="yes"/>
			<point x="24" y="728"/>
			<point x="58" y="703"/>
		</contour>
		<contour>
			<point x="284" y="703" type="curve" smooth="yes"/>
			<point x="322" y="703"/>
			<point x="356" y="728"/>
			<point x="356" y="774" type="curve" smooth="yes"/>
			<point x="356" y="820"/>
			<point x="322" y="846"/>
			<point x="284" y="846" type="curve" smooth="yes"/>
			<point x="245" y="846"/>
			<point x="211" y="820"/>
			<point x="211" y="774" type="curve" smooth="yes"/>
			<point x="211" y="728"/>
			<point x="245" y="703"/>
		</contour>
		<component base="I"/>
	</outline>
</glyph>
<glyph name="Eth" format="2">
	<unicode hex="00D0"/>
	<advance width="685"/>
	<outline>
		<contour>
			<point x="391" y="308" type="line"/>
			<point x="391" y="360" type="line"/>
			<point x="27" y="360" type="line"/>
			<point x="27" y="308" type="line"/>
		</contour>
		<component base="D"/>
	</outline>
</glyph>
<glyph name="multiply" format="2">
	<unicode hex="00D7"/>
	<advance width="539"/>
	<outline>
		<contour>
			<point x="437" y="89" type="line"/>
			<point x="498" y="150" type="line"/>
			<point x="101" y="551" type="line"/>
			<point x="40" y="490" type="line"/>
		</contour>
		<contour>
			<point x="498" y="490" type="line"/>
			<point x="437" y="551" type="line"/>
			<point x="40" y="150" type="line"/>
			<point x="101" y="89" type="line"/>
		</contour>
	</outline>
</glyph>
<glyph name="Oslash" format="2">
	<unicode hex="00D8"/>
	<advance width="684"/>
	<outline>
		<contour>
			<point x="637" y="646" type="line"/>
			<point x="587" y="688" type="line"/>
			<point x="48" y="7" type="line"/>
			<point x="97" y="-35" type="line"/>
		</contour>
		<contour>
			<point x="217" y="326" type="curve" smooth="yes"/>
			<point x="217" y="504"/>
			<point x="252" y="620"/>
			<point x="342" y="620" type="curve" smooth="yes"/>
			<point x="432" y="620"/>
			<point x="467" y="504"/>
			<point x="467" y="326" type="curve" smooth="yes"/>
			<point x="467" y="147"/>
			<point x="432" y="32"/>
			<point x="342" y="32" type="curve" smooth="yes"/>
			<point x="252" y="32"/>
			<point x="217" y="147"/>
		</contour>
		<contour>
			<point x="342" y="671" type="curve" smooth="yes"/>
			<point x="179" y="671"/>
			<point x="29" y="561"/>
			<point x="29" y="326" type="curve" smooth="yes"/>
			<point x="29" y="91"/>
			<point x="178" y="-19"/>
			<point x="342" y="-19" type="curve" smooth="yes"/>
			<point x="506" y="-19"/>
			<point x="655" y="91"/>
			<point x="655" y="326" type="curve" smooth="yes"/>
			<point x="655" y="561"/>
			<point x="505" y="671"/>
		</contour>
	</outline>
	<anchor name="aboveUC" x="342" y="672"/>
</glyph>
<glyph name="Thorn" format="2">
	<unicode hex="00DE"/>
	<advance width="612"/>
	<outline>
		<contour>
			<point x="190" y="141" type="line"/>
			<point x="292" y="141" type="line" smooth="yes"/>
			<point x="521" y="141"/>
			<point x="596" y="223"/>
			<point x="596" y="345" type="curve" smooth="yes"/>
			<point x="596" y="465"/>
			<point x="517" y="533"/>
			<point x="296" y="533" type="curve" smooth="yes"/>
			<point x="190" y="533" type="line"/>
			<point x="190" y="481" type="line"/>
			<point x="292" y="481" type="line" smooth="yes"/>
			<point x="374" y="481"/>
			<point x="418" y="432"/>
			<point x="418" y="339" type="curve" smooth="yes"/>
			<point x="418" y="249"/>
			<point x="365" y="194"/>
			<point x="291" y="194" type="curve" smooth="yes"/>
			<point x="190" y="194" type="line"/>
		</contour>
		<contour>
			<point x="91" y="0" type="curve"/>
			<point x="284" y="0" type="line"/>
			<point x="281" y="96"/>
			<point x="280" y="206"/>
			<point x="280" y="310" type="curve" smooth="yes"/>
			<point x="280" y="345" type="line" smooth="yes"/>
			<point x="280" y="448"/>
			<point x="281" y="558"/>
			<point x="284" y="652" type="curve"/>
			<point x="91" y="652" type="line"/>
			<point x="94" y="556"/>
			<point x="95" y="447"/>
			<point x="95" y="345" type="curve" smooth="yes"/>
			<point x="95" y="309" type="line" smooth="yes"/>
			<point x="95" y="205"/>
			<point x="94" y="94"/>
		</contour>
		<contour>
			<point x="159" y="588" type="line"/>
			<point x="215" y="588" type="line"/>
			<point x="356" y="604" type="line"/>
			<point x="356" y="652" type="line"/>
			<point x="27" y="652" type="line"/>
			<point x="27" y="604" type="line"/>
		</contour>
		<contour>
			<point x="27" y="0" type="line"/>
			<point x="356" y="0" type="line"/>
			<point x="356" y="48" type="line"/>
			<point x="226" y="64" type="line"/>
			<point x="164" y="64" type="line"/>
			<point x="27" y="48" type="line"/>
		</contour>
	</outline>
</glyph>
<glyph name="germandbls" format="2">
	<unicode hex="00DF"/>
	<advance width="667"/>
	<outline>
		<contour>
			<point x="24" y="0" type="line"/>
			<point x="177" y="0" type="line"/>
			<point x="177" y="62" type="line"/>
			<point x="114" y="62" type="line"/>
			<point x="24" y="43" type="line"/>
		</contour>
		<contour>
			<point x="68" y="0" type="curve"/>
			<point x="255" y="0" type="line"/>
			<point x="253" y="70"/>
			<point x="252" y="139"/>
			<point x="252" y="209" type="curve" smooth="yes"/>
			<point x="252" y="417" type="line" smooth="yes"/>
			<point x="252" y="559"/>
			<point x="260" y="625"/>
			<point x="295" y="660" type="curve" smooth="yes"/>
			<point x="312" y="678"/>
			<point x="333" y="686"/>
			<point x="366" y="686" type="curve" smooth="yes"/>
			<point x="417" y="686"/>
			<point x="452" y="643"/>
			<point x="452" y="578" type="curve" smooth="yes"/>
			<point x="452" y="536"/>
			<point x="442" y="503"/>
			<point x="402" y="469" type="curve" smooth="yes"/>
			<point x="348" y="422"/>
			<point x="306" y="394"/>
			<point x="306" y="331" type="curve" smooth="yes"/>
			<point x="306" y="256"/>
			<point x="352" y="226"/>
			<point x="416" y="195" type="curve" smooth="yes"/>
			<point x="474" y="166"/>
			<point x="505" y="146"/>
			<point x="505" y="98" type="curve" smooth="yes"/>
			<point x="505" y="51"/>
			<point x="472" y="33"/>
			<point x="425" y="33" type="curve" smooth="yes"/>
			<point x="389" y="33"/>
			<point x="364" y="36"/>
			<point x="318" y="59" type="curve"/>
			<point x="406" y="3" type="line"/>
			<point x="372" y="146" type="line"/>
			<point x="301" y="146" type="line"/>
			<point x="297" y="16" type="line"/>
			<point x="337" y="-9"/>
			<point x="387" y="-16"/>
			<point x="435" y="-16" type="curve" smooth="yes"/>
			<point x="572" y="-16"/>
			<point x="656" y="61"/>
			<point x="656" y="160" type="curve" smooth="yes"/>
			<point x="656" y="242"/>
			<point x="611" y="291"/>
			<point x="538" y="330" type="curve" smooth="yes"/>
			<point x="455" y="374"/>
			<point x="437" y="393"/>
			<point x="437" y="412" type="curve" smooth="yes"/>
			<point x="437" y="432"/>
			<point x="454" y="445"/>
			<point x="512" y="475" type="curve" smooth="yes"/>
			<point x="574" y="505"/>
			<point x="601" y="532"/>
			<point x="601" y="589" type="curve" smooth="yes"/>
			<point x="601" y="672"/>
			<point x="526" y="732"/>
			<point x="376" y="732" type="curve" smooth="yes"/>
			<point x="299" y="732"/>
			<point x="221" y="712"/>
			<point x="169" y="666" type="curve" smooth="yes"/>
			<point x="108" y="622"/>
			<point x="71" y="560"/>
			<point x="71" y="452" type="curve" smooth="yes"/>
			<point x="71" y="209" type="line" smooth="yes"/>
			<point x="71" y="139"/>
			<point x="70" y="70"/>
		</contour>
	</outline>
</glyph>
<glyph name="ae" format="2">
	<unicode hex="00E6"/>
	<advance width="770"/>
	<outline>
		<contour>
			<point x="162" y="-16" type="curve" smooth="yes"/>
			<point x="246" y="-16"/>
			<point x="304" y="18"/>
			<point x="357" y="104" type="curve"/>
			<point x="360" y="108" type="line"/>
			<point x="332" y="122" type="line"/>
			<point x="290" y="77"/>
			<point x="276" y="68"/>
			<point x="246" y="68" type="curve" smooth="yes"/>
			<point x="216" y="68"/>
			<point x="190" y="88"/>
			<point x="190" y="142" type="curve" smooth="yes"/>
			<point x="190" y="199"/>
			<point x="227" y="230"/>
			<point x="258" y="244" type="curve" smooth="yes"/>
			<point x="284" y="258"/>
			<point x="335" y="270"/>
			<point x="382" y="283" type="curve"/>
			<point x="382" y="321" type="line"/>
			<point x="337" y="309"/>
			<point x="265" y="291"/>
			<point x="225" y="280" type="curve" smooth="yes"/>
			<point x="71" y="238"/>
			<point x="25" y="185"/>
			<point x="25" y="109" type="curve" smooth="yes"/>
			<point x="25" y="30"/>
			<point x="75" y="-16"/>
		</contour>
		<contour>
			<point x="537" y="-16" type="curve" smooth="yes"/>
			<point x="635" y="-16"/>
			<point x="701" y="22"/>
			<point x="745" y="103" type="curve"/>
			<point x="712" y="130" type="line"/>
			<point x="685" y="101"/>
			<point x="653" y="85"/>
			<point x="608" y="85" type="curve" smooth="yes"/>
			<point x="537" y="85"/>
			<point x="474" y="139"/>
			<point x="474" y="259" type="curve" smooth="yes"/>
			<point x="474" y="406"/>
			<point x="498" y="449"/>
			<point x="532" y="449" type="curve" smooth="yes"/>
			<point x="558" y="449"/>
			<point x="582" y="425"/>
			<point x="582" y="354" type="curve" smooth="yes"/>
			<point x="582" y="300"/>
			<point x="567" y="284"/>
			<point x="514" y="284" type="curve" smooth="yes"/>
			<point x="358" y="284" type="line"/>
			<point x="358" y="236" type="line"/>
			<point x="742" y="236" type="line"/>
			<point x="746" y="254"/>
			<point x="747" y="266"/>
			<point x="747" y="286" type="curve" smooth="yes"/>
			<point x="747" y="402"/>
			<point x="673" y="495"/>
			<point x="538" y="495" type="curve" smooth="yes"/>
			<point x="462" y="495"/>
			<point x="389" y="456"/>
			<point x="347" y="374" type="curve"/>
			<point x="445" y="372" type="line"/>
			<point x="424" y="457"/>
			<point x="364" y="495"/>
			<point x="276" y="495" type="curve" smooth="yes"/>
			<point x="125" y="495"/>
			<point x="43" y="436"/>
			<point x="42" y="353" type="curve"/>
			<point x="52" y="317"/>
			<point x="77" y="300"/>
			<point x="114" y="300" type="curve" smooth="yes"/>
			<point x="155" y="300"/>
			<point x="195" y="329"/>
			<point x="195" y="409" type="curve" smooth="yes"/>
			<point x="196" y="474" type="line"/>
			<point x="131" y="435" type="line"/>
			<point x="167" y="444"/>
			<point x="189" y="448"/>
			<point x="212" y="448" type="curve" smooth="yes"/>
			<point x="273" y="448"/>
			<point x="285" y="420"/>
			<point x="285" y="331" type="curve" smooth="yes"/>
			<point x="285" y="234" type="line" smooth="yes"/>
			<point x="285" y="71"/>
			<point x="393" y="-16"/>
		</contour>
	</outline>
	<anchor name="aboveLC" x="398" y="499"/>
	<anchor name="belowLC" x="359" y="-20"/>
</glyph>
<glyph name="eth" format="2">
	<unicode hex="00F0"/>
	<advance width="553"/>
	<outline>
		<contour>
			<point x="271" y="-16" type="curve" smooth="yes"/>
			<point x="404" y="-16"/>
			<point x="528" y="73"/>
			<point x="528" y="275" type="curve" smooth="yes"/>
			<point x="528" y="498"/>
			<point x="368" y="673"/>
			<point x="131" y="732" type="curve"/>
			<point x="109" y="684" type="line"/>
			<point x="247" y="629"/>
			<point x="297" y="563"/>
			<point x="344" y="392" type="curve"/>
			<point x="386" y="404" type="line"/>
			<point x="366" y="448"/>
			<point x="332" y="484"/>
			<point x="272" y="484" type="curve" smooth="yes"/>
			<point x="137" y="484"/>
			<point x="24" y="389"/>
			<point x="24" y="238" type="curve" smooth="yes"/>
			<point x="24" y="74"/>
			<point x="138" y="-16"/>
		</contour>
		<contour>
			<point x="278" y="31" type="curve" smooth="yes"/>
			<point x="238" y="31"/>
			<point x="216" y="91"/>
			<point x="216" y="234" type="curve" smooth="yes"/>
			<point x="216" y="381"/>
			<point x="241" y="438"/>
			<point x="278" y="438" type="curve" smooth="yes"/>
			<point x="320" y="438"/>
			<point x="341" y="376"/>
			<point x="341" y="236" type="curve" smooth="yes"/>
			<point x="341" y="88"/>
			<point x="313" y="31"/>
		</contour>
		<contour>
			<point x="127" y="508" type="line"/>
			<point x="493" y="675" type="line"/>
			<point x="468" y="727" type="line"/>
			<point x="102" y="559" type="line"/>
		</contour>
	</outline>
</glyph>
<glyph name="divide" format="2">
	<unicode hex="00F7"/>
	<advance width="539"/>
	<outline>
		<contour>
			<point x="269" y="71" type="curve" smooth="yes"/>
			<point x="310" y="71"/>
			<point x="341" y="100"/>
			<point x="341" y="140" type="curve" smooth="yes"/>
			<point x="341" y="179"/>
			<point x="310" y="209"/>
			<point x="269" y="209" type="curve" smooth="yes"/>
			<point x="229" y="209"/>
			<point x="198" y="179"/>
			<point x="198" y="140" type="curve" smooth="yes"/>
			<point x="198" y="100"/>
			<point x="229" y="71"/>
		</contour>
		<contour>
			<point x="269" y="431" type="curve" smooth="yes"/>
			<point x="310" y="431"/>
			<point x="341" y="460"/>
			<point x="341" y="500" type="curve" smooth="yes"/>
			<point x="341" y="540"/>
			<point x="310" y="569"/>
			<point x="269" y="569" type="curve" smooth="yes"/>
			<point x="229" y="569"/>
			<point x="198" y="540"/>
			<point x="198" y="500" type="curve" smooth="yes"/>
			<point x="198" y="460"/>
			<point x="229" y="431"/>
		</contour>
		<component base="minus"/>
	</outline>
</glyph>
<glyph name="oslash" format="2">
	<unicode hex="00F8"/>
	<advance width="562"/>
	<outline>
		<contour>
			<point x="512" y="477" type="line"/>
			<point x="470" y="512" type="line"/>
			<point x="52" y="1" type="line"/>
			<point x="95" y="-33" type="line"/>
		</contour>
		<contour>
			<point x="281" y="-16" type="curve" smooth="yes"/>
			<point x="444" y="-16"/>
			<point x="538" y="93"/>
			<point x="538" y="242" type="curve" smooth="yes"/>
			<point x="538" y="391"/>
			<point x="437" y="495"/>
			<point x="281" y="495" type="curve" smooth="yes"/>
			<point x="130" y="495"/>
			<point x="24" y="388"/>
			<point x="24" y="242" type="curve" smooth="yes"/>
			<point x="24" y="95"/>
			<point x="112" y="-16"/>
		</contour>
		<contour>
			<point x="281" y="31" type="curve" smooth="yes"/>
			<point x="231" y="31"/>
			<point x="208" y="84"/>
			<point x="208" y="240" type="curve" smooth="yes"/>
			<point x="208" y="394"/>
			<point x="231" y="448"/>
			<point x="281" y="448" type="curve" smooth="yes"/>
			<point x="331" y="448"/>
			<point x="355" y="394"/>
			<point x="355" y="240" type="curve" smooth="yes"/>
			<point x="355" y="85"/>
			<point x="331" y="31"/>
		</contour>
	</outline>
	<anchor name="aboveLC" x="281" y="499"/>
</glyph>
<glyph name="thorn" format="2">
	<unicode hex="00FE"/>
	<advance width="604"/>
	<outline>
		<contour>
			<point x="68" y="-227" type="curve"/>
			<point x="254" y="-227" type="line"/>
			<point x="251" y="-144"/>
			<point x="250" y="-67"/>
			<point x="250" y="-4" type="curve" smooth="yes"/>
			<point x="250" y="72" type="line"/>
			<point x="253" y="83" type="line"/>
			<point x="253" y="412" type="line"/>
			<point x="250" y="421" type="line"/>
			<point x="250" y="551" type="line"/>
			<point x="254" y="711" type="line"/>
			<point x="238" y="722" type="line"/>
			<point x="19" y="675" type="line"/>
			<point x="19" y="638" type="line"/>
			<point x="72" y="628" type="line"/>
			<point x="72" y="-4" type="line" smooth="yes"/>
			<point x="72" y="-67"/>
			<point x="72" y="-144"/>
		</contour>
		<contour>
			<point x="373" y="-16" type="curve" smooth="yes"/>
			<point x="484" y="-16"/>
			<point x="579" y="83"/>
			<point x="579" y="246" type="curve" smooth="yes"/>
			<point x="579" y="410"/>
			<point x="499" y="495"/>
			<point x="390" y="495" type="curve" smooth="yes"/>
			<point x="303" y="495"/>
			<point x="241" y="443"/>
			<point x="192" y="342" type="curve"/>
			<point x="188" y="342" type="line"/>
			<point x="198" y="325" type="line"/>
			<point x="216" y="346"/>
			<point x="252" y="402"/>
			<point x="301" y="402" type="curve" smooth="yes"/>
			<point x="352" y="402"/>
			<point x="387" y="359"/>
			<point x="387" y="243" type="curve" smooth="yes"/>
			<point x="387" y="126"/>
			<point x="351" y="75"/>
			<point x="301" y="75" type="curve" smooth="yes"/>
			<point x="257" y="75"/>
			<point x="238" y="104"/>
			<point x="205" y="149" type="curve"/>
			<point x="194" y="131" type="line"/>
			<point x="199" y="131" type="line"/>
			<point x="237" y="36"/>
			<point x="285" y="-16"/>
		</contour>
		<contour>
			<point x="25" y="-227" type="line"/>
			<point x="306" y="-227" type="line"/>
			<point x="306" y="-184" type="line"/>
			<point x="229" y="-165" type="line"/>
			<point x="111" y="-165" type="line"/>
			<point x="25" y="-184" type="line"/>
		</contour>
	</outline>
	<anchor name="aboveLC" x="161" y="722"/>
	<anchor name="belowLC" x="436" y="-20"/>
</glyph>
<glyph name="aogonek" format="2">
	<unicode hex="0105"/>
	<advance width="527"/>
	<outline>
		<contour>
			<point x="152" y="-16" type="curve" smooth="yes"/>
			<point x="223" y="-16"/>
			<point x="256" y="12"/>
			<point x="299" y="63" type="curve"/>
			<point x="341" y="63" type="line"/>
			<point x="332" y="111" type="line"/>
			<point x="292" y="79"/>
			<point x="271" y="68"/>
			<point x="244" y="68" type="curve" smooth="yes"/>
			<point x="213" y="68"/>
			<point x="190" y="90"/>
			<point x="190" y="137" type="curve" smooth="yes"/>
			<point x="190" y="197"/>
			<point x="222" y="233"/>
			<point x="268" y="249" type="curve" smooth="yes"/>
			<point x="294" y="258"/>
			<point x="338" y="272"/>
			<point x="382" y="285" type="curve"/>
			<point x="382" y="321" type="line"/>
			<point x="331" y="308"/>
			<point x="274" y="293"/>
			<point x="225" y="280" type="curve" smooth="yes"/>
			<point x="71" y="238"/>
			<point x="25" y="185"/>
			<point x="25" y="109" type="curve" smooth="yes"/>
			<point x="25" y="30"/>
			<point x="75" y="-16"/>
		</contour>
		<contour>
			<point x="406" y="-227" type="curve" smooth="yes"/>
			<point x="454" y="-227"/>
			<point x="500" y="-206"/>
			<point x="531" y="-174" type="curve"/>
			<point x="518" y="-131" type="line"/>
			<point x="503" y="-138"/>
			<point x="490" y="-141"/>
			<point x="470" y="-141" type="curve" smooth="yes"/>
			<point x="435" y="-141"/>
			<point x="415" y="-122"/>
			<point x="415" y="-88" type="curve" smooth="yes"/>
			<point x="415" y="-48"/>
			<point x="441" y="-26"/>
			<point x="483" y="2" type="curve" smooth="yes"/>
			<point x="506" y="18"/>
			<point x="522" y="37"/>
			<point x="533" y="65" type="curve"/>
			<point x="508" y="80" type="line"/>
			<point x="496" y="63"/>
			<point x="489" y="58"/>
			<point x="479" y="58" type="curve" smooth="yes"/>
			<point x="468" y="58"/>
			<point x="462" y="66"/>
			<point x="462" y="76" type="curve" smooth="yes"/>
			<point x="462" y="303" type="line" smooth="yes"/>
			<point x="462" y="437"/>
			<point x="411" y="495"/>
			<point x="276" y="495" type="curve" smooth="yes"/>
			<point x="125" y="495"/>
			<point x="43" y="436"/>
			<point x="42" y="353" type="curve"/>
			<point x="52" y="317"/>
			<point x="77" y="300"/>
			<point x="114" y="300" type="curve" smooth="yes"/>
			<point x="155" y="300"/>
			<point x="195" y="329"/>
			<point x="195" y="409" type="curve" smooth="yes"/>
			<point x="196" y="473" type="line"/>
			<point x="130" y="437" type="line"/>
			<point x="174" y="446"/>
			<point x="192" y="448"/>
			<point x="212" y="448" type="curve" smooth="yes"/>
			<point x="273" y="448"/>
			<point x="285" y="420"/>
			<point x="285" y="331" type="curve" smooth="yes"/>
			<point x="285" y="72" type="line"/>
			<point x="285" y="70" type="line" smooth="yes"/>
			<point x="298" y="17"/>
			<point x="334" y="-16"/>
			<point x="405" y="-16" type="curve" smooth="yes"/>
			<point x="409" y="-16"/>
			<point x="412" y="-16"/>
			<point x="425" y="-14" type="curve"/>
			<point x="421" y="-9" type="line"/>
			<point x="344" y="-40"/>
			<point x="301" y="-76"/>
			<point x="301" y="-136" type="curve" smooth="yes"/>
			<point x="301" y="-186"/>
			<point x="335" y="-227"/>
		</contour>
	</outline>
	<anchor name="aboveLC" x="257" y="499"/>
</glyph>
<glyph name="dcroat" format="2">
	<unicode hex="0111"/>
	<advance width="588"/>
	<outline>
		<contour>
			<point x="204" y="532" type="line"/>
			<point x="573" y="532" type="line"/>
			<point x="573" y="584" type="line"/>
			<point x="204" y="584" type="line"/>
		</contour>
		<contour>
			<point x="216" y="231" type="curve" smooth="yes"/>
			<point x="216" y="339"/>
			<point x="254" y="388"/>
			<point x="305" y="388" type="curve" smooth="yes"/>
			<point x="344" y="388"/>
			<point x="364" y="365"/>
			<point x="394" y="325" type="curve"/>
			<point x="407" y="341" type="line"/>
			<point x="402" y="341" type="line"/>
			<point x="362" y="429"/>
			<point x="323" y="479"/>
			<point x="237" y="479" type="curve" smooth="yes"/>
			<point x="127" y="479"/>
			<point x="24" y="384"/>
			<point x="24" y="227" type="curve" smooth="yes"/>
			<point x="24" y="67"/>
			<point x="105" y="-16"/>
			<point x="213" y="-16" type="curve" smooth="yes"/>
			<point x="299" y="-16"/>
			<point x="359" y="32"/>
			<point x="405" y="138" type="curve"/>
			<point x="400" y="146" type="line"/>
			<point x="397" y="152" type="line"/>
			<point x="373" y="112"/>
			<point x="343" y="77"/>
			<point x="302" y="77" type="curve" smooth="yes"/>
			<point x="251" y="77"/>
			<point x="216" y="127"/>
		</contour>
		<contour>
			<point x="566" y="0" type="line"/>
			<point x="566" y="43" type="line"/>
			<point x="527" y="52" type="line"/>
			<point x="527" y="544" type="line"/>
			<point x="531" y="711" type="line"/>
			<point x="515" y="722" type="line"/>
			<point x="291" y="675" type="line"/>
			<point x="291" y="638" type="line"/>
			<point x="352" y="629" type="line"/>
			<point x="352" y="403" type="line"/>
			<point x="346" y="392" type="line"/>
			<point x="346" y="79" type="line"/>
			<point x="346" y="76" type="line"/>
			<point x="356" y="-13" type="line"/>
		</contour>
	</outline>
</glyph>
<glyph name="eogonek" format="2">
	<unicode hex="0119"/>
	<advance width="511"/>
	<outline>
		<contour>
			<point x="324" y="-227" type="curve" smooth="yes"/>
			<point x="371" y="-227"/>
			<point x="418" y="-206"/>
			<point x="448" y="-174" type="curve"/>
			<point x="435" y="-131" type="line"/>
			<point x="420" y="-138"/>
			<point x="407" y="-141"/>
			<point x="387" y="-141" type="curve" smooth="yes"/>
			<point x="352" y="-141"/>
			<point x="333" y="-121"/>
			<point x="333" y="-84" type="curve" smooth="yes"/>
			<point x="333" y="-44"/>
			<point x="350" y="-22"/>
			<point x="392" y="8" type="curve" smooth="yes"/>
			<point x="428" y="33"/>
			<point x="461" y="59"/>
			<point x="485" y="103" type="curve"/>
			<point x="453" y="130" type="line"/>
			<point x="426" y="101"/>
			<point x="394" y="85"/>
			<point x="349" y="85" type="curve" smooth="yes"/>
			<point x="278" y="85"/>
			<point x="214" y="139"/>
			<point x="214" y="259" type="curve" smooth="yes"/>
			<point x="214" y="406"/>
			<point x="238" y="449"/>
			<point x="272" y="449" type="curve" smooth="yes"/>
			<point x="299" y="449"/>
			<point x="322" y="425"/>
			<point x="322" y="354" type="curve" smooth="yes"/>
			<point x="322" y="300"/>
			<point x="307" y="284"/>
			<point x="255" y="284" type="curve" smooth="yes"/>
			<point x="98" y="284" type="line"/>
			<point x="98" y="236" type="line"/>
			<point x="483" y="236" type="line"/>
			<point x="487" y="254"/>
			<point x="487" y="266"/>
			<point x="487" y="286" type="curve" smooth="yes"/>
			<point x="487" y="402"/>
			<point x="411" y="495"/>
			<point x="272" y="495" type="curve" smooth="yes"/>
			<point x="134" y="495"/>
			<point x="24" y="404"/>
			<point x="24" y="234" type="curve" smooth="yes"/>
			<point x="24" y="71"/>
			<point x="132" y="-16"/>
			<point x="277" y="-16" type="curve" smooth="yes"/>
			<point x="290" y="-16"/>
			<point x="307" y="-14"/>
			<point x="322" y="-12" type="curve"/>
			<point x="325" y="-4" type="line"/>
			<point x="261" y="-32"/>
			<point x="219" y="-71"/>
			<point x="219" y="-129" type="curve" smooth="yes"/>
			<point x="219" y="-184"/>
			<point x="252" y="-227"/>
		</contour>
	</outline>
	<anchor name="aboveLC" x="272" y="499"/>
</glyph>
<glyph name="Hbar" format="2">
	<unicode hex="0126"/>
	<advance width="736"/>
	<outline>
		<contour>
			<point x="90" y="0" type="curve"/>
			<point x="286" y="0" type="line"/>
			<point x="283" y="96"/>
			<point x="283" y="206"/>
			<point x="283" y="310" type="curve" smooth="yes"/>
			<point x="283" y="351" type="line" smooth="yes"/>
			<point x="283" y="448"/>
			<point x="283" y="558"/>
			<point x="286" y="652" type="curve"/>
			<point x="90" y="652" type="line"/>
			<point x="93" y="556"/>
			<point x="94" y="447"/>
			<point x="94" y="345" type="curve" smooth="yes"/>
			<point x="94" y="309" type="line" smooth="yes"/>
			<point x="94" y="205"/>
			<point x="93" y="94"/>
		</contour>
		<contour>
			<point x="449" y="0" type="curve"/>
			<point x="646" y="0" type="line"/>
			<point x="642" y="96"/>
			<point x="642" y="206"/>
			<point x="642" y="309" type="curve" smooth="yes"/>
			<point x="642" y="345" type="line" smooth="yes"/>
			<point x="642" y="448"/>
			<point x="642" y="558"/>
			<point x="646" y="652" type="curve"/>
			<point x="449" y="652" type="line"/>
			<point x="453" y="556"/>
			<point x="453" y="447"/>
			<point x="453" y="351" type="curve" smooth="yes"/>
			<point x="453" y="310" type="line" smooth="yes"/>
			<point x="453" y="205"/>
			<point x="453" y="94"/>
		</contour>
		<contour>
			<point x="27" y="0" type="line"/>
			<point x="346" y="0" type="line"/>
			<point x="346" y="48" type="line"/>
			<point x="208" y="64" type="line"/>
			<point x="159" y="64" type="line"/>
			<point x="27" y="48" type="line"/>
		</contour>
		<contour>
			<point x="27" y="604" type="line"/>
			<point x="159" y="588" type="line"/>
			<point x="208" y="588" type="line"/>
			<point x="346" y="604" type="line"/>
			<point x="346" y="652" type="line"/>
			<point x="27" y="652" type="line"/>
		</contour>
		<contour>
			<point x="390" y="0" type="line"/>
			<point x="709" y="0" type="line"/>
			<point x="709" y="48" type="line"/>
			<point x="573" y="64" type="line"/>
			<point x="525" y="64" type="line"/>
			<point x="390" y="48" type="line"/>
		</contour>
		<contour>
			<point x="390" y="604" type="line"/>
			<point x="525" y="588" type="line"/>
			<point x="573" y="588" type="line"/>
			<point x="709" y="604" type="line"/>
			<point x="709" y="652" type="line"/>
			<point x="390" y="652" type="line"/>
		</contour>
		<contour>
			<point x="20" y="442" type="line"/>
			<point x="716" y="442" type="line"/>
			<point x="716" y="494" type="line"/>
			<point x="20" y="494" type="line"/>
		</contour>
		<contour>
			<point x="189" y="282" type="line"/>
			<point x="546" y="282" type="line"/>
			<point x="546" y="336" type="line"/>
			<point x="189" y="336" type="line"/>
		</contour>
	</outline>
</glyph>
<glyph name="hbar" format="2">
	<unicode hex="0127"/>
	<advance width="608"/>
	<outline>
		<contour>
			<point x="68" y="0" type="curve"/>
			<point x="257" y="0" type="line"/>
			<point x="254" y="47"/>
			<point x="253" y="146"/>
			<point x="253" y="209" type="curve" smooth="yes"/>
			<point x="253" y="343" type="line"/>
			<point x="251" y="354" type="line"/>
			<point x="251" y="544" type="line"/>
			<point x="255" y="711" type="line"/>
			<point x="238" y="722" type="line"/>
			<point x="19" y="675" type="line"/>
			<point x="19" y="638" type="line"/>
			<point x="72" y="626" type="line"/>
			<point x="72" y="209" type="line" smooth="yes"/>
			<point x="72" y="146"/>
			<point x="72" y="47"/>
		</contour>
		<contour>
			<point x="25" y="0" type="line"/>
			<point x="294" y="0" type="line"/>
			<point x="294" y="43" type="line"/>
			<point x="206" y="62" type="line"/>
			<point x="109" y="62" type="line"/>
			<point x="25" y="43" type="line"/>
		</contour>
		<contour>
			<point x="322" y="0" type="line"/>
			<point x="590" y="0" type="line"/>
			<point x="590" y="43" type="line"/>
			<point x="500" y="62" type="line"/>
			<point x="403" y="62" type="line"/>
			<point x="322" y="43" type="line"/>
		</contour>
		<contour>
			<point x="16" y="525" type="line"/>
			<point x="378" y="525" type="line"/>
			<point x="378" y="578" type="line"/>
			<point x="16" y="578" type="line"/>
		</contour>
		<contour>
			<point x="362" y="0" type="curve"/>
			<point x="551" y="0" type="line"/>
			<point x="548" y="47"/>
			<point x="547" y="144"/>
			<point x="547" y="209" type="curve" smooth="yes"/>
			<point x="547" y="310" type="line" smooth="yes"/>
			<point x="547" y="417"/>
			<point x="486" y="472"/>
			<point x="401" y="472" type="curve" smooth="yes"/>
			<point x="335" y="472"/>
			<point x="289" y="448"/>
			<point x="228" y="360" type="curve"/>
			<point x="184" y="360" type="line"/>
			<point x="214" y="293" type="line"/>
			<point x="246" y="339"/>
			<point x="290" y="371"/>
			<point x="322" y="371" type="curve" smooth="yes"/>
			<point x="354" y="371"/>
			<point x="366" y="352"/>
			<point x="366" y="299" type="curve" smooth="yes"/>
			<point x="366" y="209" type="line" smooth="yes"/>
			<point x="366" y="144"/>
			<point x="366" y="47"/>
		</contour>
	</outline>
</glyph>
<glyph name="dotlessi" format="2">
	<unicode hex="0131"/>
	<advance width="315"/>
	<outline>
		<contour>
			<point x="26" y="0" type="line"/>
			<point x="297" y="0" type="line"/>
			<point x="297" y="43" type="line"/>
			<point x="207" y="62" type="line"/>
			<point x="110" y="62" type="line"/>
			<point x="26" y="43" type="line"/>
		</contour>
		<contour>
			<point x="68" y="0" type="curve"/>
			<point x="258" y="0" type="line"/>
			<point x="255" y="47"/>
			<point x="254" y="146"/>
			<point x="254" y="209" type="curve" smooth="yes"/>
			<point x="254" y="339" type="line"/>
			<point x="257" y="484" type="line"/>
			<point x="240" y="495" type="line"/>
			<point x="17" y="430" type="line"/>
			<point x="17" y="395" type="line"/>
			<point x="70" y="384" type="line"/>
			<point x="72" y="342"/>
			<point x="72" y="309"/>
			<point x="72" y="251" type="curve" smooth="yes"/>
			<point x="72" y="209" type="line" smooth="yes"/>
			<point x="72" y="146"/>
			<point x="72" y="47"/>
		</contour>
	</outline>
	<anchor name="aboveLC" x="161" y="499"/>
	<anchor name="belowLC" x="168" y="-20"/>
	<anchor name="ogonek" x="199" y="0"/>
</glyph>
<glyph name="kgreenlandic" format="2">
	<unicode hex="0138"/>
	<advance width="598"/>
	<outline>
		<contour>
			<point x="22" y="0" type="line"/>
			<point x="291" y="0" type="line"/>
			<point x="291" y="43" type="line"/>
			<point x="204" y="62" type="line"/>
			<point x="106" y="62" type="line"/>
			<point x="22" y="43" type="line"/>
		</contour>
		<contour>
			<point x="66" y="0" type="curve"/>
			<point x="254" y="0" type="line"/>
			<point x="251" y="47"/>
			<point x="250" y="146"/>
			<point x="250" y="229" type="curve" smooth="yes"/>
			<point x="250" y="339" type="line"/>
			<point x="254" y="484" type="line"/>
			<point x="236" y="495" type="line"/>
			<point x="14" y="430" type="line"/>
			<point x="14" y="395" type="line"/>
			<point x="67" y="384" type="line"/>
			<point x="69" y="342"/>
			<point x="69" y="318"/>
			<point x="69" y="260" type="curve" smooth="yes"/>
			<point x="69" y="209" type="line" smooth="yes"/>
			<point x="69" y="146"/>
			<point x="69" y="47"/>
		</contour>
		<contour>
			<point x="156" y="124" type="line"/>
			<point x="536" y="479" type="line"/>
			<point x="464" y="479" type="line"/>
			<point x="311" y="330" type="line"/>
			<point x="159" y="181" type="line"/>
			<point x="156" y="181" type="line"/>
		</contour>
		<contour>
			<point x="368" y="0" type="line"/>
			<point x="591" y="0" type="line"/>
			<point x="591" y="43" type="line"/>
			<point x="467" y="75" type="line"/>
			<point x="553" y="18" type="line"/>
			<point x="394" y="371" type="line"/>
			<point x="266" y="254" type="line"/>
		</contour>
		<contour>
			<point x="438" y="424" type="line"/>
			<point x="461" y="424" type="line"/>
			<point x="566" y="439" type="line"/>
			<point x="566" y="479" type="line"/>
			<point x="341" y="479" type="line"/>
			<point x="341" y="439" type="line"/>
		</contour>
	</outline>
</glyph>
<glyph name="Lslash" format="2">
	<unicode hex="0141"/>
	<advance width="554"/>
	<outline>
		<contour>
			<point x="398" y="458" type="line"/>
			<point x="226" y="370" type="line"/>
			<point x="226" y="302" type="line"/>
			<point x="398" y="390" type="line"/>
		</contour>
		<contour>
			<point x="188" y="356" type="line"/>
			<point x="25" y="272" type="line"/>
			<point x="25" y="204" type="line"/>
			<point x="188" y="288" type="line"/>
		</contour>
		<component base="L"/>
	</outline>
</glyph>
<glyph name="lslash" format="2">
	<unicode hex="0142"/>
	<advance width="324"/>
	<outline>
		<contour>
			<point x="212" y="425" type="line"/>
			<point x="17" y="314" type="line"/>
			<point x="17" y="245" type="line"/>
			<point x="212" y="356" type="line"/>
		</contour>
		<contour>
			<point x="313" y="473" type="line"/>
			<point x="114" y="359" type="line"/>
			<point x="114" y="291" type="line"/>
			<point x="313" y="404" type="line"/>
		</contour>
		<component base="l"/>
	</outline>
</glyph>
<glyph name="Eng" format="2">
	<unicode hex="014A"/>
	<advance width="693"/>
	<outline>
		<contour>
			<point x="23" y="0" type="line"/>
			<point x="266" y="0" type="line"/>
			<point x="266" y="48" type="line"/>
			<point x="150" y="62" type="line"/>
			<point x="119" y="62" type="line"/>
			<point x="23" y="48" type="line"/>
		</contour>
		<contour>
			<point x="103" y="0" type="line"/>
			<point x="161" y="0" type="line"/>
			<point x="161" y="326" type="line"/>
			<point x="161" y="632" type="line"/>
			<point x="103" y="632" type="line"/>
		</contour>
		<contour>
			<point x="362" y="-152" type="curve" smooth="yes"/>
			<point x="418" y="-152"/>
			<point x="469" y="-132"/>
			<point x="523" y="-66" type="curve" smooth="yes"/>
			<point x="572" y="-6"/>
			<point x="591" y="56"/>
			<point x="591" y="189" type="curve" smooth="yes"/>
			<point x="591" y="652" type="line"/>
			<point x="533" y="652" type="line"/>
			<point x="533" y="326" type="line"/>
			<point x="534" y="183" type="line" smooth="yes"/>
			<point x="534" y="32"/>
			<point x="501" y="-54"/>
			<point x="420" y="-98" type="curve"/>
			<point x="420" y="-111" type="line"/>
			<point x="445" y="-111" type="line"/>
			<point x="445" y="-97" type="line"/>
			<point x="393" y="-56" type="line" smooth="yes"/>
			<point x="355" y="-26"/>
			<point x="340" y="-18"/>
			<point x="307" y="-18" type="curve" smooth="yes"/>
			<point x="272" y="-18"/>
			<point x="246" y="-34"/>
			<point x="236" y="-79" type="curve"/>
			<point x="243" y="-130"/>
			<point x="286" y="-152"/>
		</contour>
		<contour>
			<point x="496" y="0" type="line"/>
			<point x="559" y="0" type="line"/>
			<point x="566" y="234" type="line"/>
			<point x="561" y="234" type="line"/>
			<point x="275" y="652" type="line"/>
			<point x="30" y="652" type="line"/>
			<point x="30" y="603" type="line"/>
			<point x="90" y="597" type="line"/>
			<point x="146" y="512" type="line"/>
			<point x="149" y="512" type="line"/>
		</contour>
		<contour>
			<point x="549" y="590" type="line"/>
			<point x="578" y="590" type="line"/>
			<point x="669" y="604" type="line"/>
			<point x="669" y="652" type="line"/>
			<point x="426" y="652" type="line"/>
			<point x="426" y="604" type="line"/>
		</contour>
	</outline>
</glyph>
<glyph name="eng" format="2">
	<unicode hex="014B"/>
	<advance width="603"/>
	<outline>
		<contour>
			<point x="22" y="0" type="line"/>
			<point x="291" y="0" type="line"/>
			<point x="291" y="43" type="line"/>
			<point x="204" y="62" type="line"/>
			<point x="106" y="62" type="line"/>
			<point x="22" y="43" type="line"/>
		</contour>
		<contour>
			<point x="66" y="0" type="curve"/>
			<point x="254" y="0" type="line"/>
			<point x="251" y="47"/>
			<point x="250" y="146"/>
			<point x="250" y="209" type="curve" smooth="yes"/>
			<point x="250" y="376" type="line"/>
			<point x="250" y="379" type="line"/>
			<point x="245" y="484" type="line"/>
			<point x="227" y="495" type="line"/>
			<point x="14" y="430" type="line"/>
			<point x="14" y="395" type="line"/>
			<point x="67" y="384" type="line"/>
			<point x="69" y="342"/>
			<point x="69" y="318"/>
			<point x="69" y="260" type="curve" smooth="yes"/>
			<point x="69" y="209" type="line" smooth="yes"/>
			<point x="69" y="146"/>
			<point x="69" y="47"/>
		</contour>
		<contour>
			<point x="309" y="-234" type="curve" smooth="yes"/>
			<point x="354" y="-234"/>
			<point x="424" y="-221"/>
			<point x="480" y="-166" type="curve" smooth="yes"/>
			<point x="525" y="-121"/>
			<point x="544" y="-77"/>
			<point x="544" y="20" type="curve" smooth="yes"/>
			<point x="544" y="333" type="line" smooth="yes"/>
			<point x="544" y="440"/>
			<point x="484" y="495"/>
			<point x="400" y="495" type="curve" smooth="yes"/>
			<point x="330" y="495"/>
			<point x="280" y="467"/>
			<point x="209" y="360" type="curve"/>
			<point x="204" y="360" type="line"/>
			<point x="206" y="323" type="line"/>
			<point x="238" y="367"/>
			<point x="286" y="394"/>
			<point x="317" y="394" type="curve" smooth="yes"/>
			<point x="349" y="394"/>
			<point x="363" y="374"/>
			<point x="363" y="322" type="curve" smooth="yes"/>
			<point x="363" y="77" type="line" smooth="yes"/>
			<point x="363" y="8"/>
			<point x="376" y="-85"/>
			<point x="370" y="-144" type="curve" smooth="yes"/>
			<point x="367" y="-166"/>
			<point x="364" y="-176"/>
			<point x="357" y="-192" type="curve"/>
			<point x="357" y="-204" type="line"/>
			<point x="370" y="-204" type="line"/>
			<point x="370" y="-192" type="line"/>
			<point x="353" y="-152" type="line" smooth="yes"/>
			<point x="333" y="-103"/>
			<point x="307" y="-85"/>
			<point x="270" y="-85" type="curve" smooth="yes"/>
			<point x="226" y="-85"/>
			<point x="198" y="-111"/>
			<point x="190" y="-159" type="curve"/>
			<point x="205" y="-211"/>
			<point x="244" y="-234"/>
		</contour>
	</outline>
</glyph>
<glyph name="OE" format="2">
	<unicode hex="0152"/>
	<advance width="907"/>
	<outline>
		<contour>
			<point x="226" y="325" type="curve" smooth="yes"/>
			<point x="226" y="519"/>
			<point x="294" y="620"/>
			<point x="395" y="620" type="curve" smooth="yes"/>
			<point x="439" y="620"/>
			<point x="477" y="611"/>
			<point x="516" y="587" type="curve"/>
			<point x="526" y="645" type="line"/>
			<point x="486" y="662"/>
			<point x="435" y="671"/>
			<point x="383" y="671" type="curve" smooth="yes"/>
			<point x="195" y="671"/>
			<point x="29" y="570"/>
			<point x="29" y="325" type="curve" smooth="yes"/>
			<point x="29" y="82"/>
			<point x="192" y="-19"/>
			<point x="383" y="-19" type="curve" smooth="yes"/>
			<point x="437" y="-19"/>
			<point x="490" y="-8"/>
			<point x="526" y="6" type="curve"/>
			<point x="516" y="65" type="line"/>
			<point x="478" y="42"/>
			<point x="440" y="32"/>
			<point x="395" y="32" type="curve" smooth="yes"/>
			<point x="293" y="32"/>
			<point x="226" y="132"/>
		</contour>
		<contour>
			<point x="426" y="0" type="curve"/>
			<point x="622" y="0" type="line"/>
			<point x="619" y="96"/>
			<point x="619" y="206"/>
			<point x="619" y="310" type="curve" smooth="yes"/>
			<point x="619" y="345" type="line" smooth="yes"/>
			<point x="619" y="448"/>
			<point x="619" y="558"/>
			<point x="622" y="652" type="curve"/>
			<point x="426" y="652" type="line"/>
			<point x="430" y="556"/>
			<point x="430" y="447"/>
			<point x="430" y="345" type="curve" smooth="yes"/>
			<point x="430" y="309" type="line" smooth="yes"/>
			<point x="430" y="205"/>
			<point x="429" y="94"/>
		</contour>
		<contour>
			<point x="728" y="230" type="line"/>
			<point x="779" y="230" type="line"/>
			<point x="779" y="443" type="line"/>
			<point x="728" y="443" type="line"/>
			<point x="706" y="347" type="line"/>
			<point x="706" y="330" type="line"/>
		</contour>
		<contour>
			<point x="528" y="309" type="line"/>
			<point x="732" y="309" type="line"/>
			<point x="732" y="364" type="line"/>
			<point x="528" y="364" type="line"/>
		</contour>
		<contour>
			<point x="794" y="480" type="line"/>
			<point x="867" y="480" type="line"/>
			<point x="858" y="652" type="line"/>
			<point x="520" y="652" type="line"/>
			<point x="520" y="602" type="line"/>
			<point x="758" y="602" type="line"/>
		</contour>
		<contour>
			<point x="813" y="175" type="line"/>
			<point x="777" y="49" type="line"/>
			<point x="528" y="49" type="line"/>
			<point x="528" y="0" type="line"/>
			<point x="877" y="0" type="line"/>
			<point x="886" y="175" type="line"/>
		</contour>
	</outline>
	<anchor name="aboveUC" x="525" y="672"/>
</glyph>
<glyph name="oe" format="2">
	<unicode hex="0153"/>
	<advance width="832"/>
	<outline>
		<contour>
			<point x="280" y="-16" type="curve" smooth="yes"/>
			<point x="385" y="-16"/>
			<point x="448" y="40"/>
			<point x="489" y="126" type="curve"/>
			<point x="386" y="126" type="line"/>
			<point x="424" y="34"/>
			<point x="500" y="-16"/>
			<point x="598" y="-16" type="curve" smooth="yes"/>
			<point x="697" y="-16"/>
			<point x="763" y="22"/>
			<point x="806" y="103" type="curve"/>
			<point x="774" y="130" type="line"/>
			<point x="747" y="101"/>
			<point x="715" y="85"/>
			<point x="670" y="85" type="curve" smooth="yes"/>
			<point x="599" y="85"/>
			<point x="535" y="139"/>
			<point x="535" y="259" type="curve" smooth="yes"/>
			<point x="535" y="406"/>
			<point x="559" y="449"/>
			<point x="593" y="449" type="curve" smooth="yes"/>
			<point x="620" y="449"/>
			<point x="643" y="425"/>
			<point x="643" y="354" type="curve" smooth="yes"/>
			<point x="643" y="300"/>
			<point x="628" y="284"/>
			<point x="576" y="284" type="curve" smooth="yes"/>
			<point x="419" y="284" type="line"/>
			<point x="419" y="236" type="line"/>
			<point x="804" y="236" type="line"/>
			<point x="808" y="254"/>
			<point x="808" y="266"/>
			<point x="808" y="286" type="curve" smooth="yes"/>
			<point x="808" y="402"/>
			<point x="734" y="495"/>
			<point x="601" y="495" type="curve" smooth="yes"/>
			<point x="517" y="495"/>
			<point x="446" y="452"/>
			<point x="403" y="373" type="curve"/>
			<point x="486" y="372" type="line"/>
			<point x="446" y="447"/>
			<point x="374" y="495"/>
			<point x="280" y="495" type="curve" smooth="yes"/>
			<point x="130" y="495"/>
			<point x="24" y="388"/>
			<point x="24" y="242" type="curve" smooth="yes"/>
			<point x="24" y="95"/>
			<point x="112" y="-16"/>
		</contour>
		<contour>
			<point x="280" y="31" type="curve" smooth="yes"/>
			<point x="237" y="31"/>
			<point x="216" y="84"/>
			<point x="216" y="240" type="curve" smooth="yes"/>
			<point x="216" y="394"/>
			<point x="237" y="448"/>
			<point x="280" y="448" type="curve" smooth="yes"/>
			<point x="323" y="448"/>
			<point x="344" y="394"/>
			<point x="344" y="240" type="curve" smooth="yes"/>
			<point x="344" y="85"/>
			<point x="323" y="31"/>
		</contour>
	</outline>
	<anchor name="aboveLC" x="435" y="499"/>
</glyph>
<glyph name="Tbar" format="2">
	<unicode hex="0166"/>
	<advance width="627"/>
	<outline>
		<contour>
			<point x="64" y="290" type="line"/>
			<point x="564" y="290" type="line"/>
			<point x="564" y="342" type="line"/>
			<point x="64" y="342" type="line"/>
		</contour>
		<component base="T"/>
	</outline>
</glyph>
<glyph name="Uogonek" format="2">
	<unicode hex="0172"/>
	<advance width="700"/>
	<outline>
		<contour>
			<point x="164" y="588" type="line"/>
			<point x="213" y="588" type="line"/>
			<point x="352" y="604" type="line"/>
			<point x="352" y="652" type="line"/>
			<point x="25" y="652" type="line"/>
			<point x="25" y="604" type="line"/>
		</contour>
		<contour>
			<point x="414" y="-227" type="curve" smooth="yes"/>
			<point x="462" y="-227"/>
			<point x="508" y="-206"/>
			<point x="539" y="-174" type="curve"/>
			<point x="526" y="-131" type="line"/>
			<point x="511" y="-138"/>
			<point x="498" y="-141"/>
			<point x="478" y="-141" type="curve" smooth="yes"/>
			<point x="443" y="-141"/>
			<point x="423" y="-121"/>
			<point x="423" y="-84" type="curve" smooth="yes"/>
			<point x="423" y="-43"/>
			<point x="439" y="-14"/>
			<point x="481" y="9" type="curve" smooth="yes"/>
			<point x="560" y="51"/>
			<point x="603" y="138"/>
			<point x="603" y="281" type="curve" smooth="yes"/>
			<point x="603" y="652" type="line"/>
			<point x="544" y="652" type="line"/>
			<point x="544" y="267" type="line" smooth="yes"/>
			<point x="544" y="130"/>
			<point x="491" y="74"/>
			<point x="412" y="74" type="curve" smooth="yes"/>
			<point x="321" y="74"/>
			<point x="281" y="126"/>
			<point x="281" y="270" type="curve" smooth="yes"/>
			<point x="281" y="354" type="line" smooth="yes"/>
			<point x="281" y="454"/>
			<point x="281" y="561"/>
			<point x="284" y="652" type="curve"/>
			<point x="88" y="652" type="line"/>
			<point x="91" y="559"/>
			<point x="92" y="452"/>
			<point x="92" y="354" type="curve" smooth="yes"/>
			<point x="92" y="237" type="line" smooth="yes"/>
			<point x="92" y="47"/>
			<point x="201" y="-19"/>
			<point x="344" y="-19" type="curve" smooth="yes"/>
			<point x="373" y="-19"/>
			<point x="399" y="-16"/>
			<point x="424" y="-10" type="curve"/>
			<point x="421" y="-1" type="line"/>
			<point x="354" y="-29"/>
			<point x="309" y="-68"/>
			<point x="309" y="-129" type="curve" smooth="yes"/>
			<point x="309" y="-184"/>
			<point x="343" y="-227"/>
		</contour>
		<contour>
			<point x="559" y="595" type="line"/>
			<point x="587" y="595" type="line"/>
			<point x="678" y="604" type="line"/>
			<point x="678" y="652" type="line"/>
			<point x="464" y="652" type="line"/>
			<point x="464" y="604" type="line"/>
		</contour>
	</outline>
	<anchor name="aboveUC" x="409" y="672"/>
</glyph>
<glyph name="uogonek" format="2">
	<unicode hex="0173"/>
	<advance width="601"/>
	<outline>
		<contour>
			<point x="455" y="-227" type="curve" smooth="yes"/>
			<point x="503" y="-227"/>
			<point x="549" y="-206"/>
			<point x="580" y="-174" type="curve"/>
			<point x="567" y="-131" type="line"/>
			<point x="552" y="-138"/>
			<point x="538" y="-141"/>
			<point x="518" y="-141" type="curve" smooth="yes"/>
			<point x="484" y="-141"/>
			<point x="464" y="-121"/>
			<point x="464" y="-84" type="curve" smooth="yes"/>
			<point x="464" y="-44"/>
			<point x="478" y="-14"/>
			<point x="519" y="9" type="curve"/>
			<point x="483" y="12" type="line"/>
			<point x="483" y="8" type="line"/>
			<point x="404" y="-19"/>
			<point x="350" y="-65"/>
			<point x="350" y="-129" type="curve" smooth="yes"/>
			<point x="350" y="-184"/>
			<point x="384" y="-227"/>
		</contour>
		<component base="u"/>
	</outline>
	<anchor name="aboveLC" x="304" y="499"/>
</glyph>
<glyph name="longs" format="2">
	<unicode hex="017F"/>
	<advance width="357"/>
	<outline>
		<contour>
			<point x="25" y="0" type="line"/>
			<point x="328" y="0" type="line"/>
			<point x="328" y="43" type="line"/>
			<point x="227" y="62" type="line"/>
			<point x="101" y="62" type="line"/>
			<point x="25" y="43" type="line"/>
		</contour>
		<contour>
			<point x="68" y="0" type="curve"/>
			<point x="258" y="0" type="line"/>
			<point x="255" y="65"/>
			<point x="254" y="140"/>
			<point x="254" y="209" type="curve" smooth="yes"/>
			<point x="254" y="415" type="line" smooth="yes"/>
			<point x="254" y="539"/>
			<point x="248" y="632"/>
			<point x="291" y="682" type="curve" smooth="yes"/>
			<point x="302" y="695"/>
			<point x="312" y="703"/>
			<point x="331" y="711" type="curve"/>
			<point x="331" y="717" type="line"/>
			<point x="279" y="717" type="line"/>
			<point x="279" y="704" type="line"/>
			<point x="294" y="668" type="line" smooth="yes"/>
			<point x="320" y="606"/>
			<point x="350" y="581"/>
			<point x="387" y="581" type="curve" smooth="yes"/>
			<point x="431" y="581"/>
			<point x="459" y="609"/>
			<point x="460" y="650" type="curve"/>
			<point x="448" y="706"/>
			<point x="390" y="732"/>
			<point x="332" y="732" type="curve" smooth="yes"/>
			<point x="266" y="732"/>
			<point x="198" y="705"/>
			<point x="156" y="663" type="curve" smooth="yes"/>
			<point x="108" y="615"/>
			<point x="72" y="563"/>
			<point x="72" y="414" type="curve" smooth="yes"/>
			<point x="72" y="209" type="line" smooth="yes"/>
			<point x="72" y="140"/>
			<point x="72" y="66"/>
		</contour>
	</outline>
</glyph>
<glyph name="Schwa" format="2">
	<unicode hex="018F"/>
	<advance width="641"/>
	<outline>
		<contour>
			<point x="27" y="275" type="curve" smooth="yes"/>
			<point x="27" y="111"/>
			<point x="118" y="-19"/>
			<point x="319" y="-19" type="curve" smooth="yes"/>
			<point x="473" y="-19"/>
			<point x="615" y="89"/>
			<point x="615" y="328" type="curve" smooth="yes"/>
			<point x="615" y="541"/>
			<point x="492" y="671"/>
			<point x="301" y="671" type="curve" smooth="yes"/>
			<point x="218" y="671"/>
			<point x="135" y="639"/>
			<point x="78" y="569" type="curve"/>
			<point x="104" y="533" type="line"/>
			<point x="150" y="574"/>
			<point x="205" y="597"/>
			<point x="264" y="597" type="curve" smooth="yes"/>
			<point x="373" y="597"/>
			<point x="417" y="506"/>
			<point x="417" y="321" type="curve" smooth="yes"/>
			<point x="417" y="126"/>
			<point x="384" y="32"/>
			<point x="322" y="32" type="curve" smooth="yes"/>
			<point x="263" y="32"/>
			<point x="221" y="94"/>
			<point x="221" y="226" type="curve" smooth="yes"/>
			<point x="221" y="254"/>
			<point x="222" y="281"/>
			<point x="226" y="307" type="curve"/>
			<point x="518" y="307" type="line"/>
			<point x="518" y="360" type="line"/>
			<point x="33" y="360" type="line"/>
			<point x="28" y="331"/>
			<point x="27" y="308"/>
		</contour>
	</outline>
	<anchor name="aboveUC" x="310" y="672"/>
	<anchor name="belowLC" x="320" y="-20"/>
</glyph>
<glyph name="florin" format="2">
	<unicode hex="0192"/>
	<advance width="550"/>
	<outline>
		<contour>
			<point x="138" y="-107" type="curve" smooth="yes"/>
			<point x="187" y="-107"/>
			<point x="234" y="-91"/>
			<point x="270" y="-54" type="curve" smooth="yes"/>
			<point x="319" y="-4"/>
			<point x="341" y="73"/>
			<point x="351" y="227" type="curve" smooth="yes"/>
			<point x="360" y="365" type="line" smooth="yes"/>
			<point x="366" y="466"/>
			<point x="369" y="522"/>
			<point x="385" y="562" type="curve" smooth="yes"/>
			<point x="397" y="594"/>
			<point x="418" y="611"/>
			<point x="452" y="622" type="curve"/>
			<point x="451" y="624" type="line"/>
			<point x="404" y="618" type="line"/>
			<point x="422" y="551" type="line" smooth="yes"/>
			<point x="435" y="501"/>
			<point x="459" y="488"/>
			<point x="490" y="488" type="curve" smooth="yes"/>
			<point x="522" y="488"/>
			<point x="547" y="515"/>
			<point x="547" y="556" type="curve"/>
			<point x="530" y="608"/>
			<point x="482" y="640"/>
			<point x="407" y="640" type="curve" smooth="yes"/>
			<point x="358" y="640"/>
			<point x="310" y="624"/>
			<point x="279" y="593" type="curve" smooth="yes"/>
			<point x="229" y="542"/>
			<point x="207" y="477"/>
			<point x="199" y="360" type="curve" smooth="yes"/>
			<point x="190" y="211" type="line" smooth="yes"/>
			<point x="182" y="90"/>
			<point x="178" y="15"/>
			<point x="161" y="-28" type="curve" smooth="yes"/>
			<point x="149" y="-59"/>
			<point x="128" y="-75"/>
			<point x="98" y="-87" type="curve" smooth="yes"/>
			<point x="89" y="-90" type="line"/>
			<point x="141" y="-84" type="line"/>
			<point x="124" y="-18" type="line" smooth="yes"/>
			<point x="110" y="32"/>
			<point x="86" y="45"/>
			<point x="55" y="45" type="curve" smooth="yes"/>
			<point x="24" y="45"/>
			<point x="-1" y="18"/>
			<point x="-1" y="-23" type="curve"/>
			<point x="15" y="-75"/>
			<point x="64" y="-107"/>
		</contour>
		<contour>
			<point x="111" y="340" type="line"/>
			<point x="463" y="340" type="line"/>
			<point x="463" y="392" type="line"/>
			<point x="111" y="392" type="line"/>
		</contour>
	</outline>
</glyph>
<glyph name="Uhorn" format="2">
	<unicode hex="01AF"/>
	<advance width="700"/>
	<outline>
		<contour>
			<point x="344" y="-19" type="curve" smooth="yes"/>
			<point x="513" y="-19"/>
			<point x="603" y="70"/>
			<point x="603" y="281" type="curve" smooth="yes"/>
			<point x="603" y="652" type="line"/>
			<point x="544" y="652" type="line"/>
			<point x="544" y="267" type="line" smooth="yes"/>
			<point x="544" y="130"/>
			<point x="491" y="74"/>
			<point x="412" y="74" type="curve" smooth="yes"/>
			<point x="321" y="74"/>
			<point x="281" y="126"/>
			<point x="281" y="270" type="curve" smooth="yes"/>
			<point x="281" y="354" type="line" smooth="yes"/>
			<point x="281" y="454"/>
			<point x="281" y="561"/>
			<point x="284" y="652" type="curve"/>
			<point x="88" y="652" type="line"/>
			<point x="91" y="559"/>
			<point x="92" y="452"/>
			<point x="92" y="354" type="curve" smooth="yes"/>
			<point x="92" y="237" type="line" smooth="yes"/>
			<point x="92" y="47"/>
			<point x="201" y="-19"/>
		</contour>
		<contour>
			<point x="560" y="606" type="line"/>
			<point x="670" y="606"/>
			<point x="736" y="650"/>
			<point x="736" y="750" type="curve" smooth="yes"/>
			<point x="736" y="770"/>
			<point x="730" y="790"/>
			<point x="721" y="804" type="curve"/>
			<point x="708" y="814"/>
			<point x="692" y="820"/>
			<point x="669" y="820" type="curve" smooth="yes"/>
			<point x="635" y="820"/>
			<point x="613" y="794"/>
			<point x="613" y="762" type="curve" smooth="yes"/>
			<point x="613" y="723"/>
			<point x="646" y="707"/>
			<point x="646" y="682" type="curve" smooth="yes"/>
			<point x="646" y="658"/>
			<point x="621" y="652"/>
			<point x="560" y="652" type="curve"/>
		</contour>
		<contour>
			<point x="25" y="604" type="line"/>
			<point x="164" y="588" type="line"/>
			<point x="213" y="588" type="line"/>
			<point x="352" y="604" type="line"/>
			<point x="352" y="652" type="line"/>
			<point x="25" y="652" type="line"/>
		</contour>
		<contour>
			<point x="464" y="604" type="line"/>
			<point x="559" y="595" type="line"/>
			<point x="587" y="595" type="line"/>
			<point x="587" y="652" type="line"/>
			<point x="464" y="652" type="line"/>
		</contour>
	</outline>
	<anchor name="aboveUC" x="406" y="672"/>
	<anchor name="belowLC" x="369" y="-20"/>
</glyph>
<glyph name="uhorn" format="2">
	<unicode hex="01B0"/>
	<advance width="601"/>
	<outline>
		<contour>
			<point x="204" y="-16" type="curve" smooth="yes"/>
			<point x="287" y="-16"/>
			<point x="349" y="35"/>
			<point x="391" y="121" type="curve"/>
			<point x="411" y="121" type="line"/>
			<point x="393" y="163" type="line"/>
			<point x="369" y="121"/>
			<point x="325" y="84"/>
			<point x="292" y="84" type="curve" smooth="yes"/>
			<point x="264" y="84"/>
			<point x="246" y="99"/>
			<point x="246" y="150" type="curve" smooth="yes"/>
			<point x="246" y="339" type="line"/>
			<point x="251" y="481" type="line"/>
			<point x="233" y="491" type="line"/>
			<point x="17" y="454" type="line"/>
			<point x="17" y="415" type="line"/>
			<point x="102" y="396" type="line"/>
			<point x="68" y="430" type="line"/>
			<point x="63" y="162" type="line" smooth="yes"/>
			<point x="61" y="31"/>
			<point x="118" y="-16"/>
		</contour>
		<contour>
			<point x="362" y="-13" type="line"/>
			<point x="585" y="-1" type="line"/>
			<point x="585" y="42" type="line"/>
			<point x="540" y="52" type="line"/>
			<point x="540" y="339" type="line"/>
			<point x="543" y="481" type="line"/>
			<point x="488" y="453" type="line"/>
			<point x="566" y="458"/>
			<point x="634" y="512"/>
			<point x="634" y="606" type="curve" smooth="yes"/>
			<point x="634" y="629"/>
			<point x="629" y="647"/>
			<point x="618" y="666" type="curve"/>
			<point x="602" y="676"/>
			<point x="588" y="682"/>
			<point x="567" y="682" type="curve" smooth="yes"/>
			<point x="535" y="682"/>
			<point x="511" y="657"/>
			<point x="511" y="625" type="curve" smooth="yes"/>
			<point x="511" y="581"/>
			<point x="547" y="574"/>
			<point x="547" y="531" type="curve" smooth="yes"/>
			<point x="547" y="499"/>
			<point x="521" y="491"/>
			<point x="488" y="484" type="curve" smooth="yes"/>
			<point x="312" y="450" type="line"/>
			<point x="312" y="415" type="line"/>
			<point x="360" y="405" type="line"/>
			<point x="358" y="99" type="line"/>
			<point x="358" y="98" type="line"/>
		</contour>
	</outline>
	<anchor name="aboveLC" x="304" y="499"/>
	<anchor name="belowLC" x="307" y="-20"/>
</glyph>
<glyph name="dotlessj" format="2">
	<unicode hex="0237"/>
	<advance width="310"/>
	<outline>
		<contour>
			<point x="19" y="-234" type="curve" smooth="yes"/>
			<point x="64" y="-234"/>
			<point x="131" y="-221"/>
			<point x="186" y="-166" type="curve" smooth="yes"/>
			<point x="231" y="-121"/>
			<point x="250" y="-77"/>
			<point x="250" y="20" type="curve" smooth="yes"/>
			<point x="250" y="339" type="line"/>
			<point x="254" y="484" type="line"/>
			<point x="236" y="495" type="line"/>
			<point x="14" y="430" type="line"/>
			<point x="14" y="395" type="line"/>
			<point x="67" y="384" type="line"/>
			<point x="68" y="342"/>
			<point x="69" y="309"/>
			<point x="69" y="251" type="curve" smooth="yes"/>
			<point x="69" y="97" type="line" smooth="yes"/>
			<point x="69" y="7"/>
			<point x="82" y="-85"/>
			<point x="76" y="-144" type="curve" smooth="yes"/>
			<point x="74" y="-166"/>
			<point x="71" y="-176"/>
			<point x="64" y="-192" type="curve"/>
			<point x="64" y="-216" type="line"/>
			<point x="83" y="-216" type="line"/>
			<point x="83" y="-211" type="line"/>
			<point x="60" y="-152" type="line" smooth="yes"/>
			<point x="40" y="-103"/>
			<point x="17" y="-85"/>
			<point x="-19" y="-85" type="curve" smooth="yes"/>
			<point x="-63" y="-85"/>
			<point x="-92" y="-111"/>
			<point x="-100" y="-159" type="curve"/>
			<point x="-85" y="-211"/>
			<point x="-46" y="-234"/>
		</contour>
	</outline>
	<anchor name="aboveLC" x="152" y="499"/>
	<anchor name="belowLC" x="98" y="-237"/>
</glyph>
